<?xml version="1.0" encoding="utf-8" standalone="no"?>
<!DOCTYPE svg PUBLIC "-//W3C//DTD SVG 1.1//EN"
  "http://www.w3.org/Graphics/SVG/1.1/DTD/svg11.dtd">
<svg xmlns:xlink="http://www.w3.org/1999/xlink" width="438.414375pt" height="279.676172pt" viewBox="0 0 438.414375 279.676172" xmlns="http://www.w3.org/2000/svg" version="1.1">
 <metadata>
  <rdf:RDF xmlns:dc="http://purl.org/dc/elements/1.1/" xmlns:cc="http://creativecommons.org/ns#" xmlns:rdf="http://www.w3.org/1999/02/22-rdf-syntax-ns#">
   <cc:Work>
    <dc:type rdf:resource="http://purl.org/dc/dcmitype/StillImage"/>
    <dc:date>2026-06-11T19:47:47.467550</dc:date>
    <dc:format>image/svg+xml</dc:format>
    <dc:creator>
     <cc:Agent>
      <dc:title>Matplotlib v3.10.9, https://matplotlib.org/</dc:title>
     </cc:Agent>
    </dc:creator>
   </cc:Work>
  </rdf:RDF>
 </metadata>
 <defs>
  <style type="text/css">*{stroke-linejoin: round; stroke-linecap: butt}</style>
 </defs>
 <g id="figure_1">
  <g id="patch_1">
   <path d="M 0 279.676172 
L 438.414375 279.676172 
L 438.414375 0 
L 0 0 
z
" style="fill: #ffffff"/>
  </g>
  <g id="axes_1">
   <g id="patch_2">
    <path d="M 40.094375 243.861016 
L 431.214375 243.861016 
L 431.214375 10.421016 
L 40.094375 10.421016 
z
" style="fill: #ffffff"/>
   </g>
   <g id="matplotlib.axis_1">
    <g id="xtick_1">
     <g id="line2d_1">
      <path d="M 40.094375 243.861016 
L 40.094375 10.421016 
" clip-path="url(#pd692eabfd4)" style="fill: none; stroke: #e8e2d6; stroke-opacity: 0.8; stroke-width: 0.8; stroke-linecap: square"/>
     </g>
     <g id="line2d_2">
      <defs>
       <path id="md67c7c5164" d="M 0 0 
L 0 3.5 
" style="stroke: #000000; stroke-width: 0.8"/>
      </defs>
      <g>
       <use xlink:href="#md67c7c5164" x="40.094375" y="243.861016" style="stroke: #000000; stroke-width: 0.8"/>
      </g>
     </g>
     <g id="text_1">
      <text style="font-size: 9px; font-family: 'Arial', 'Helvetica', 'DejaVu Sans', sans-serif; text-anchor: middle" x="40.094375" y="257.303047" transform="rotate(-0 40.094375 257.303047)">20</text>
     </g>
    </g>
    <g id="xtick_2">
     <g id="line2d_3">
      <path d="M 100.266683 243.861016 
L 100.266683 10.421016 
" clip-path="url(#pd692eabfd4)" style="fill: none; stroke: #e8e2d6; stroke-opacity: 0.8; stroke-width: 0.8; stroke-linecap: square"/>
     </g>
     <g id="line2d_4">
      <g>
       <use xlink:href="#md67c7c5164" x="100.266683" y="243.861016" style="stroke: #000000; stroke-width: 0.8"/>
      </g>
     </g>
     <g id="text_2">
      <text style="font-size: 9px; font-family: 'Arial', 'Helvetica', 'DejaVu Sans', sans-serif; text-anchor: middle" x="100.266683" y="257.303047" transform="rotate(-0 100.266683 257.303047)">30</text>
     </g>
    </g>
    <g id="xtick_3">
     <g id="line2d_5">
      <path d="M 160.43899 243.861016 
L 160.43899 10.421016 
" clip-path="url(#pd692eabfd4)" style="fill: none; stroke: #e8e2d6; stroke-opacity: 0.8; stroke-width: 0.8; stroke-linecap: square"/>
     </g>
     <g id="line2d_6">
      <g>
       <use xlink:href="#md67c7c5164" x="160.43899" y="243.861016" style="stroke: #000000; stroke-width: 0.8"/>
      </g>
     </g>
     <g id="text_3">
      <text style="font-size: 9px; font-family: 'Arial', 'Helvetica', 'DejaVu Sans', sans-serif; text-anchor: middle" x="160.43899" y="257.303047" transform="rotate(-0 160.43899 257.303047)">40</text>
     </g>
    </g>
    <g id="xtick_4">
     <g id="line2d_7">
      <path d="M 220.611298 243.861016 
L 220.611298 10.421016 
" clip-path="url(#pd692eabfd4)" style="fill: none; stroke: #e8e2d6; stroke-opacity: 0.8; stroke-width: 0.8; stroke-linecap: square"/>
     </g>
     <g id="line2d_8">
      <g>
       <use xlink:href="#md67c7c5164" x="220.611298" y="243.861016" style="stroke: #000000; stroke-width: 0.8"/>
      </g>
     </g>
     <g id="text_4">
      <text style="font-size: 9px; font-family: 'Arial', 'Helvetica', 'DejaVu Sans', sans-serif; text-anchor: middle" x="220.611298" y="257.303047" transform="rotate(-0 220.611298 257.303047)">50</text>
     </g>
    </g>
    <g id="xtick_5">
     <g id="line2d_9">
      <path d="M 280.783606 243.861016 
L 280.783606 10.421016 
" clip-path="url(#pd692eabfd4)" style="fill: none; stroke: #e8e2d6; stroke-opacity: 0.8; stroke-width: 0.8; stroke-linecap: square"/>
     </g>
     <g id="line2d_10">
      <g>
       <use xlink:href="#md67c7c5164" x="280.783606" y="243.861016" style="stroke: #000000; stroke-width: 0.8"/>
      </g>
     </g>
     <g id="text_5">
      <text style="font-size: 9px; font-family: 'Arial', 'Helvetica', 'DejaVu Sans', sans-serif; text-anchor: middle" x="280.783606" y="257.303047" transform="rotate(-0 280.783606 257.303047)">60</text>
     </g>
    </g>
    <g id="xtick_6">
     <g id="line2d_11">
      <path d="M 340.955913 243.861016 
L 340.955913 10.421016 
" clip-path="url(#pd692eabfd4)" style="fill: none; stroke: #e8e2d6; stroke-opacity: 0.8; stroke-width: 0.8; stroke-linecap: square"/>
     </g>
     <g id="line2d_12">
      <g>
       <use xlink:href="#md67c7c5164" x="340.955913" y="243.861016" style="stroke: #000000; stroke-width: 0.8"/>
      </g>
     </g>
     <g id="text_6">
      <text style="font-size: 9px; font-family: 'Arial', 'Helvetica', 'DejaVu Sans', sans-serif; text-anchor: middle" x="340.955913" y="257.303047" transform="rotate(-0 340.955913 257.303047)">70</text>
     </g>
    </g>
    <g id="xtick_7">
     <g id="line2d_13">
      <path d="M 401.128221 243.861016 
L 401.128221 10.421016 
" clip-path="url(#pd692eabfd4)" style="fill: none; stroke: #e8e2d6; stroke-opacity: 0.8; stroke-width: 0.8; stroke-linecap: square"/>
     </g>
     <g id="line2d_14">
      <g>
       <use xlink:href="#md67c7c5164" x="401.128221" y="243.861016" style="stroke: #000000; stroke-width: 0.8"/>
      </g>
     </g>
     <g id="text_7">
      <text style="font-size: 9px; font-family: 'Arial', 'Helvetica', 'DejaVu Sans', sans-serif; text-anchor: middle" x="401.128221" y="257.303047" transform="rotate(-0 401.128221 257.303047)">80</text>
     </g>
    </g>
    <g id="text_8">
     <text style="font-size: 10px; font-family: 'Arial', 'Helvetica', 'DejaVu Sans', sans-serif; text-anchor: middle" x="235.654375" y="270.371484" transform="rotate(-0 235.654375 270.371484)">Temperature (°C)</text>
    </g>
   </g>
   <g id="matplotlib.axis_2">
    <g id="ytick_1">
     <g id="line2d_15">
      <path d="M 40.094375 243.861016 
L 431.214375 243.861016 
" clip-path="url(#pd692eabfd4)" style="fill: none; stroke: #e8e2d6; stroke-opacity: 0.8; stroke-width: 0.8; stroke-linecap: square"/>
     </g>
     <g id="line2d_16">
      <defs>
       <path id="m19a9acce91" d="M 0 0 
L -3.5 0 
" style="stroke: #000000; stroke-width: 0.8"/>
      </defs>
      <g>
       <use xlink:href="#m19a9acce91" x="40.094375" y="243.861016" style="stroke: #000000; stroke-width: 0.8"/>
      </g>
     </g>
     <g id="text_9">
      <text style="font-size: 9px; font-family: 'Arial', 'Helvetica', 'DejaVu Sans', sans-serif; text-anchor: end" x="33.094375" y="247.082031" transform="rotate(-0 33.094375 247.082031)">0.0</text>
     </g>
    </g>
    <g id="ytick_2">
     <g id="line2d_17">
      <path d="M 40.094375 217.923238 
L 431.214375 217.923238 
" clip-path="url(#pd692eabfd4)" style="fill: none; stroke: #e8e2d6; stroke-opacity: 0.8; stroke-width: 0.8; stroke-linecap: square"/>
     </g>
     <g id="line2d_18">
      <g>
       <use xlink:href="#m19a9acce91" x="40.094375" y="217.923238" style="stroke: #000000; stroke-width: 0.8"/>
      </g>
     </g>
     <g id="text_10">
      <text style="font-size: 9px; font-family: 'Arial', 'Helvetica', 'DejaVu Sans', sans-serif; text-anchor: end" x="33.094375" y="221.144253" transform="rotate(-0 33.094375 221.144253)">0.2</text>
     </g>
    </g>
    <g id="ytick_3">
     <g id="line2d_19">
      <path d="M 40.094375 191.98546 
L 431.214375 191.98546 
" clip-path="url(#pd692eabfd4)" style="fill: none; stroke: #e8e2d6; stroke-opacity: 0.8; stroke-width: 0.8; stroke-linecap: square"/>
     </g>
     <g id="line2d_20">
      <g>
       <use xlink:href="#m19a9acce91" x="40.094375" y="191.98546" style="stroke: #000000; stroke-width: 0.8"/>
      </g>
     </g>
     <g id="text_11">
      <text style="font-size: 9px; font-family: 'Arial', 'Helvetica', 'DejaVu Sans', sans-serif; text-anchor: end" x="33.094375" y="195.206476" transform="rotate(-0 33.094375 195.206476)">0.4</text>
     </g>
    </g>
    <g id="ytick_4">
     <g id="line2d_21">
      <path d="M 40.094375 166.047682 
L 431.214375 166.047682 
" clip-path="url(#pd692eabfd4)" style="fill: none; stroke: #e8e2d6; stroke-opacity: 0.8; stroke-width: 0.8; stroke-linecap: square"/>
     </g>
     <g id="line2d_22">
      <g>
       <use xlink:href="#m19a9acce91" x="40.094375" y="166.047682" style="stroke: #000000; stroke-width: 0.8"/>
      </g>
     </g>
     <g id="text_12">
      <text style="font-size: 9px; font-family: 'Arial', 'Helvetica', 'DejaVu Sans', sans-serif; text-anchor: end" x="33.094375" y="169.268698" transform="rotate(-0 33.094375 169.268698)">0.6</text>
     </g>
    </g>
    <g id="ytick_5">
     <g id="line2d_23">
      <path d="M 40.094375 140.109905 
L 431.214375 140.109905 
" clip-path="url(#pd692eabfd4)" style="fill: none; stroke: #e8e2d6; stroke-opacity: 0.8; stroke-width: 0.8; stroke-linecap: square"/>
     </g>
     <g id="line2d_24">
      <g>
       <use xlink:href="#m19a9acce91" x="40.094375" y="140.109905" style="stroke: #000000; stroke-width: 0.8"/>
      </g>
     </g>
     <g id="text_13">
      <text style="font-size: 9px; font-family: 'Arial', 'Helvetica', 'DejaVu Sans', sans-serif; text-anchor: end" x="33.094375" y="143.33092" transform="rotate(-0 33.094375 143.33092)">0.8</text>
     </g>
    </g>
    <g id="ytick_6">
     <g id="line2d_25">
      <path d="M 40.094375 114.172127 
L 431.214375 114.172127 
" clip-path="url(#pd692eabfd4)" style="fill: none; stroke: #e8e2d6; stroke-opacity: 0.8; stroke-width: 0.8; stroke-linecap: square"/>
     </g>
     <g id="line2d_26">
      <g>
       <use xlink:href="#m19a9acce91" x="40.094375" y="114.172127" style="stroke: #000000; stroke-width: 0.8"/>
      </g>
     </g>
     <g id="text_14">
      <text style="font-size: 9px; font-family: 'Arial', 'Helvetica', 'DejaVu Sans', sans-serif; text-anchor: end" x="33.094375" y="117.393142" transform="rotate(-0 33.094375 117.393142)">1.0</text>
     </g>
    </g>
    <g id="ytick_7">
     <g id="line2d_27">
      <path d="M 40.094375 88.234349 
L 431.214375 88.234349 
" clip-path="url(#pd692eabfd4)" style="fill: none; stroke: #e8e2d6; stroke-opacity: 0.8; stroke-width: 0.8; stroke-linecap: square"/>
     </g>
     <g id="line2d_28">
      <g>
       <use xlink:href="#m19a9acce91" x="40.094375" y="88.234349" style="stroke: #000000; stroke-width: 0.8"/>
      </g>
     </g>
     <g id="text_15">
      <text style="font-size: 9px; font-family: 'Arial', 'Helvetica', 'DejaVu Sans', sans-serif; text-anchor: end" x="33.094375" y="91.455365" transform="rotate(-0 33.094375 91.455365)">1.2</text>
     </g>
    </g>
    <g id="ytick_8">
     <g id="line2d_29">
      <path d="M 40.094375 62.296571 
L 431.214375 62.296571 
" clip-path="url(#pd692eabfd4)" style="fill: none; stroke: #e8e2d6; stroke-opacity: 0.8; stroke-width: 0.8; stroke-linecap: square"/>
     </g>
     <g id="line2d_30">
      <g>
       <use xlink:href="#m19a9acce91" x="40.094375" y="62.296571" style="stroke: #000000; stroke-width: 0.8"/>
      </g>
     </g>
     <g id="text_16">
      <text style="font-size: 9px; font-family: 'Arial', 'Helvetica', 'DejaVu Sans', sans-serif; text-anchor: end" x="33.094375" y="65.517587" transform="rotate(-0 33.094375 65.517587)">1.4</text>
     </g>
    </g>
    <g id="ytick_9">
     <g id="line2d_31">
      <path d="M 40.094375 36.358793 
L 431.214375 36.358793 
" clip-path="url(#pd692eabfd4)" style="fill: none; stroke: #e8e2d6; stroke-opacity: 0.8; stroke-width: 0.8; stroke-linecap: square"/>
     </g>
     <g id="line2d_32">
      <g>
       <use xlink:href="#m19a9acce91" x="40.094375" y="36.358793" style="stroke: #000000; stroke-width: 0.8"/>
      </g>
     </g>
     <g id="text_17">
      <text style="font-size: 9px; font-family: 'Arial', 'Helvetica', 'DejaVu Sans', sans-serif; text-anchor: end" x="33.094375" y="39.579809" transform="rotate(-0 33.094375 39.579809)">1.6</text>
     </g>
    </g>
    <g id="ytick_10">
     <g id="line2d_33">
      <path d="M 40.094375 10.421016 
L 431.214375 10.421016 
" clip-path="url(#pd692eabfd4)" style="fill: none; stroke: #e8e2d6; stroke-opacity: 0.8; stroke-width: 0.8; stroke-linecap: square"/>
     </g>
     <g id="line2d_34">
      <g>
       <use xlink:href="#m19a9acce91" x="40.094375" y="10.421016" style="stroke: #000000; stroke-width: 0.8"/>
      </g>
     </g>
     <g id="text_18">
      <text style="font-size: 9px; font-family: 'Arial', 'Helvetica', 'DejaVu Sans', sans-serif; text-anchor: end" x="33.094375" y="13.642031" transform="rotate(-0 33.094375 13.642031)">1.8</text>
     </g>
    </g>
    <g id="text_19">
     <text style="font-size: 10px; font-family: 'Arial', 'Helvetica', 'DejaVu Sans', sans-serif; text-anchor: middle" x="14.479688" y="127.141016" transform="rotate(-90 14.479688 127.141016)">45° Shear strength (MPa)</text>
    </g>
   </g>
   <g id="line2d_35">
    <path d="M 70.180529 133.62546 
L 160.43899 150.485016 
L 280.783606 181.610349 
L 401.128221 211.438793 
" clip-path="url(#pd692eabfd4)" style="fill: none; stroke: #4b6f8a; stroke-width: 2.2; stroke-linecap: square"/>
    <defs>
     <path id="md2d1e00b23" d="M 0 3 
C 0.795609 3 1.55874 2.683901 2.12132 2.12132 
C 2.683901 1.55874 3 0.795609 3 0 
C 3 -0.795609 2.683901 -1.55874 2.12132 -2.12132 
C 1.55874 -2.683901 0.795609 -3 0 -3 
C -0.795609 -3 -1.55874 -2.683901 -2.12132 -2.12132 
C -2.683901 -1.55874 -3 -0.795609 -3 0 
C -3 0.795609 -2.683901 1.55874 -2.12132 2.12132 
C -1.55874 2.683901 -0.795609 3 0 3 
z
" style="stroke: #4b6f8a"/>
    </defs>
    <g clip-path="url(#pd692eabfd4)">
     <use xlink:href="#md2d1e00b23" x="70.180529" y="133.62546" style="fill: #4b6f8a; stroke: #4b6f8a"/>
     <use xlink:href="#md2d1e00b23" x="160.43899" y="150.485016" style="fill: #4b6f8a; stroke: #4b6f8a"/>
     <use xlink:href="#md2d1e00b23" x="280.783606" y="181.610349" style="fill: #4b6f8a; stroke: #4b6f8a"/>
     <use xlink:href="#md2d1e00b23" x="401.128221" y="211.438793" style="fill: #4b6f8a; stroke: #4b6f8a"/>
    </g>
   </g>
   <g id="line2d_36">
    <path d="M 70.180529 98.60946 
L 160.43899 120.656571 
L 280.783606 155.672571 
L 401.128221 189.391682 
" clip-path="url(#pd692eabfd4)" style="fill: none; stroke: #c47b45; stroke-width: 2.2; stroke-linecap: square"/>
    <defs>
     <path id="m1b1fdf1c3c" d="M 0 3 
C 0.795609 3 1.55874 2.683901 2.12132 2.12132 
C 2.683901 1.55874 3 0.795609 3 0 
C 3 -0.795609 2.683901 -1.55874 2.12132 -2.12132 
C 1.55874 -2.683901 0.795609 -3 0 -3 
C -0.795609 -3 -1.55874 -2.683901 -2.12132 -2.12132 
C -2.683901 -1.55874 -3 -0.795609 -3 0 
C -3 0.795609 -2.683901 1.55874 -2.12132 2.12132 
C -1.55874 2.683901 -0.795609 3 0 3 
z
" style="stroke: #c47b45"/>
    </defs>
    <g clip-path="url(#pd692eabfd4)">
     <use xlink:href="#m1b1fdf1c3c" x="70.180529" y="98.60946" style="fill: #c47b45; stroke: #c47b45"/>
     <use xlink:href="#m1b1fdf1c3c" x="160.43899" y="120.656571" style="fill: #c47b45; stroke: #c47b45"/>
     <use xlink:href="#m1b1fdf1c3c" x="280.783606" y="155.672571" style="fill: #c47b45; stroke: #c47b45"/>
     <use xlink:href="#m1b1fdf1c3c" x="401.128221" y="189.391682" style="fill: #c47b45; stroke: #c47b45"/>
    </g>
   </g>
   <g id="line2d_37">
    <path d="M 70.180529 55.812127 
L 160.43899 77.859238 
L 280.783606 124.547238 
L 401.128221 168.64146 
" clip-path="url(#pd692eabfd4)" style="fill: none; stroke: #4f7c6a; stroke-width: 2.2; stroke-linecap: square"/>
    <defs>
     <path id="m8c08d217eb" d="M 0 3 
C 0.795609 3 1.55874 2.683901 2.12132 2.12132 
C 2.683901 1.55874 3 0.795609 3 0 
C 3 -0.795609 2.683901 -1.55874 2.12132 -2.12132 
C 1.55874 -2.683901 0.795609 -3 0 -3 
C -0.795609 -3 -1.55874 -2.683901 -2.12132 -2.12132 
C -2.683901 -1.55874 -3 -0.795609 -3 0 
C -3 0.795609 -2.683901 1.55874 -2.12132 2.12132 
C -1.55874 2.683901 -0.795609 3 0 3 
z
" style="stroke: #4f7c6a"/>
    </defs>
    <g clip-path="url(#pd692eabfd4)">
     <use xlink:href="#m8c08d217eb" x="70.180529" y="55.812127" style="fill: #4f7c6a; stroke: #4f7c6a"/>
     <use xlink:href="#m8c08d217eb" x="160.43899" y="77.859238" style="fill: #4f7c6a; stroke: #4f7c6a"/>
     <use xlink:href="#m8c08d217eb" x="280.783606" y="124.547238" style="fill: #4f7c6a; stroke: #4f7c6a"/>
     <use xlink:href="#m8c08d217eb" x="401.128221" y="168.64146" style="fill: #4f7c6a; stroke: #4f7c6a"/>
    </g>
   </g>
   <g id="line2d_38">
    <path d="M 70.180529 46.733905 
L 160.43899 68.781016 
L 280.783606 107.687682 
L 401.128221 150.485016 
" clip-path="url(#pd692eabfd4)" style="fill: none; stroke: #8b6f47; stroke-width: 2.2; stroke-linecap: square"/>
    <defs>
     <path id="m488c8216fa" d="M 0 3 
C 0.795609 3 1.55874 2.683901 2.12132 2.12132 
C 2.683901 1.55874 3 0.795609 3 0 
C 3 -0.795609 2.683901 -1.55874 2.12132 -2.12132 
C 1.55874 -2.683901 0.795609 -3 0 -3 
C -0.795609 -3 -1.55874 -2.683901 -2.12132 -2.12132 
C -2.683901 -1.55874 -3 -0.795609 -3 0 
C -3 0.795609 -2.683901 1.55874 -2.12132 2.12132 
C -1.55874 2.683901 -0.795609 3 0 3 
z
" style="stroke: #8b6f47"/>
    </defs>
    <g clip-path="url(#pd692eabfd4)">
     <use xlink:href="#m488c8216fa" x="70.180529" y="46.733905" style="fill: #8b6f47; stroke: #8b6f47"/>
     <use xlink:href="#m488c8216fa" x="160.43899" y="68.781016" style="fill: #8b6f47; stroke: #8b6f47"/>
     <use xlink:href="#m488c8216fa" x="280.783606" y="107.687682" style="fill: #8b6f47; stroke: #8b6f47"/>
     <use xlink:href="#m488c8216fa" x="401.128221" y="150.485016" style="fill: #8b6f47; stroke: #8b6f47"/>
    </g>
   </g>
   <g id="line2d_39">
    <path d="M 70.180529 64.890349 
L 160.43899 90.828127 
L 280.783606 137.516127 
L 401.128221 179.016571 
" clip-path="url(#pd692eabfd4)" style="fill: none; stroke: #d4a574; stroke-width: 2.2; stroke-linecap: square"/>
    <defs>
     <path id="m45ddc2ef7d" d="M 0 3 
C 0.795609 3 1.55874 2.683901 2.12132 2.12132 
C 2.683901 1.55874 3 0.795609 3 0 
C 3 -0.795609 2.683901 -1.55874 2.12132 -2.12132 
C 1.55874 -2.683901 0.795609 -3 0 -3 
C -0.795609 -3 -1.55874 -2.683901 -2.12132 -2.12132 
C -2.683901 -1.55874 -3 -0.795609 -3 0 
C -3 0.795609 -2.683901 1.55874 -2.12132 2.12132 
C -1.55874 2.683901 -0.795609 3 0 3 
z
" style="stroke: #d4a574"/>
    </defs>
    <g clip-path="url(#pd692eabfd4)">
     <use xlink:href="#m45ddc2ef7d" x="70.180529" y="64.890349" style="fill: #d4a574; stroke: #d4a574"/>
     <use xlink:href="#m45ddc2ef7d" x="160.43899" y="90.828127" style="fill: #d4a574; stroke: #d4a574"/>
     <use xlink:href="#m45ddc2ef7d" x="280.783606" y="137.516127" style="fill: #d4a574; stroke: #d4a574"/>
     <use xlink:href="#m45ddc2ef7d" x="401.128221" y="179.016571" style="fill: #d4a574; stroke: #d4a574"/>
    </g>
   </g>
   <g id="patch_3">
    <path d="M 40.094375 243.861016 
L 40.094375 10.421016 
" style="fill: none; stroke: #000000; stroke-width: 1.4; stroke-linejoin: miter; stroke-linecap: square"/>
   </g>
   <g id="patch_4">
    <path d="M 40.094375 243.861016 
L 431.214375 243.861016 
" style="fill: none; stroke: #000000; stroke-width: 1.4; stroke-linejoin: miter; stroke-linecap: square"/>
   </g>
   <g id="text_20">
    <text style="font-weight: 700; font-size: 12px; font-family: 'Arial', 'Helvetica', 'DejaVu Sans', sans-serif; text-anchor: start" x="47.916775" y="23.825441" transform="rotate(-0 47.916775 23.825441)">(b)</text>
   </g>
   <g id="legend_1">
    <g id="line2d_40">
     <path d="M 348.090937 23.078828 
L 358.090937 23.078828 
L 368.090937 23.078828 
" style="fill: none; stroke: #4b6f8a; stroke-width: 2.2; stroke-linecap: square"/>
     <g>
      <use xlink:href="#md2d1e00b23" x="358.090937" y="23.078828" style="fill: #4b6f8a; stroke: #4b6f8a"/>
     </g>
    </g>
    <g id="text_21">
     <text style="font-size: 10px; font-family: 'Arial', 'Helvetica', 'DejaVu Sans', sans-serif; text-anchor: start" x="376.090937" y="26.578828" transform="rotate(-0 376.090937 26.578828)">0% WER</text>
    </g>
    <g id="line2d_41">
     <path d="M 348.090937 37.224141 
L 358.090937 37.224141 
L 368.090937 37.224141 
" style="fill: none; stroke: #c47b45; stroke-width: 2.2; stroke-linecap: square"/>
     <g>
      <use xlink:href="#m1b1fdf1c3c" x="358.090937" y="37.224141" style="fill: #c47b45; stroke: #c47b45"/>
     </g>
    </g>
    <g id="text_22">
     <text style="font-size: 10px; font-family: 'Arial', 'Helvetica', 'DejaVu Sans', sans-serif; text-anchor: start" x="376.090937" y="40.724141" transform="rotate(-0 376.090937 40.724141)">5% WER</text>
    </g>
    <g id="line2d_42">
     <path d="M 348.090937 51.369453 
L 358.090937 51.369453 
L 368.090937 51.369453 
" style="fill: none; stroke: #4f7c6a; stroke-width: 2.2; stroke-linecap: square"/>
     <g>
      <use xlink:href="#m8c08d217eb" x="358.090937" y="51.369453" style="fill: #4f7c6a; stroke: #4f7c6a"/>
     </g>
    </g>
    <g id="text_23">
     <text style="font-size: 10px; font-family: 'Arial', 'Helvetica', 'DejaVu Sans', sans-serif; text-anchor: start" x="376.090937" y="54.869453" transform="rotate(-0 376.090937 54.869453)">10% WER</text>
    </g>
    <g id="line2d_43">
     <path d="M 348.090937 65.514766 
L 358.090937 65.514766 
L 368.090937 65.514766 
" style="fill: none; stroke: #8b6f47; stroke-width: 2.2; stroke-linecap: square"/>
     <g>
      <use xlink:href="#m488c8216fa" x="358.090937" y="65.514766" style="fill: #8b6f47; stroke: #8b6f47"/>
     </g>
    </g>
    <g id="text_24">
     <text style="font-size: 10px; font-family: 'Arial', 'Helvetica', 'DejaVu Sans', sans-serif; text-anchor: start" x="376.090937" y="69.014766" transform="rotate(-0 376.090937 69.014766)">15% WER</text>
    </g>
    <g id="line2d_44">
     <path d="M 348.090937 79.660078 
L 358.090937 79.660078 
L 368.090937 79.660078 
" style="fill: none; stroke: #d4a574; stroke-width: 2.2; stroke-linecap: square"/>
     <g>
      <use xlink:href="#m45ddc2ef7d" x="358.090937" y="79.660078" style="fill: #d4a574; stroke: #d4a574"/>
     </g>
    </g>
    <g id="text_25">
     <text style="font-size: 10px; font-family: 'Arial', 'Helvetica', 'DejaVu Sans', sans-serif; text-anchor: start" x="376.090937" y="83.160078" transform="rotate(-0 376.090937 83.160078)">20% WER</text>
    </g>
   </g>
  </g>
 </g>
 <defs>
  <clipPath id="pd692eabfd4">
   <rect x="40.094375" y="10.421016" width="391.12" height="233.44"/>
  </clipPath>
 </defs>
</svg>
