<?xml version="1.0" encoding="utf-8" standalone="no"?>
<!DOCTYPE svg PUBLIC "-//W3C//DTD SVG 1.1//EN"
  "http://www.w3.org/Graphics/SVG/1.1/DTD/svg11.dtd">
<svg xmlns:xlink="http://www.w3.org/1999/xlink" width="460.104375pt" height="311.890648pt" viewBox="0 0 460.104375 311.890648" xmlns="http://www.w3.org/2000/svg" version="1.1">
 <metadata>
  <rdf:RDF xmlns:dc="http://purl.org/dc/elements/1.1/" xmlns:cc="http://creativecommons.org/ns#" xmlns:rdf="http://www.w3.org/1999/02/22-rdf-syntax-ns#">
   <cc:Work>
    <dc:type rdf:resource="http://purl.org/dc/dcmitype/StillImage"/>
    <dc:date>2026-06-11T20:01:26.351033</dc:date>
    <dc:format>image/svg+xml</dc:format>
    <dc:creator>
     <cc:Agent>
      <dc:title>Matplotlib v3.10.9, https://matplotlib.org/</dc:title>
     </cc:Agent>
    </dc:creator>
   </cc:Work>
  </rdf:RDF>
 </metadata>
 <defs>
  <style type="text/css">*{stroke-linejoin: round; stroke-linecap: butt}</style>
 </defs>
 <g id="figure_1">
  <g id="patch_1">
   <path d="M 0 311.890648 
L 460.104375 311.890648 
L 460.104375 0 
L 0 0 
z
" style="fill: #ffffff"/>
  </g>
  <g id="axes_1">
   <g id="patch_2">
    <path d="M 20.584375 274.259866 
L 452.904375 274.259866 
L 452.904375 15.785626 
L 20.584375 15.785626 
z
" style="fill: #ffffff"/>
   </g>
   <g id="matplotlib.axis_1">
    <g id="xtick_1">
     <g id="line2d_1">
      <defs>
       <path id="meae14777de" d="M 0 0 
L 0 3.5 
" style="stroke: #000000; stroke-width: 0.8"/>
      </defs>
      <g>
       <use xlink:href="#meae14777de" x="440.895486" y="274.259866" style="stroke: #000000; stroke-width: 0.8"/>
      </g>
     </g>
     <g id="text_1">
      <text style="font-size: 9px; font-family: 'Arial', 'Helvetica', 'DejaVu Sans', sans-serif; text-anchor: middle" x="440.895486" y="287.701898" transform="rotate(-0 440.895486 287.701898)">500</text>
     </g>
    </g>
    <g id="xtick_2">
     <g id="line2d_2">
      <g>
       <use xlink:href="#meae14777de" x="380.851042" y="274.259866" style="stroke: #000000; stroke-width: 0.8"/>
      </g>
     </g>
     <g id="text_2">
      <text style="font-size: 9px; font-family: 'Arial', 'Helvetica', 'DejaVu Sans', sans-serif; text-anchor: middle" x="380.851042" y="287.701898" transform="rotate(-0 380.851042 287.701898)">1000</text>
     </g>
    </g>
    <g id="xtick_3">
     <g id="line2d_3">
      <g>
       <use xlink:href="#meae14777de" x="320.806597" y="274.259866" style="stroke: #000000; stroke-width: 0.8"/>
      </g>
     </g>
     <g id="text_3">
      <text style="font-size: 9px; font-family: 'Arial', 'Helvetica', 'DejaVu Sans', sans-serif; text-anchor: middle" x="320.806597" y="287.701898" transform="rotate(-0 320.806597 287.701898)">1500</text>
     </g>
    </g>
    <g id="xtick_4">
     <g id="line2d_4">
      <g>
       <use xlink:href="#meae14777de" x="260.762153" y="274.259866" style="stroke: #000000; stroke-width: 0.8"/>
      </g>
     </g>
     <g id="text_4">
      <text style="font-size: 9px; font-family: 'Arial', 'Helvetica', 'DejaVu Sans', sans-serif; text-anchor: middle" x="260.762153" y="287.701898" transform="rotate(-0 260.762153 287.701898)">2000</text>
     </g>
    </g>
    <g id="xtick_5">
     <g id="line2d_5">
      <g>
       <use xlink:href="#meae14777de" x="200.717708" y="274.259866" style="stroke: #000000; stroke-width: 0.8"/>
      </g>
     </g>
     <g id="text_5">
      <text style="font-size: 9px; font-family: 'Arial', 'Helvetica', 'DejaVu Sans', sans-serif; text-anchor: middle" x="200.717708" y="287.701898" transform="rotate(-0 200.717708 287.701898)">2500</text>
     </g>
    </g>
    <g id="xtick_6">
     <g id="line2d_6">
      <g>
       <use xlink:href="#meae14777de" x="140.673264" y="274.259866" style="stroke: #000000; stroke-width: 0.8"/>
      </g>
     </g>
     <g id="text_6">
      <text style="font-size: 9px; font-family: 'Arial', 'Helvetica', 'DejaVu Sans', sans-serif; text-anchor: middle" x="140.673264" y="287.701898" transform="rotate(-0 140.673264 287.701898)">3000</text>
     </g>
    </g>
    <g id="xtick_7">
     <g id="line2d_7">
      <g>
       <use xlink:href="#meae14777de" x="80.628819" y="274.259866" style="stroke: #000000; stroke-width: 0.8"/>
      </g>
     </g>
     <g id="text_7">
      <text style="font-size: 9px; font-family: 'Arial', 'Helvetica', 'DejaVu Sans', sans-serif; text-anchor: middle" x="80.628819" y="287.701898" transform="rotate(-0 80.628819 287.701898)">3500</text>
     </g>
    </g>
    <g id="xtick_8">
     <g id="line2d_8">
      <g>
       <use xlink:href="#meae14777de" x="20.584375" y="274.259866" style="stroke: #000000; stroke-width: 0.8"/>
      </g>
     </g>
     <g id="text_8">
      <text style="font-size: 9px; font-family: 'Arial', 'Helvetica', 'DejaVu Sans', sans-serif; text-anchor: middle" x="20.584375" y="287.701898" transform="rotate(-0 20.584375 287.701898)">4000</text>
     </g>
    </g>
    <g id="text_9">
     <!-- Wavenumber (cm$^{-1}$) -->
     <g transform="translate(190.244375 302.490648)">
      <text>
       <tspan x="0" y="-0.064063" style="font-size: 10px; font-family: 'Arial'">W</tspan>
       <tspan x="9.438477" y="-0.064063" style="font-size: 10px; font-family: 'Arial'">a</tspan>
       <tspan x="15" y="-0.064063" style="font-size: 10px; font-family: 'Arial'">v</tspan>
       <tspan x="20" y="-0.064063" style="font-size: 10px; font-family: 'Arial'">e</tspan>
       <tspan x="25.561523" y="-0.064063" style="font-size: 10px; font-family: 'Arial'">n</tspan>
       <tspan x="31.123047" y="-0.064063" style="font-size: 10px; font-family: 'Arial'">u</tspan>
       <tspan x="36.68457" y="-0.064063" style="font-size: 10px; font-family: 'Arial'">m</tspan>
       <tspan x="45.014648" y="-0.064063" style="font-size: 10px; font-family: 'Arial'">b</tspan>
       <tspan x="50.576172" y="-0.064063" style="font-size: 10px; font-family: 'Arial'">e</tspan>
       <tspan x="56.137695" y="-0.064063" style="font-size: 10px; font-family: 'Arial'">r</tspan>
       <tspan x="59.467773" y="-0.064063" style="font-size: 10px; font-family: 'Arial'"> </tspan>
       <tspan x="62.246094" y="-0.064063" style="font-size: 10px; font-family: 'Arial'">(</tspan>
       <tspan x="65.576172" y="-0.064063" style="font-size: 10px; font-family: 'Arial'">c</tspan>
       <tspan x="70.576172" y="-0.064063" style="font-size: 10px; font-family: 'Arial'">m</tspan>
       <tspan x="89.594238" y="-0.064063" style="font-size: 10px; font-family: 'Arial'">)</tspan>
       <tspan x="79.001953" y="-3.892188" style="font-size: 7px; font-family: 'DejaVu Sans'">−</tspan>
       <tspan x="84.867188" y="-3.892188" style="font-size: 7px; font-family: 'DejaVu Sans'">1</tspan>
      </text>
     </g>
    </g>
   </g>
   <g id="matplotlib.axis_2">
    <g id="text_10">
     <text style="font-size: 10px; font-family: 'Arial', 'Helvetica', 'DejaVu Sans', sans-serif; text-anchor: middle" x="14.479688" y="145.022746" transform="rotate(-90 14.479688 145.022746)">Absorbance (a.u.)</text>
    </g>
   </g>
   <g id="line2d_9">
    <path d="M 20.584375 262.511037 
L 128.123073 262.416078 
L 130.288282 262.174365 
L 131.731754 261.782786 
L 133.175226 261.024206 
L 133.896963 260.43209 
L 134.618699 259.645838 
L 135.340435 258.618816 
L 136.062171 257.299392 
L 136.783908 255.632578 
L 137.505644 253.562485 
L 138.22738 251.035618 
L 138.949116 248.004926 
L 140.392589 240.303931 
L 141.836061 230.388829 
L 143.279534 218.566591 
L 147.609951 180.232346 
L 149.053423 169.919306 
L 150.496896 161.950129 
L 151.218632 158.880917 
L 151.940368 156.411914 
L 152.662105 154.536526 
L 153.383841 153.262381 
L 154.105577 152.61923 
L 154.827313 152.661652 
L 155.549049 153.465402 
L 156.270786 155.117389 
L 156.992522 157.700574 
L 157.714258 161.276174 
L 158.435994 165.866274 
L 159.157731 171.440082 
L 160.601203 185.114588 
L 164.93162 231.267154 
L 166.375093 242.770647 
L 167.096829 247.301983 
L 167.818565 251.038092 
L 168.540302 254.038933 
L 169.262038 256.387758 
L 169.983774 258.179932 
L 170.70551 259.513308 
L 171.427246 260.480873 
L 172.148983 261.165827 
L 172.870719 261.638966 
L 174.314191 262.167836 
L 175.757664 262.387294 
L 178.644609 262.498651 
L 193.801069 262.511037 
L 289.791988 262.414361 
L 291.957196 262.145912 
L 293.400669 261.701092 
L 294.122405 261.336564 
L 294.844141 260.838084 
L 295.565878 260.170163 
L 296.287614 259.293485 
L 297.00935 258.16667 
L 297.731086 256.748936 
L 298.452822 255.003653 
L 299.174559 252.902665 
L 300.618031 247.592287 
L 302.061504 240.9421 
L 305.670185 222.836727 
L 306.391921 220.028482 
L 307.113657 217.825039 
L 307.835393 216.33699 
L 308.55713 215.640294 
L 309.278866 215.769216 
L 310.000602 216.712489 
L 310.722338 218.413027 
L 311.444074 220.771047 
L 312.887547 226.884948 
L 315.052756 236.838291 
L 315.774492 239.597627 
L 316.496228 241.782994 
L 317.217964 243.252692 
L 317.939701 243.902529 
L 318.661437 243.67665 
L 319.383173 242.577956 
L 320.104909 240.676351 
L 320.826645 238.112356 
L 323.71359 226.055226 
L 324.435327 223.994214 
L 325.157063 222.77611 
L 325.878799 222.488497 
L 326.600535 223.100742 
L 327.322271 224.463068 
L 330.209216 231.702441 
L 330.930953 232.496117 
L 331.652689 232.567832 
L 332.374425 231.995726 
L 334.539634 229.054152 
L 335.26137 228.810376 
L 335.983106 229.412737 
L 336.704842 230.974008 
L 337.426579 233.456355 
L 338.870051 240.400426 
L 341.03526 251.507439 
L 341.756996 254.451793 
L 342.478732 256.838433 
L 343.200468 258.674416 
L 343.922205 260.017817 
L 344.643941 260.954369 
L 345.365677 261.577256 
L 346.087413 261.972874 
L 347.530886 262.352377 
L 349.696095 262.491125 
L 354.748248 262.47191 
L 357.635193 262.299987 
L 359.078665 262.061394 
L 360.522138 261.606863 
L 361.96561 260.79496 
L 362.687347 260.19755 
L 363.409083 259.436905 
L 364.130819 258.484764 
L 364.852555 257.31336 
L 365.574292 255.897397 
L 367.017764 252.257378 
L 368.461236 247.50665 
L 369.904709 241.787749 
L 373.51339 226.432262 
L 374.235126 223.911137 
L 374.956862 221.806216 
L 375.678599 220.20223 
L 376.400335 219.165842 
L 377.122071 218.741051 
L 377.843807 218.946097 
L 378.565544 219.772161 
L 379.28728 221.183995 
L 380.009016 223.122412 
L 381.452489 228.248495 
L 383.617697 237.568984 
L 385.782906 246.567959 
L 387.226378 251.505142 
L 388.669851 255.339958 
L 390.113323 258.100204 
L 390.835059 259.12436 
L 391.556796 259.944469 
L 392.278532 260.585114 
L 393.000268 261.066197 
L 393.722004 261.398287 
L 394.443741 261.576831 
L 395.165477 261.575622 
L 395.887213 261.34113 
L 396.608949 260.790916 
L 397.330686 259.820681 
L 398.052422 258.3243 
L 398.774158 256.228159 
L 399.495894 253.534984 
L 402.382839 241.103913 
L 403.104575 239.46282 
L 403.826312 239.087819 
L 404.548048 240.042668 
L 405.269784 242.168493 
L 406.713256 248.489797 
L 408.156729 254.841351 
L 408.878465 257.309573 
L 409.600201 259.181568 
L 410.321938 260.499511 
L 411.043674 261.364 
L 411.76541 261.893689 
L 412.487146 262.197431 
L 413.930619 262.442992 
L 416.817564 262.509436 
L 452.904375 262.511037 
L 452.904375 262.511037 
" clip-path="url(#p32e08c5c91)" style="fill: none; stroke: #4b6f8a; stroke-width: 1.5; stroke-linecap: square"/>
   </g>
   <g id="line2d_10">
    <path d="M 20.584375 199.96865 
L 128.123073 199.87369 
L 130.288282 199.631978 
L 131.731754 199.240398 
L 133.175226 198.481818 
L 133.896963 197.889702 
L 134.618699 197.103451 
L 135.340435 196.076428 
L 136.062171 194.757004 
L 136.783908 193.09019 
L 137.505644 191.020098 
L 138.22738 188.493231 
L 138.949116 185.462538 
L 140.392589 177.761543 
L 141.836061 167.846441 
L 143.279534 156.024203 
L 147.609951 117.689958 
L 149.053423 107.376918 
L 150.496896 99.407741 
L 151.218632 96.33853 
L 151.940368 93.869527 
L 152.662105 91.994139 
L 153.383841 90.719994 
L 154.105577 90.076842 
L 154.827313 90.119265 
L 155.549049 90.923014 
L 156.270786 92.575001 
L 156.992522 95.158187 
L 157.714258 98.733786 
L 158.435994 103.323886 
L 159.157731 108.897695 
L 160.601203 122.5722 
L 164.93162 168.724767 
L 166.375093 180.22826 
L 167.096829 184.759595 
L 167.818565 188.495704 
L 168.540302 191.496545 
L 169.262038 193.845371 
L 169.983774 195.637544 
L 170.70551 196.970921 
L 171.427246 197.938485 
L 172.148983 198.623439 
L 172.870719 199.096578 
L 174.314191 199.625448 
L 175.757664 199.844907 
L 178.644609 199.956264 
L 193.801069 199.96865 
L 289.791988 199.871973 
L 291.957196 199.603525 
L 293.400669 199.158704 
L 294.122405 198.794176 
L 294.844141 198.295696 
L 295.565878 197.627776 
L 296.287614 196.751098 
L 297.00935 195.624282 
L 297.731086 194.206548 
L 298.452822 192.461265 
L 299.174559 190.360277 
L 300.618031 185.0499 
L 302.061504 178.399712 
L 305.670185 160.29434 
L 306.391921 157.486094 
L 307.113657 155.282652 
L 307.835393 153.794602 
L 308.55713 153.097906 
L 309.278866 153.226828 
L 310.000602 154.170102 
L 310.722338 155.870639 
L 311.444074 158.228659 
L 312.887547 164.34256 
L 315.052756 174.295903 
L 315.774492 177.055239 
L 316.496228 179.240606 
L 317.217964 180.710304 
L 317.939701 181.360142 
L 318.661437 181.134262 
L 319.383173 180.035569 
L 320.104909 178.133963 
L 320.826645 175.569969 
L 323.71359 163.512839 
L 324.435327 161.451826 
L 325.157063 160.233722 
L 325.878799 159.946109 
L 326.600535 160.558354 
L 327.322271 161.92068 
L 330.209216 169.160053 
L 330.930953 169.953729 
L 331.652689 170.025444 
L 332.374425 169.453338 
L 334.539634 166.511764 
L 335.26137 166.267989 
L 335.983106 166.87035 
L 336.704842 168.43162 
L 337.426579 170.913967 
L 338.870051 177.858038 
L 341.03526 188.965051 
L 341.756996 191.909405 
L 342.478732 194.296046 
L 343.200468 196.132028 
L 343.922205 197.47543 
L 344.643941 198.411981 
L 345.365677 199.034868 
L 346.087413 199.430486 
L 347.530886 199.80999 
L 349.696095 199.948737 
L 354.748248 199.929523 
L 357.635193 199.757599 
L 359.078665 199.519006 
L 360.522138 199.064475 
L 361.96561 198.252572 
L 362.687347 197.655163 
L 363.409083 196.894517 
L 364.130819 195.942376 
L 364.852555 194.770973 
L 365.574292 193.355009 
L 367.017764 189.71499 
L 368.461236 184.964262 
L 369.904709 179.245361 
L 373.51339 163.889451 
L 374.235126 161.36706 
L 374.956862 159.257672 
L 375.678599 157.639337 
L 376.400335 156.561055 
L 377.122071 156.025176 
L 377.843807 155.963013 
L 379.28728 156.472736 
L 380.009016 156.378029 
L 380.730752 155.527951 
L 381.452489 153.676599 
L 383.617697 145.425494 
L 384.339433 144.810395 
L 385.06117 146.841153 
L 385.782906 151.70985 
L 386.504642 158.849423 
L 388.669851 182.536748 
L 389.391587 188.158248 
L 390.113323 192.194532 
L 390.835059 194.900349 
L 391.556796 196.633877 
L 392.278532 197.722094 
L 393.000268 198.401539 
L 393.722004 198.813299 
L 394.443741 199.020882 
L 395.165477 199.02929 
L 395.887213 198.797695 
L 396.608949 198.248274 
L 397.330686 197.278237 
L 398.052422 195.781901 
L 398.774158 193.685769 
L 399.495894 190.992596 
L 402.382839 178.561525 
L 403.104575 176.920432 
L 403.826312 176.545431 
L 404.548048 177.500279 
L 405.269784 179.626094 
L 406.713256 185.947067 
L 408.156729 192.292405 
L 408.878465 194.74288 
L 409.600201 196.558612 
L 410.321938 197.718229 
L 411.043674 198.187984 
L 411.76541 197.847999 
L 412.487146 196.464665 
L 413.208883 193.761785 
L 413.930619 189.616053 
L 416.095827 174.166632 
L 416.817564 171.920635 
L 417.5393 172.693417 
L 418.261036 176.242388 
L 420.426245 191.967948 
L 421.147981 195.51281 
L 421.869717 197.748845 
L 422.591453 198.97945 
L 423.31319 199.574341 
L 424.034926 199.828053 
L 425.478398 199.955856 
L 434.860969 199.96865 
L 452.904375 199.96865 
L 452.904375 199.96865 
" clip-path="url(#p32e08c5c91)" style="fill: none; stroke: #c47b45; stroke-width: 1.5; stroke-linecap: square"/>
   </g>
   <g id="line2d_11">
    <path d="M 20.584375 137.426262 
L 128.123073 137.331303 
L 130.288282 137.08959 
L 131.731754 136.69801 
L 133.175226 135.93943 
L 133.896963 135.347314 
L 134.618699 134.561063 
L 135.340435 133.534041 
L 136.062171 132.214616 
L 136.783908 130.547803 
L 137.505644 128.47771 
L 138.22738 125.950843 
L 138.949116 122.92015 
L 140.392589 115.219156 
L 141.836061 105.304054 
L 143.279534 93.481816 
L 147.609951 55.147571 
L 149.053423 44.83453 
L 150.496896 36.865354 
L 151.218632 33.796142 
L 151.940368 31.327139 
L 152.662105 29.451751 
L 153.383841 28.177606 
L 154.105577 27.534455 
L 154.827313 27.576877 
L 155.549049 28.380626 
L 156.270786 30.032613 
L 156.992522 32.615799 
L 157.714258 36.191399 
L 158.435994 40.781499 
L 159.157731 46.355307 
L 160.601203 60.029813 
L 164.93162 106.182379 
L 166.375093 117.685872 
L 167.096829 122.217208 
L 167.818565 125.953316 
L 168.540302 128.954157 
L 169.262038 131.302983 
L 169.983774 133.095156 
L 170.70551 134.428533 
L 171.427246 135.396098 
L 172.148983 136.081052 
L 172.870719 136.554191 
L 174.314191 137.08306 
L 175.757664 137.302519 
L 178.644609 137.413876 
L 193.801069 137.426262 
L 289.791988 137.329586 
L 291.957196 137.061137 
L 293.400669 136.616316 
L 294.122405 136.251789 
L 294.844141 135.753308 
L 295.565878 135.085388 
L 296.287614 134.20871 
L 297.00935 133.081895 
L 297.731086 131.664161 
L 298.452822 129.918878 
L 299.174559 127.817889 
L 300.618031 122.507512 
L 302.061504 115.857324 
L 305.670185 97.751952 
L 306.391921 94.943707 
L 307.113657 92.740264 
L 307.835393 91.252215 
L 308.55713 90.555518 
L 309.278866 90.68444 
L 310.000602 91.627714 
L 310.722338 93.328252 
L 311.444074 95.686271 
L 312.887547 101.800173 
L 315.052756 111.753515 
L 315.774492 114.512852 
L 316.496228 116.698219 
L 317.217964 118.167916 
L 317.939701 118.817754 
L 318.661437 118.591875 
L 319.383173 117.493181 
L 320.104909 115.591576 
L 320.826645 113.027581 
L 323.71359 100.970451 
L 324.435327 98.909438 
L 325.157063 97.691335 
L 325.878799 97.403721 
L 326.600535 98.015966 
L 327.322271 99.378292 
L 330.209216 106.617665 
L 330.930953 107.411342 
L 331.652689 107.483057 
L 332.374425 106.910951 
L 334.539634 103.969377 
L 335.26137 103.725601 
L 335.983106 104.327962 
L 336.704842 105.889233 
L 337.426579 108.37158 
L 338.870051 115.31565 
L 341.03526 126.422663 
L 341.756996 129.367017 
L 342.478732 131.753658 
L 343.200468 133.58964 
L 343.922205 134.933042 
L 344.643941 135.869593 
L 345.365677 136.492481 
L 346.087413 136.888099 
L 347.530886 137.267602 
L 349.696095 137.406349 
L 354.748248 137.387135 
L 357.635193 137.215211 
L 359.078665 136.976618 
L 360.522138 136.522088 
L 361.96561 135.710185 
L 362.687347 135.112775 
L 363.409083 134.35213 
L 364.130819 133.399988 
L 364.852555 132.228585 
L 365.574292 130.812622 
L 367.017764 127.172602 
L 368.461236 122.421875 
L 369.904709 116.702973 
L 373.51339 101.347218 
L 374.235126 98.825287 
L 374.956862 96.717523 
L 375.678599 95.104406 
L 376.400335 94.041358 
L 377.122071 93.545875 
L 377.843807 93.580879 
L 378.565544 94.036507 
L 380.009016 95.36364 
L 380.730752 95.690316 
L 381.452489 95.508578 
L 382.174225 94.844384 
L 382.895961 94.024948 
L 383.617697 93.647143 
L 384.339433 94.398943 
L 385.06117 96.789739 
L 385.782906 100.918634 
L 387.226378 112.538828 
L 388.669851 123.725569 
L 389.391587 127.850712 
L 390.113323 130.875156 
L 390.835059 132.969461 
L 391.556796 134.370836 
L 392.278532 135.2963 
L 393.000268 135.903614 
L 393.722004 136.286402 
L 394.443741 136.483426 
L 395.165477 136.488337 
L 395.887213 136.255688 
L 396.608949 135.705979 
L 397.330686 134.735869 
L 398.052422 133.239517 
L 398.774158 131.143382 
L 399.495894 128.450209 
L 402.382839 116.019138 
L 403.104575 114.378045 
L 403.826312 114.003043 
L 404.548048 114.957891 
L 405.269784 117.08371 
L 406.713256 123.404793 
L 408.156729 129.752203 
L 408.878465 132.208594 
L 409.600201 134.043081 
L 410.321938 135.255473 
L 411.043674 135.856806 
L 411.76541 135.806712 
L 412.487146 134.985737 
L 413.208883 133.238231 
L 413.930619 130.501849 
L 416.095827 120.22343 
L 416.817564 118.727052 
L 417.5393 119.242592 
L 418.261036 121.608696 
L 420.426245 132.092459 
L 421.147981 134.455702 
L 421.869717 135.946392 
L 422.591453 136.766796 
L 423.31319 137.163389 
L 424.756662 137.396367 
L 429.08708 137.426259 
L 452.904375 137.426262 
L 452.904375 137.426262 
" clip-path="url(#p32e08c5c91)" style="fill: none; stroke: #4f7c6a; stroke-width: 1.5; stroke-linecap: square"/>
   </g>
   <g id="line2d_12">
    <path d="M 150.280375 274.259866 
L 150.280375 15.785626 
" clip-path="url(#p32e08c5c91)" style="fill: none; stroke-dasharray: 0.5,0.825; stroke-dashoffset: 0; stroke: #808080; stroke-opacity: 0.5; stroke-width: 0.5"/>
   </g>
   <g id="line2d_13">
    <path d="M 308.797708 274.259866 
L 308.797708 15.785626 
" clip-path="url(#p32e08c5c91)" style="fill: none; stroke-dasharray: 0.5,0.825; stroke-dashoffset: 0; stroke: #808080; stroke-opacity: 0.5; stroke-width: 0.5"/>
   </g>
   <g id="line2d_14">
    <path d="M 384.934064 274.259866 
L 384.934064 15.785626 
" clip-path="url(#p32e08c5c91)" style="fill: none; stroke-dasharray: 0.5,0.825; stroke-dashoffset: 0; stroke: #808080; stroke-opacity: 0.5; stroke-width: 0.5"/>
   </g>
   <g id="line2d_15">
    <path d="M 416.997797 274.259866 
L 416.997797 15.785626 
" clip-path="url(#p32e08c5c91)" style="fill: none; stroke-dasharray: 0.5,0.825; stroke-dashoffset: 0; stroke: #808080; stroke-opacity: 0.5; stroke-width: 0.5"/>
   </g>
   <g id="line2d_16">
    <path d="M 391.058597 274.259866 
L 391.058597 15.785626 
" clip-path="url(#p32e08c5c91)" style="fill: none; stroke-dasharray: 0.5,0.825; stroke-dashoffset: 0; stroke: #808080; stroke-opacity: 0.5; stroke-width: 0.5"/>
   </g>
   <g id="patch_3">
    <path d="M 20.584375 274.259866 
L 20.584375 15.785626 
" style="fill: none; stroke: #000000; stroke-width: 1.4; stroke-linejoin: miter; stroke-linecap: square"/>
   </g>
   <g id="patch_4">
    <path d="M 20.584375 274.259866 
L 452.904375 274.259866 
" style="fill: none; stroke: #000000; stroke-width: 1.4; stroke-linejoin: miter; stroke-linecap: square"/>
   </g>
   <g id="text_11">
    <text style="font-size: 7px; font-family: 'Arial', 'Helvetica', 'DejaVu Sans', sans-serif; text-anchor: middle; fill: #808080" x="150.280375" y="144.801432" transform="rotate(-0 150.280375 144.801432)">-CH2-</text>
   </g>
   <g id="text_12">
    <text style="font-size: 7px; font-family: 'Arial', 'Helvetica', 'DejaVu Sans', sans-serif; text-anchor: middle; fill: #808080" x="308.797708" y="144.801432" transform="rotate(-0 308.797708 144.801432)">C=C</text>
   </g>
   <g id="text_13">
    <text style="font-size: 7px; font-family: 'Arial', 'Helvetica', 'DejaVu Sans', sans-serif; text-anchor: middle; fill: #808080" x="384.934064" y="82.259044" transform="rotate(-0 384.934064 82.259044)">SBR</text>
   </g>
   <g id="text_14">
    <text style="font-size: 7px; font-family: 'Arial', 'Helvetica', 'DejaVu Sans', sans-serif; text-anchor: middle; fill: #808080" x="416.997797" y="82.259044" transform="rotate(-0 416.997797 82.259044)">SBR</text>
   </g>
   <g id="text_15">
    <text style="font-size: 7px; font-family: 'Arial', 'Helvetica', 'DejaVu Sans', sans-serif; fill: #808080" transform="translate(378.411019 12.210469)">Epoxide</text>
    <text style="font-size: 7px; font-family: 'Arial', 'Helvetica', 'DejaVu Sans', sans-serif; fill: #808080" transform="translate(372.580785 19.716656)">(consumed)</text>
   </g>
   <g id="text_16">
    <text style="font-weight: 700; font-size: 12px; font-family: 'Arial', 'Helvetica', 'DejaVu Sans', sans-serif; text-anchor: start" x="29.230775" y="29.690735" transform="rotate(-0 29.230775 29.690735)">(a)</text>
   </g>
   <g id="legend_1">
    <g id="line2d_17">
     <path d="M 27.784375 26.009376 
L 35.784375 26.009376 
L 43.784375 26.009376 
" style="fill: none; stroke: #4b6f8a; stroke-width: 1.5; stroke-linecap: square"/>
    </g>
    <g id="text_17">
     <text style="font-size: 8px; font-family: 'Arial', 'Helvetica', 'DejaVu Sans', sans-serif; text-anchor: start" x="50.184375" y="28.809376" transform="rotate(-0 50.184375 28.809376)">EA-1 (base)</text>
    </g>
    <g id="line2d_18">
     <path d="M 27.784375 37.516876 
L 35.784375 37.516876 
L 43.784375 37.516876 
" style="fill: none; stroke: #c47b45; stroke-width: 1.5; stroke-linecap: square"/>
    </g>
    <g id="text_18">
     <text style="font-size: 8px; font-family: 'Arial', 'Helvetica', 'DejaVu Sans', sans-serif; text-anchor: start" x="50.184375" y="40.316876" transform="rotate(-0 50.184375 40.316876)">EA-2 (3% SBR)</text>
    </g>
    <g id="line2d_19">
     <path d="M 27.784375 49.024376 
L 35.784375 49.024376 
L 43.784375 49.024376 
" style="fill: none; stroke: #4f7c6a; stroke-width: 1.5; stroke-linecap: square"/>
    </g>
    <g id="text_19">
     <text style="font-size: 8px; font-family: 'Arial', 'Helvetica', 'DejaVu Sans', sans-serif; text-anchor: start" x="50.184375" y="51.824376" transform="rotate(-0 50.184375 51.824376)">EA-5 (6% WER+3% SBR)</text>
    </g>
   </g>
  </g>
 </g>
 <defs>
  <clipPath id="p32e08c5c91">
   <rect x="20.584375" y="15.785626" width="432.32" height="258.474241"/>
  </clipPath>
 </defs>
</svg>
