<?xml version="1.0" encoding="utf-8" standalone="no"?>
<!DOCTYPE svg PUBLIC "-//W3C//DTD SVG 1.1//EN"
  "http://www.w3.org/Graphics/SVG/1.1/DTD/svg11.dtd">
<svg xmlns:xlink="http://www.w3.org/1999/xlink" width="438.443906pt" height="294.076172pt" viewBox="0 0 438.443906 294.076172" xmlns="http://www.w3.org/2000/svg" version="1.1">
 <metadata>
  <rdf:RDF xmlns:dc="http://purl.org/dc/elements/1.1/" xmlns:cc="http://creativecommons.org/ns#" xmlns:rdf="http://www.w3.org/1999/02/22-rdf-syntax-ns#">
   <cc:Work>
    <dc:type rdf:resource="http://purl.org/dc/dcmitype/StillImage"/>
    <dc:date>2026-06-11T20:01:24.632864</dc:date>
    <dc:format>image/svg+xml</dc:format>
    <dc:creator>
     <cc:Agent>
      <dc:title>Matplotlib v3.10.9, https://matplotlib.org/</dc:title>
     </cc:Agent>
    </dc:creator>
   </cc:Work>
  </rdf:RDF>
 </metadata>
 <defs>
  <style type="text/css">*{stroke-linejoin: round; stroke-linecap: butt}</style>
 </defs>
 <g id="figure_1">
  <g id="patch_1">
   <path d="M 0 294.076172 
L 438.443906 294.076172 
L 438.443906 0 
L 0 0 
z
" style="fill: #ffffff"/>
  </g>
  <g id="axes_1">
   <g id="patch_2">
    <path d="M 37.594062 258.261016 
L 426.239063 258.261016 
L 426.239063 10.421016 
L 37.594062 10.421016 
z
" style="fill: #ffffff"/>
   </g>
   <g id="matplotlib.axis_1">
    <g id="xtick_1">
     <g id="line2d_1">
      <path d="M 61.884375 258.261016 
L 61.884375 10.421016 
" clip-path="url(#p1aa9022352)" style="fill: none; stroke: #e8e2d6; stroke-opacity: 0.8; stroke-width: 0.8; stroke-linecap: square"/>
     </g>
     <g id="line2d_2">
      <defs>
       <path id="mb2275fe246" d="M 0 0 
L 0 3.5 
" style="stroke: #000000; stroke-width: 0.8"/>
      </defs>
      <g>
       <use xlink:href="#mb2275fe246" x="61.884375" y="258.261016" style="stroke: #000000; stroke-width: 0.8"/>
      </g>
     </g>
     <g id="text_1">
      <text style="font-size: 9px; font-family: 'Arial', 'Helvetica', 'DejaVu Sans', sans-serif; text-anchor: middle" x="61.884375" y="271.703047" transform="rotate(-0 61.884375 271.703047)">50</text>
     </g>
    </g>
    <g id="xtick_2">
     <g id="line2d_3">
      <path d="M 122.610156 258.261016 
L 122.610156 10.421016 
" clip-path="url(#p1aa9022352)" style="fill: none; stroke: #e8e2d6; stroke-opacity: 0.8; stroke-width: 0.8; stroke-linecap: square"/>
     </g>
     <g id="line2d_4">
      <g>
       <use xlink:href="#mb2275fe246" x="122.610156" y="258.261016" style="stroke: #000000; stroke-width: 0.8"/>
      </g>
     </g>
     <g id="text_2">
      <text style="font-size: 9px; font-family: 'Arial', 'Helvetica', 'DejaVu Sans', sans-serif; text-anchor: middle" x="122.610156" y="271.703047" transform="rotate(-0 122.610156 271.703047)">55</text>
     </g>
    </g>
    <g id="xtick_3">
     <g id="line2d_5">
      <path d="M 183.335937 258.261016 
L 183.335937 10.421016 
" clip-path="url(#p1aa9022352)" style="fill: none; stroke: #e8e2d6; stroke-opacity: 0.8; stroke-width: 0.8; stroke-linecap: square"/>
     </g>
     <g id="line2d_6">
      <g>
       <use xlink:href="#mb2275fe246" x="183.335937" y="258.261016" style="stroke: #000000; stroke-width: 0.8"/>
      </g>
     </g>
     <g id="text_3">
      <text style="font-size: 9px; font-family: 'Arial', 'Helvetica', 'DejaVu Sans', sans-serif; text-anchor: middle" x="183.335937" y="271.703047" transform="rotate(-0 183.335937 271.703047)">60</text>
     </g>
    </g>
    <g id="xtick_4">
     <g id="line2d_7">
      <path d="M 244.061719 258.261016 
L 244.061719 10.421016 
" clip-path="url(#p1aa9022352)" style="fill: none; stroke: #e8e2d6; stroke-opacity: 0.8; stroke-width: 0.8; stroke-linecap: square"/>
     </g>
     <g id="line2d_8">
      <g>
       <use xlink:href="#mb2275fe246" x="244.061719" y="258.261016" style="stroke: #000000; stroke-width: 0.8"/>
      </g>
     </g>
     <g id="text_4">
      <text style="font-size: 9px; font-family: 'Arial', 'Helvetica', 'DejaVu Sans', sans-serif; text-anchor: middle" x="244.061719" y="271.703047" transform="rotate(-0 244.061719 271.703047)">65</text>
     </g>
    </g>
    <g id="xtick_5">
     <g id="line2d_9">
      <path d="M 304.7875 258.261016 
L 304.7875 10.421016 
" clip-path="url(#p1aa9022352)" style="fill: none; stroke: #e8e2d6; stroke-opacity: 0.8; stroke-width: 0.8; stroke-linecap: square"/>
     </g>
     <g id="line2d_10">
      <g>
       <use xlink:href="#mb2275fe246" x="304.7875" y="258.261016" style="stroke: #000000; stroke-width: 0.8"/>
      </g>
     </g>
     <g id="text_5">
      <text style="font-size: 9px; font-family: 'Arial', 'Helvetica', 'DejaVu Sans', sans-serif; text-anchor: middle" x="304.7875" y="271.703047" transform="rotate(-0 304.7875 271.703047)">70</text>
     </g>
    </g>
    <g id="xtick_6">
     <g id="line2d_11">
      <path d="M 365.513281 258.261016 
L 365.513281 10.421016 
" clip-path="url(#p1aa9022352)" style="fill: none; stroke: #e8e2d6; stroke-opacity: 0.8; stroke-width: 0.8; stroke-linecap: square"/>
     </g>
     <g id="line2d_12">
      <g>
       <use xlink:href="#mb2275fe246" x="365.513281" y="258.261016" style="stroke: #000000; stroke-width: 0.8"/>
      </g>
     </g>
     <g id="text_6">
      <text style="font-size: 9px; font-family: 'Arial', 'Helvetica', 'DejaVu Sans', sans-serif; text-anchor: middle" x="365.513281" y="271.703047" transform="rotate(-0 365.513281 271.703047)">75</text>
     </g>
    </g>
    <g id="xtick_7">
     <g id="line2d_13">
      <path d="M 426.239062 258.261016 
L 426.239062 10.421016 
" clip-path="url(#p1aa9022352)" style="fill: none; stroke: #e8e2d6; stroke-opacity: 0.8; stroke-width: 0.8; stroke-linecap: square"/>
     </g>
     <g id="line2d_14">
      <g>
       <use xlink:href="#mb2275fe246" x="426.239062" y="258.261016" style="stroke: #000000; stroke-width: 0.8"/>
      </g>
     </g>
     <g id="text_7">
      <text style="font-size: 9px; font-family: 'Arial', 'Helvetica', 'DejaVu Sans', sans-serif; text-anchor: middle" x="426.239062" y="271.703047" transform="rotate(-0 426.239062 271.703047)">80</text>
     </g>
    </g>
    <g id="text_8">
     <text style="font-size: 10px; font-family: 'Arial', 'Helvetica', 'DejaVu Sans', sans-serif; text-anchor: middle" x="231.916563" y="284.771484" transform="rotate(-0 231.916563 284.771484)">Test temperature (°C)</text>
    </g>
   </g>
   <g id="matplotlib.axis_2">
    <g id="ytick_1">
     <g id="line2d_15">
      <path d="M 37.594062 258.261016 
L 426.239063 258.261016 
" clip-path="url(#p1aa9022352)" style="fill: none; stroke: #e8e2d6; stroke-opacity: 0.8; stroke-width: 0.8; stroke-linecap: square"/>
     </g>
     <g id="line2d_16">
      <defs>
       <path id="ma6d2529d9a" d="M 0 0 
L -3.5 0 
" style="stroke: #000000; stroke-width: 0.8"/>
      </defs>
      <g>
       <use xlink:href="#ma6d2529d9a" x="37.594062" y="258.261016" style="stroke: #000000; stroke-width: 0.8"/>
      </g>
     </g>
     <g id="text_9">
      <text style="font-size: 9px; font-family: 'Arial', 'Helvetica', 'DejaVu Sans', sans-serif; text-anchor: end" x="30.594062" y="261.482031" transform="rotate(-0 30.594062 261.482031)">0</text>
     </g>
    </g>
    <g id="ytick_2">
     <g id="line2d_17">
      <path d="M 37.594062 230.723238 
L 426.239063 230.723238 
" clip-path="url(#p1aa9022352)" style="fill: none; stroke: #e8e2d6; stroke-opacity: 0.8; stroke-width: 0.8; stroke-linecap: square"/>
     </g>
     <g id="line2d_18">
      <g>
       <use xlink:href="#ma6d2529d9a" x="37.594062" y="230.723238" style="stroke: #000000; stroke-width: 0.8"/>
      </g>
     </g>
     <g id="text_10">
      <text style="font-size: 9px; font-family: 'Arial', 'Helvetica', 'DejaVu Sans', sans-serif; text-anchor: end" x="30.594062" y="233.944253" transform="rotate(-0 30.594062 233.944253)">10</text>
     </g>
    </g>
    <g id="ytick_3">
     <g id="line2d_19">
      <path d="M 37.594062 203.18546 
L 426.239063 203.18546 
" clip-path="url(#p1aa9022352)" style="fill: none; stroke: #e8e2d6; stroke-opacity: 0.8; stroke-width: 0.8; stroke-linecap: square"/>
     </g>
     <g id="line2d_20">
      <g>
       <use xlink:href="#ma6d2529d9a" x="37.594062" y="203.18546" style="stroke: #000000; stroke-width: 0.8"/>
      </g>
     </g>
     <g id="text_11">
      <text style="font-size: 9px; font-family: 'Arial', 'Helvetica', 'DejaVu Sans', sans-serif; text-anchor: end" x="30.594062" y="206.406476" transform="rotate(-0 30.594062 206.406476)">20</text>
     </g>
    </g>
    <g id="ytick_4">
     <g id="line2d_21">
      <path d="M 37.594062 175.647682 
L 426.239063 175.647682 
" clip-path="url(#p1aa9022352)" style="fill: none; stroke: #e8e2d6; stroke-opacity: 0.8; stroke-width: 0.8; stroke-linecap: square"/>
     </g>
     <g id="line2d_22">
      <g>
       <use xlink:href="#ma6d2529d9a" x="37.594062" y="175.647682" style="stroke: #000000; stroke-width: 0.8"/>
      </g>
     </g>
     <g id="text_12">
      <text style="font-size: 9px; font-family: 'Arial', 'Helvetica', 'DejaVu Sans', sans-serif; text-anchor: end" x="30.594062" y="178.868698" transform="rotate(-0 30.594062 178.868698)">30</text>
     </g>
    </g>
    <g id="ytick_5">
     <g id="line2d_23">
      <path d="M 37.594062 148.109905 
L 426.239063 148.109905 
" clip-path="url(#p1aa9022352)" style="fill: none; stroke: #e8e2d6; stroke-opacity: 0.8; stroke-width: 0.8; stroke-linecap: square"/>
     </g>
     <g id="line2d_24">
      <g>
       <use xlink:href="#ma6d2529d9a" x="37.594062" y="148.109905" style="stroke: #000000; stroke-width: 0.8"/>
      </g>
     </g>
     <g id="text_13">
      <text style="font-size: 9px; font-family: 'Arial', 'Helvetica', 'DejaVu Sans', sans-serif; text-anchor: end" x="30.594062" y="151.33092" transform="rotate(-0 30.594062 151.33092)">40</text>
     </g>
    </g>
    <g id="ytick_6">
     <g id="line2d_25">
      <path d="M 37.594062 120.572127 
L 426.239063 120.572127 
" clip-path="url(#p1aa9022352)" style="fill: none; stroke: #e8e2d6; stroke-opacity: 0.8; stroke-width: 0.8; stroke-linecap: square"/>
     </g>
     <g id="line2d_26">
      <g>
       <use xlink:href="#ma6d2529d9a" x="37.594062" y="120.572127" style="stroke: #000000; stroke-width: 0.8"/>
      </g>
     </g>
     <g id="text_14">
      <text style="font-size: 9px; font-family: 'Arial', 'Helvetica', 'DejaVu Sans', sans-serif; text-anchor: end" x="30.594062" y="123.793142" transform="rotate(-0 30.594062 123.793142)">50</text>
     </g>
    </g>
    <g id="ytick_7">
     <g id="line2d_27">
      <path d="M 37.594062 93.034349 
L 426.239063 93.034349 
" clip-path="url(#p1aa9022352)" style="fill: none; stroke: #e8e2d6; stroke-opacity: 0.8; stroke-width: 0.8; stroke-linecap: square"/>
     </g>
     <g id="line2d_28">
      <g>
       <use xlink:href="#ma6d2529d9a" x="37.594062" y="93.034349" style="stroke: #000000; stroke-width: 0.8"/>
      </g>
     </g>
     <g id="text_15">
      <text style="font-size: 9px; font-family: 'Arial', 'Helvetica', 'DejaVu Sans', sans-serif; text-anchor: end" x="30.594062" y="96.255365" transform="rotate(-0 30.594062 96.255365)">60</text>
     </g>
    </g>
    <g id="ytick_8">
     <g id="line2d_29">
      <path d="M 37.594062 65.496571 
L 426.239063 65.496571 
" clip-path="url(#p1aa9022352)" style="fill: none; stroke: #e8e2d6; stroke-opacity: 0.8; stroke-width: 0.8; stroke-linecap: square"/>
     </g>
     <g id="line2d_30">
      <g>
       <use xlink:href="#ma6d2529d9a" x="37.594062" y="65.496571" style="stroke: #000000; stroke-width: 0.8"/>
      </g>
     </g>
     <g id="text_16">
      <text style="font-size: 9px; font-family: 'Arial', 'Helvetica', 'DejaVu Sans', sans-serif; text-anchor: end" x="30.594062" y="68.717587" transform="rotate(-0 30.594062 68.717587)">70</text>
     </g>
    </g>
    <g id="ytick_9">
     <g id="line2d_31">
      <path d="M 37.594062 37.958793 
L 426.239063 37.958793 
" clip-path="url(#p1aa9022352)" style="fill: none; stroke: #e8e2d6; stroke-opacity: 0.8; stroke-width: 0.8; stroke-linecap: square"/>
     </g>
     <g id="line2d_32">
      <g>
       <use xlink:href="#ma6d2529d9a" x="37.594062" y="37.958793" style="stroke: #000000; stroke-width: 0.8"/>
      </g>
     </g>
     <g id="text_17">
      <text style="font-size: 9px; font-family: 'Arial', 'Helvetica', 'DejaVu Sans', sans-serif; text-anchor: end" x="30.594062" y="41.179809" transform="rotate(-0 30.594062 41.179809)">80</text>
     </g>
    </g>
    <g id="ytick_10">
     <g id="line2d_33">
      <path d="M 37.594062 10.421016 
L 426.239063 10.421016 
" clip-path="url(#p1aa9022352)" style="fill: none; stroke: #e8e2d6; stroke-opacity: 0.8; stroke-width: 0.8; stroke-linecap: square"/>
     </g>
     <g id="line2d_34">
      <g>
       <use xlink:href="#ma6d2529d9a" x="37.594062" y="10.421016" style="stroke: #000000; stroke-width: 0.8"/>
      </g>
     </g>
     <g id="text_18">
      <text style="font-size: 9px; font-family: 'Arial', 'Helvetica', 'DejaVu Sans', sans-serif; text-anchor: end" x="30.594062" y="13.642031" transform="rotate(-0 30.594062 13.642031)">90</text>
     </g>
    </g>
    <g id="text_19">
     <text style="font-size: 10px; font-family: 'Arial', 'Helvetica', 'DejaVu Sans', sans-serif; text-anchor: middle" x="14.479688" y="134.341016" transform="rotate(-90 14.479688 134.341016)">G* (kPa)</text>
    </g>
   </g>
   <g id="line2d_35">
    <path d="M 86.174687 150.863682 
L 159.045625 203.18546 
L 231.916562 227.96946 
L 304.7875 244.492127 
L 377.658437 252.75346 
" clip-path="url(#p1aa9022352)" style="fill: none; stroke: #4b6f8a; stroke-width: 2.2; stroke-linecap: square"/>
    <defs>
     <path id="m67ddbaea64" d="M 0 3 
C 0.795609 3 1.55874 2.683901 2.12132 2.12132 
C 2.683901 1.55874 3 0.795609 3 0 
C 3 -0.795609 2.683901 -1.55874 2.12132 -2.12132 
C 1.55874 -2.683901 0.795609 -3 0 -3 
C -0.795609 -3 -1.55874 -2.683901 -2.12132 -2.12132 
C -2.683901 -1.55874 -3 -0.795609 -3 0 
C -3 0.795609 -2.683901 1.55874 -2.12132 2.12132 
C -1.55874 2.683901 -0.795609 3 0 3 
z
" style="stroke: #4b6f8a"/>
    </defs>
    <g clip-path="url(#p1aa9022352)">
     <use xlink:href="#m67ddbaea64" x="86.174687" y="150.863682" style="fill: #4b6f8a; stroke: #4b6f8a"/>
     <use xlink:href="#m67ddbaea64" x="159.045625" y="203.18546" style="fill: #4b6f8a; stroke: #4b6f8a"/>
     <use xlink:href="#m67ddbaea64" x="231.916562" y="227.96946" style="fill: #4b6f8a; stroke: #4b6f8a"/>
     <use xlink:href="#m67ddbaea64" x="304.7875" y="244.492127" style="fill: #4b6f8a; stroke: #4b6f8a"/>
     <use xlink:href="#m67ddbaea64" x="377.658437" y="252.75346" style="fill: #4b6f8a; stroke: #4b6f8a"/>
    </g>
   </g>
   <g id="line2d_36">
    <path d="M 86.174687 128.83346 
L 159.045625 192.170349 
L 231.916562 219.708127 
L 304.7875 238.984571 
L 377.658437 248.622793 
" clip-path="url(#p1aa9022352)" style="fill: none; stroke: #c47b45; stroke-width: 2.2; stroke-linecap: square"/>
    <defs>
     <path id="m089222669b" d="M 0 3 
C 0.795609 3 1.55874 2.683901 2.12132 2.12132 
C 2.683901 1.55874 3 0.795609 3 0 
C 3 -0.795609 2.683901 -1.55874 2.12132 -2.12132 
C 1.55874 -2.683901 0.795609 -3 0 -3 
C -0.795609 -3 -1.55874 -2.683901 -2.12132 -2.12132 
C -2.683901 -1.55874 -3 -0.795609 -3 0 
C -3 0.795609 -2.683901 1.55874 -2.12132 2.12132 
C -1.55874 2.683901 -0.795609 3 0 3 
z
" style="stroke: #c47b45"/>
    </defs>
    <g clip-path="url(#p1aa9022352)">
     <use xlink:href="#m089222669b" x="86.174687" y="128.83346" style="fill: #c47b45; stroke: #c47b45"/>
     <use xlink:href="#m089222669b" x="159.045625" y="192.170349" style="fill: #c47b45; stroke: #c47b45"/>
     <use xlink:href="#m089222669b" x="231.916562" y="219.708127" style="fill: #c47b45; stroke: #c47b45"/>
     <use xlink:href="#m089222669b" x="304.7875" y="238.984571" style="fill: #c47b45; stroke: #c47b45"/>
     <use xlink:href="#m089222669b" x="377.658437" y="248.622793" style="fill: #c47b45; stroke: #c47b45"/>
    </g>
   </g>
   <g id="line2d_37">
    <path d="M 86.174687 115.064571 
L 159.045625 183.909016 
L 231.916562 211.446793 
L 304.7875 233.477016 
L 377.658437 244.492127 
" clip-path="url(#p1aa9022352)" style="fill: none; stroke: #4f7c6a; stroke-width: 2.2; stroke-linecap: square"/>
    <defs>
     <path id="mf987889794" d="M 0 3 
C 0.795609 3 1.55874 2.683901 2.12132 2.12132 
C 2.683901 1.55874 3 0.795609 3 0 
C 3 -0.795609 2.683901 -1.55874 2.12132 -2.12132 
C 1.55874 -2.683901 0.795609 -3 0 -3 
C -0.795609 -3 -1.55874 -2.683901 -2.12132 -2.12132 
C -2.683901 -1.55874 -3 -0.795609 -3 0 
C -3 0.795609 -2.683901 1.55874 -2.12132 2.12132 
C -1.55874 2.683901 -0.795609 3 0 3 
z
" style="stroke: #4f7c6a"/>
    </defs>
    <g clip-path="url(#p1aa9022352)">
     <use xlink:href="#mf987889794" x="86.174687" y="115.064571" style="fill: #4f7c6a; stroke: #4f7c6a"/>
     <use xlink:href="#mf987889794" x="159.045625" y="183.909016" style="fill: #4f7c6a; stroke: #4f7c6a"/>
     <use xlink:href="#mf987889794" x="231.916562" y="211.446793" style="fill: #4f7c6a; stroke: #4f7c6a"/>
     <use xlink:href="#mf987889794" x="304.7875" y="233.477016" style="fill: #4f7c6a; stroke: #4f7c6a"/>
     <use xlink:href="#mf987889794" x="377.658437" y="244.492127" style="fill: #4f7c6a; stroke: #4f7c6a"/>
    </g>
   </g>
   <g id="line2d_38">
    <path d="M 86.174687 98.541905 
L 159.045625 172.893905 
L 231.916562 203.18546 
L 304.7875 227.96946 
L 377.658437 241.738349 
" clip-path="url(#p1aa9022352)" style="fill: none; stroke: #8b6f47; stroke-width: 2.2; stroke-linecap: square"/>
    <defs>
     <path id="md99bb057b4" d="M 0 3 
C 0.795609 3 1.55874 2.683901 2.12132 2.12132 
C 2.683901 1.55874 3 0.795609 3 0 
C 3 -0.795609 2.683901 -1.55874 2.12132 -2.12132 
C 1.55874 -2.683901 0.795609 -3 0 -3 
C -0.795609 -3 -1.55874 -2.683901 -2.12132 -2.12132 
C -2.683901 -1.55874 -3 -0.795609 -3 0 
C -3 0.795609 -2.683901 1.55874 -2.12132 2.12132 
C -1.55874 2.683901 -0.795609 3 0 3 
z
" style="stroke: #8b6f47"/>
    </defs>
    <g clip-path="url(#p1aa9022352)">
     <use xlink:href="#md99bb057b4" x="86.174687" y="98.541905" style="fill: #8b6f47; stroke: #8b6f47"/>
     <use xlink:href="#md99bb057b4" x="159.045625" y="172.893905" style="fill: #8b6f47; stroke: #8b6f47"/>
     <use xlink:href="#md99bb057b4" x="231.916562" y="203.18546" style="fill: #8b6f47; stroke: #8b6f47"/>
     <use xlink:href="#md99bb057b4" x="304.7875" y="227.96946" style="fill: #8b6f47; stroke: #8b6f47"/>
     <use xlink:href="#md99bb057b4" x="377.658437" y="241.738349" style="fill: #8b6f47; stroke: #8b6f47"/>
    </g>
   </g>
   <g id="line2d_39">
    <path d="M 86.174687 68.250349 
L 159.045625 150.863682 
L 231.916562 192.170349 
L 304.7875 222.461905 
L 377.658437 237.607682 
" clip-path="url(#p1aa9022352)" style="fill: none; stroke: #d4a574; stroke-width: 2.2; stroke-linecap: square"/>
    <defs>
     <path id="m3cee66a9e2" d="M 0 3 
C 0.795609 3 1.55874 2.683901 2.12132 2.12132 
C 2.683901 1.55874 3 0.795609 3 0 
C 3 -0.795609 2.683901 -1.55874 2.12132 -2.12132 
C 1.55874 -2.683901 0.795609 -3 0 -3 
C -0.795609 -3 -1.55874 -2.683901 -2.12132 -2.12132 
C -2.683901 -1.55874 -3 -0.795609 -3 0 
C -3 0.795609 -2.683901 1.55874 -2.12132 2.12132 
C -1.55874 2.683901 -0.795609 3 0 3 
z
" style="stroke: #d4a574"/>
    </defs>
    <g clip-path="url(#p1aa9022352)">
     <use xlink:href="#m3cee66a9e2" x="86.174687" y="68.250349" style="fill: #d4a574; stroke: #d4a574"/>
     <use xlink:href="#m3cee66a9e2" x="159.045625" y="150.863682" style="fill: #d4a574; stroke: #d4a574"/>
     <use xlink:href="#m3cee66a9e2" x="231.916562" y="192.170349" style="fill: #d4a574; stroke: #d4a574"/>
     <use xlink:href="#m3cee66a9e2" x="304.7875" y="222.461905" style="fill: #d4a574; stroke: #d4a574"/>
     <use xlink:href="#m3cee66a9e2" x="377.658437" y="237.607682" style="fill: #d4a574; stroke: #d4a574"/>
    </g>
   </g>
   <g id="line2d_40">
    <path d="M 86.174687 29.69746 
L 159.045625 123.325905 
L 231.916562 178.40146 
L 304.7875 211.446793 
L 377.658437 230.723238 
" clip-path="url(#p1aa9022352)" style="fill: none; stroke: #b85450; stroke-width: 2.2; stroke-linecap: square"/>
    <defs>
     <path id="m979c887d4b" d="M 0 3 
C 0.795609 3 1.55874 2.683901 2.12132 2.12132 
C 2.683901 1.55874 3 0.795609 3 0 
C 3 -0.795609 2.683901 -1.55874 2.12132 -2.12132 
C 1.55874 -2.683901 0.795609 -3 0 -3 
C -0.795609 -3 -1.55874 -2.683901 -2.12132 -2.12132 
C -2.683901 -1.55874 -3 -0.795609 -3 0 
C -3 0.795609 -2.683901 1.55874 -2.12132 2.12132 
C -1.55874 2.683901 -0.795609 3 0 3 
z
" style="stroke: #b85450"/>
    </defs>
    <g clip-path="url(#p1aa9022352)">
     <use xlink:href="#m979c887d4b" x="86.174687" y="29.69746" style="fill: #b85450; stroke: #b85450"/>
     <use xlink:href="#m979c887d4b" x="159.045625" y="123.325905" style="fill: #b85450; stroke: #b85450"/>
     <use xlink:href="#m979c887d4b" x="231.916562" y="178.40146" style="fill: #b85450; stroke: #b85450"/>
     <use xlink:href="#m979c887d4b" x="304.7875" y="211.446793" style="fill: #b85450; stroke: #b85450"/>
     <use xlink:href="#m979c887d4b" x="377.658437" y="230.723238" style="fill: #b85450; stroke: #b85450"/>
    </g>
   </g>
   <g id="patch_3">
    <path d="M 37.594062 258.261016 
L 37.594062 10.421016 
" style="fill: none; stroke: #000000; stroke-width: 1.4; stroke-linejoin: miter; stroke-linecap: square"/>
   </g>
   <g id="patch_4">
    <path d="M 37.594062 258.261016 
L 426.239062 258.261016 
" style="fill: none; stroke: #000000; stroke-width: 1.4; stroke-linejoin: miter; stroke-linecap: square"/>
   </g>
   <g id="text_20">
    <text style="font-weight: 700; font-size: 12px; font-family: 'Arial', 'Helvetica', 'DejaVu Sans', sans-serif; text-anchor: start" x="45.366962" y="24.113441" transform="rotate(-0 45.366962 24.113441)">(a)</text>
   </g>
   <g id="legend_1">
    <g id="line2d_41">
     <path d="M 311.446875 23.200703 
L 321.446875 23.200703 
L 331.446875 23.200703 
" style="fill: none; stroke: #4b6f8a; stroke-width: 2.2; stroke-linecap: square"/>
     <g>
      <use xlink:href="#m67ddbaea64" x="321.446875" y="23.200703" style="fill: #4b6f8a; stroke: #4b6f8a"/>
     </g>
    </g>
    <g id="text_21">
     <text style="font-size: 10px; font-family: 'Arial', 'Helvetica', 'DejaVu Sans', sans-serif; text-anchor: start" x="339.446875" y="26.700703" transform="rotate(-0 339.446875 26.700703)">EA-1 (base)</text>
    </g>
    <g id="line2d_42">
     <path d="M 311.446875 37.585078 
L 321.446875 37.585078 
L 331.446875 37.585078 
" style="fill: none; stroke: #c47b45; stroke-width: 2.2; stroke-linecap: square"/>
     <g>
      <use xlink:href="#m089222669b" x="321.446875" y="37.585078" style="fill: #c47b45; stroke: #c47b45"/>
     </g>
    </g>
    <g id="text_22">
     <text style="font-size: 10px; font-family: 'Arial', 'Helvetica', 'DejaVu Sans', sans-serif; text-anchor: start" x="339.446875" y="41.085078" transform="rotate(-0 339.446875 41.085078)">EA-2 (3% SBR)</text>
    </g>
    <g id="line2d_43">
     <path d="M 311.446875 51.969453 
L 321.446875 51.969453 
L 331.446875 51.969453 
" style="fill: none; stroke: #4f7c6a; stroke-width: 2.2; stroke-linecap: square"/>
     <g>
      <use xlink:href="#mf987889794" x="321.446875" y="51.969453" style="fill: #4f7c6a; stroke: #4f7c6a"/>
     </g>
    </g>
    <g id="text_23">
     <text style="font-size: 10px; font-family: 'Arial', 'Helvetica', 'DejaVu Sans', sans-serif; text-anchor: start" x="339.446875" y="55.469453" transform="rotate(-0 339.446875 55.469453)">EA-3 (4% WER)</text>
    </g>
    <g id="line2d_44">
     <path d="M 311.446875 66.353828 
L 321.446875 66.353828 
L 331.446875 66.353828 
" style="fill: none; stroke: #8b6f47; stroke-width: 2.2; stroke-linecap: square"/>
     <g>
      <use xlink:href="#md99bb057b4" x="321.446875" y="66.353828" style="fill: #8b6f47; stroke: #8b6f47"/>
     </g>
    </g>
    <g id="text_24">
     <text style="font-size: 10px; font-family: 'Arial', 'Helvetica', 'DejaVu Sans', sans-serif; text-anchor: start" x="339.446875" y="69.853828" transform="rotate(-0 339.446875 69.853828)">EA-4 (6% WER)</text>
    </g>
    <g id="line2d_45">
     <path d="M 311.446875 80.738203 
L 321.446875 80.738203 
L 331.446875 80.738203 
" style="fill: none; stroke: #d4a574; stroke-width: 2.2; stroke-linecap: square"/>
     <g>
      <use xlink:href="#m3cee66a9e2" x="321.446875" y="80.738203" style="fill: #d4a574; stroke: #d4a574"/>
     </g>
    </g>
    <g id="text_25">
     <text style="font-size: 10px; font-family: 'Arial', 'Helvetica', 'DejaVu Sans', sans-serif; text-anchor: start" x="339.446875" y="84.238203" transform="rotate(-0 339.446875 84.238203)">EA-5 (8% WER)</text>
    </g>
    <g id="line2d_46">
     <path d="M 311.446875 95.122578 
L 321.446875 95.122578 
L 331.446875 95.122578 
" style="fill: none; stroke: #b85450; stroke-width: 2.2; stroke-linecap: square"/>
     <g>
      <use xlink:href="#m979c887d4b" x="321.446875" y="95.122578" style="fill: #b85450; stroke: #b85450"/>
     </g>
    </g>
    <g id="text_26">
     <text style="font-size: 10px; font-family: 'Arial', 'Helvetica', 'DejaVu Sans', sans-serif; text-anchor: start" x="339.446875" y="98.622578" transform="rotate(-0 339.446875 98.622578)">EA-6 (10% WER)</text>
    </g>
   </g>
  </g>
 </g>
 <defs>
  <clipPath id="p1aa9022352">
   <rect x="37.594062" y="10.421016" width="388.645" height="247.84"/>
  </clipPath>
 </defs>
</svg>
