<?xml version="1.0" encoding="utf-8" standalone="no"?>
<!DOCTYPE svg PUBLIC "-//W3C//DTD SVG 1.1//EN"
  "http://www.w3.org/Graphics/SVG/1.1/DTD/svg11.dtd">
<svg xmlns:xlink="http://www.w3.org/1999/xlink" width="438.418594pt" height="294.076172pt" viewBox="0 0 438.418594 294.076172" xmlns="http://www.w3.org/2000/svg" version="1.1">
 <metadata>
  <rdf:RDF xmlns:dc="http://purl.org/dc/elements/1.1/" xmlns:cc="http://creativecommons.org/ns#" xmlns:rdf="http://www.w3.org/1999/02/22-rdf-syntax-ns#">
   <cc:Work>
    <dc:type rdf:resource="http://purl.org/dc/dcmitype/StillImage"/>
    <dc:date>2026-06-11T20:01:21.529806</dc:date>
    <dc:format>image/svg+xml</dc:format>
    <dc:creator>
     <cc:Agent>
      <dc:title>Matplotlib v3.10.9, https://matplotlib.org/</dc:title>
     </cc:Agent>
    </dc:creator>
   </cc:Work>
  </rdf:RDF>
 </metadata>
 <defs>
  <style type="text/css">*{stroke-linejoin: round; stroke-linecap: butt}</style>
 </defs>
 <g id="figure_1">
  <g id="patch_1">
   <path d="M 0 294.076172 
L 438.418594 294.076172 
L 438.418594 0 
L 0 0 
z
" style="fill: #ffffff"/>
  </g>
  <g id="axes_1">
   <g id="patch_2">
    <path d="M 52.608594 258.261016 
L 431.218594 258.261016 
L 431.218594 10.421016 
L 52.608594 10.421016 
z
" style="fill: #ffffff"/>
   </g>
   <g id="matplotlib.axis_1">
    <g id="xtick_1">
     <g id="line2d_1">
      <path d="M 52.608594 258.261016 
L 52.608594 10.421016 
" clip-path="url(#p1a1294d702)" style="fill: none; stroke: #e8e2d6; stroke-opacity: 0.8; stroke-width: 0.8; stroke-linecap: square"/>
     </g>
     <g id="line2d_2">
      <defs>
       <path id="m2e6a1b0240" d="M 0 0 
L 0 3.5 
" style="stroke: #000000; stroke-width: 0.8"/>
      </defs>
      <g>
       <use xlink:href="#m2e6a1b0240" x="52.608594" y="258.261016" style="stroke: #000000; stroke-width: 0.8"/>
      </g>
     </g>
     <g id="text_1">
      <text style="font-size: 9px; font-family: 'Arial', 'Helvetica', 'DejaVu Sans', sans-serif; text-anchor: middle" x="52.608594" y="271.703047" transform="rotate(-0 52.608594 271.703047)">0</text>
     </g>
    </g>
    <g id="xtick_2">
     <g id="line2d_3">
      <path d="M 132.315962 258.261016 
L 132.315962 10.421016 
" clip-path="url(#p1a1294d702)" style="fill: none; stroke: #e8e2d6; stroke-opacity: 0.8; stroke-width: 0.8; stroke-linecap: square"/>
     </g>
     <g id="line2d_4">
      <g>
       <use xlink:href="#m2e6a1b0240" x="132.315962" y="258.261016" style="stroke: #000000; stroke-width: 0.8"/>
      </g>
     </g>
     <g id="text_2">
      <text style="font-size: 9px; font-family: 'Arial', 'Helvetica', 'DejaVu Sans', sans-serif; text-anchor: middle" x="132.315962" y="271.703047" transform="rotate(-0 132.315962 271.703047)">20</text>
     </g>
    </g>
    <g id="xtick_3">
     <g id="line2d_5">
      <path d="M 212.023331 258.261016 
L 212.023331 10.421016 
" clip-path="url(#p1a1294d702)" style="fill: none; stroke: #e8e2d6; stroke-opacity: 0.8; stroke-width: 0.8; stroke-linecap: square"/>
     </g>
     <g id="line2d_6">
      <g>
       <use xlink:href="#m2e6a1b0240" x="212.023331" y="258.261016" style="stroke: #000000; stroke-width: 0.8"/>
      </g>
     </g>
     <g id="text_3">
      <text style="font-size: 9px; font-family: 'Arial', 'Helvetica', 'DejaVu Sans', sans-serif; text-anchor: middle" x="212.023331" y="271.703047" transform="rotate(-0 212.023331 271.703047)">40</text>
     </g>
    </g>
    <g id="xtick_4">
     <g id="line2d_7">
      <path d="M 291.730699 258.261016 
L 291.730699 10.421016 
" clip-path="url(#p1a1294d702)" style="fill: none; stroke: #e8e2d6; stroke-opacity: 0.8; stroke-width: 0.8; stroke-linecap: square"/>
     </g>
     <g id="line2d_8">
      <g>
       <use xlink:href="#m2e6a1b0240" x="291.730699" y="258.261016" style="stroke: #000000; stroke-width: 0.8"/>
      </g>
     </g>
     <g id="text_4">
      <text style="font-size: 9px; font-family: 'Arial', 'Helvetica', 'DejaVu Sans', sans-serif; text-anchor: middle" x="291.730699" y="271.703047" transform="rotate(-0 291.730699 271.703047)">60</text>
     </g>
    </g>
    <g id="xtick_5">
     <g id="line2d_9">
      <path d="M 371.438067 258.261016 
L 371.438067 10.421016 
" clip-path="url(#p1a1294d702)" style="fill: none; stroke: #e8e2d6; stroke-opacity: 0.8; stroke-width: 0.8; stroke-linecap: square"/>
     </g>
     <g id="line2d_10">
      <g>
       <use xlink:href="#m2e6a1b0240" x="371.438067" y="258.261016" style="stroke: #000000; stroke-width: 0.8"/>
      </g>
     </g>
     <g id="text_5">
      <text style="font-size: 9px; font-family: 'Arial', 'Helvetica', 'DejaVu Sans', sans-serif; text-anchor: middle" x="371.438067" y="271.703047" transform="rotate(-0 371.438067 271.703047)">80</text>
     </g>
    </g>
    <g id="text_6">
     <text style="font-size: 10px; font-family: 'Arial', 'Helvetica', 'DejaVu Sans', sans-serif; text-anchor: middle" x="241.913594" y="284.771484" transform="rotate(-0 241.913594 284.771484)">Measuring time (min)</text>
    </g>
   </g>
   <g id="matplotlib.axis_2">
    <g id="ytick_1">
     <g id="line2d_11">
      <path d="M 52.608594 258.261016 
L 431.218594 258.261016 
" clip-path="url(#p1a1294d702)" style="fill: none; stroke: #e8e2d6; stroke-opacity: 0.8; stroke-width: 0.8; stroke-linecap: square"/>
     </g>
     <g id="line2d_12">
      <defs>
       <path id="m68bcb11e23" d="M 0 0 
L -3.5 0 
" style="stroke: #000000; stroke-width: 0.8"/>
      </defs>
      <g>
       <use xlink:href="#m68bcb11e23" x="52.608594" y="258.261016" style="stroke: #000000; stroke-width: 0.8"/>
      </g>
     </g>
     <g id="text_7">
      <text style="font-size: 9px; font-family: 'Arial', 'Helvetica', 'DejaVu Sans', sans-serif; text-anchor: end" x="45.608594" y="261.482031" transform="rotate(-0 45.608594 261.482031)">0</text>
     </g>
    </g>
    <g id="ytick_2">
     <g id="line2d_13">
      <path d="M 52.608594 230.723238 
L 431.218594 230.723238 
" clip-path="url(#p1a1294d702)" style="fill: none; stroke: #e8e2d6; stroke-opacity: 0.8; stroke-width: 0.8; stroke-linecap: square"/>
     </g>
     <g id="line2d_14">
      <g>
       <use xlink:href="#m68bcb11e23" x="52.608594" y="230.723238" style="stroke: #000000; stroke-width: 0.8"/>
      </g>
     </g>
     <g id="text_8">
      <text style="font-size: 9px; font-family: 'Arial', 'Helvetica', 'DejaVu Sans', sans-serif; text-anchor: end" x="45.608594" y="233.944253" transform="rotate(-0 45.608594 233.944253)">2000</text>
     </g>
    </g>
    <g id="ytick_3">
     <g id="line2d_15">
      <path d="M 52.608594 203.18546 
L 431.218594 203.18546 
" clip-path="url(#p1a1294d702)" style="fill: none; stroke: #e8e2d6; stroke-opacity: 0.8; stroke-width: 0.8; stroke-linecap: square"/>
     </g>
     <g id="line2d_16">
      <g>
       <use xlink:href="#m68bcb11e23" x="52.608594" y="203.18546" style="stroke: #000000; stroke-width: 0.8"/>
      </g>
     </g>
     <g id="text_9">
      <text style="font-size: 9px; font-family: 'Arial', 'Helvetica', 'DejaVu Sans', sans-serif; text-anchor: end" x="45.608594" y="206.406476" transform="rotate(-0 45.608594 206.406476)">4000</text>
     </g>
    </g>
    <g id="ytick_4">
     <g id="line2d_17">
      <path d="M 52.608594 175.647682 
L 431.218594 175.647682 
" clip-path="url(#p1a1294d702)" style="fill: none; stroke: #e8e2d6; stroke-opacity: 0.8; stroke-width: 0.8; stroke-linecap: square"/>
     </g>
     <g id="line2d_18">
      <g>
       <use xlink:href="#m68bcb11e23" x="52.608594" y="175.647682" style="stroke: #000000; stroke-width: 0.8"/>
      </g>
     </g>
     <g id="text_10">
      <text style="font-size: 9px; font-family: 'Arial', 'Helvetica', 'DejaVu Sans', sans-serif; text-anchor: end" x="45.608594" y="178.868698" transform="rotate(-0 45.608594 178.868698)">6000</text>
     </g>
    </g>
    <g id="ytick_5">
     <g id="line2d_19">
      <path d="M 52.608594 148.109905 
L 431.218594 148.109905 
" clip-path="url(#p1a1294d702)" style="fill: none; stroke: #e8e2d6; stroke-opacity: 0.8; stroke-width: 0.8; stroke-linecap: square"/>
     </g>
     <g id="line2d_20">
      <g>
       <use xlink:href="#m68bcb11e23" x="52.608594" y="148.109905" style="stroke: #000000; stroke-width: 0.8"/>
      </g>
     </g>
     <g id="text_11">
      <text style="font-size: 9px; font-family: 'Arial', 'Helvetica', 'DejaVu Sans', sans-serif; text-anchor: end" x="45.608594" y="151.33092" transform="rotate(-0 45.608594 151.33092)">8000</text>
     </g>
    </g>
    <g id="ytick_6">
     <g id="line2d_21">
      <path d="M 52.608594 120.572127 
L 431.218594 120.572127 
" clip-path="url(#p1a1294d702)" style="fill: none; stroke: #e8e2d6; stroke-opacity: 0.8; stroke-width: 0.8; stroke-linecap: square"/>
     </g>
     <g id="line2d_22">
      <g>
       <use xlink:href="#m68bcb11e23" x="52.608594" y="120.572127" style="stroke: #000000; stroke-width: 0.8"/>
      </g>
     </g>
     <g id="text_12">
      <text style="font-size: 9px; font-family: 'Arial', 'Helvetica', 'DejaVu Sans', sans-serif; text-anchor: end" x="45.608594" y="123.793142" transform="rotate(-0 45.608594 123.793142)">10000</text>
     </g>
    </g>
    <g id="ytick_7">
     <g id="line2d_23">
      <path d="M 52.608594 93.034349 
L 431.218594 93.034349 
" clip-path="url(#p1a1294d702)" style="fill: none; stroke: #e8e2d6; stroke-opacity: 0.8; stroke-width: 0.8; stroke-linecap: square"/>
     </g>
     <g id="line2d_24">
      <g>
       <use xlink:href="#m68bcb11e23" x="52.608594" y="93.034349" style="stroke: #000000; stroke-width: 0.8"/>
      </g>
     </g>
     <g id="text_13">
      <text style="font-size: 9px; font-family: 'Arial', 'Helvetica', 'DejaVu Sans', sans-serif; text-anchor: end" x="45.608594" y="96.255365" transform="rotate(-0 45.608594 96.255365)">12000</text>
     </g>
    </g>
    <g id="ytick_8">
     <g id="line2d_25">
      <path d="M 52.608594 65.496571 
L 431.218594 65.496571 
" clip-path="url(#p1a1294d702)" style="fill: none; stroke: #e8e2d6; stroke-opacity: 0.8; stroke-width: 0.8; stroke-linecap: square"/>
     </g>
     <g id="line2d_26">
      <g>
       <use xlink:href="#m68bcb11e23" x="52.608594" y="65.496571" style="stroke: #000000; stroke-width: 0.8"/>
      </g>
     </g>
     <g id="text_14">
      <text style="font-size: 9px; font-family: 'Arial', 'Helvetica', 'DejaVu Sans', sans-serif; text-anchor: end" x="45.608594" y="68.717587" transform="rotate(-0 45.608594 68.717587)">14000</text>
     </g>
    </g>
    <g id="ytick_9">
     <g id="line2d_27">
      <path d="M 52.608594 37.958793 
L 431.218594 37.958793 
" clip-path="url(#p1a1294d702)" style="fill: none; stroke: #e8e2d6; stroke-opacity: 0.8; stroke-width: 0.8; stroke-linecap: square"/>
     </g>
     <g id="line2d_28">
      <g>
       <use xlink:href="#m68bcb11e23" x="52.608594" y="37.958793" style="stroke: #000000; stroke-width: 0.8"/>
      </g>
     </g>
     <g id="text_15">
      <text style="font-size: 9px; font-family: 'Arial', 'Helvetica', 'DejaVu Sans', sans-serif; text-anchor: end" x="45.608594" y="41.179809" transform="rotate(-0 45.608594 41.179809)">16000</text>
     </g>
    </g>
    <g id="ytick_10">
     <g id="line2d_29">
      <path d="M 52.608594 10.421016 
L 431.218594 10.421016 
" clip-path="url(#p1a1294d702)" style="fill: none; stroke: #e8e2d6; stroke-opacity: 0.8; stroke-width: 0.8; stroke-linecap: square"/>
     </g>
     <g id="line2d_30">
      <g>
       <use xlink:href="#m68bcb11e23" x="52.608594" y="10.421016" style="stroke: #000000; stroke-width: 0.8"/>
      </g>
     </g>
     <g id="text_16">
      <text style="font-size: 9px; font-family: 'Arial', 'Helvetica', 'DejaVu Sans', sans-serif; text-anchor: end" x="45.608594" y="13.642031" transform="rotate(-0 45.608594 13.642031)">18000</text>
     </g>
    </g>
    <g id="text_17">
     <text style="font-size: 10px; font-family: 'Arial', 'Helvetica', 'DejaVu Sans', sans-serif; text-anchor: middle" x="14.479688" y="134.341016" transform="rotate(-90 14.479688 134.341016)">Viscosity (mPa·s)</text>
    </g>
   </g>
   <g id="line2d_31">
    <path d="M 52.608594 194.924127 
L 72.535436 193.547238 
L 92.462278 192.170349 
L 112.38912 190.79346 
L 132.315962 189.416571 
L 152.242804 188.039682 
L 172.169646 186.662793 
L 192.096488 184.59746 
L 212.023331 182.532127 
L 231.950173 179.778349 
L 251.877015 177.024571 
L 271.803857 174.270793 
L 291.730699 171.517016 
L 311.657541 168.763238 
L 331.584383 166.00946 
L 351.511225 163.944127 
L 371.438067 162.567238 
L 391.36491 161.878793 
L 411.291752 161.190349 
" clip-path="url(#p1a1294d702)" style="fill: none; stroke: #4b6f8a; stroke-width: 2.2; stroke-linecap: square"/>
    <defs>
     <path id="mfc5dd633e3" d="M 0 3 
C 0.795609 3 1.55874 2.683901 2.12132 2.12132 
C 2.683901 1.55874 3 0.795609 3 0 
C 3 -0.795609 2.683901 -1.55874 2.12132 -2.12132 
C 1.55874 -2.683901 0.795609 -3 0 -3 
C -0.795609 -3 -1.55874 -2.683901 -2.12132 -2.12132 
C -2.683901 -1.55874 -3 -0.795609 -3 0 
C -3 0.795609 -2.683901 1.55874 -2.12132 2.12132 
C -1.55874 2.683901 -0.795609 3 0 3 
z
" style="stroke: #4b6f8a"/>
    </defs>
    <g clip-path="url(#p1a1294d702)">
     <use xlink:href="#mfc5dd633e3" x="52.608594" y="194.924127" style="fill: #4b6f8a; stroke: #4b6f8a"/>
     <use xlink:href="#mfc5dd633e3" x="72.535436" y="193.547238" style="fill: #4b6f8a; stroke: #4b6f8a"/>
     <use xlink:href="#mfc5dd633e3" x="92.462278" y="192.170349" style="fill: #4b6f8a; stroke: #4b6f8a"/>
     <use xlink:href="#mfc5dd633e3" x="112.38912" y="190.79346" style="fill: #4b6f8a; stroke: #4b6f8a"/>
     <use xlink:href="#mfc5dd633e3" x="132.315962" y="189.416571" style="fill: #4b6f8a; stroke: #4b6f8a"/>
     <use xlink:href="#mfc5dd633e3" x="152.242804" y="188.039682" style="fill: #4b6f8a; stroke: #4b6f8a"/>
     <use xlink:href="#mfc5dd633e3" x="172.169646" y="186.662793" style="fill: #4b6f8a; stroke: #4b6f8a"/>
     <use xlink:href="#mfc5dd633e3" x="192.096488" y="184.59746" style="fill: #4b6f8a; stroke: #4b6f8a"/>
     <use xlink:href="#mfc5dd633e3" x="212.023331" y="182.532127" style="fill: #4b6f8a; stroke: #4b6f8a"/>
     <use xlink:href="#mfc5dd633e3" x="231.950173" y="179.778349" style="fill: #4b6f8a; stroke: #4b6f8a"/>
     <use xlink:href="#mfc5dd633e3" x="251.877015" y="177.024571" style="fill: #4b6f8a; stroke: #4b6f8a"/>
     <use xlink:href="#mfc5dd633e3" x="271.803857" y="174.270793" style="fill: #4b6f8a; stroke: #4b6f8a"/>
     <use xlink:href="#mfc5dd633e3" x="291.730699" y="171.517016" style="fill: #4b6f8a; stroke: #4b6f8a"/>
     <use xlink:href="#mfc5dd633e3" x="311.657541" y="168.763238" style="fill: #4b6f8a; stroke: #4b6f8a"/>
     <use xlink:href="#mfc5dd633e3" x="331.584383" y="166.00946" style="fill: #4b6f8a; stroke: #4b6f8a"/>
     <use xlink:href="#mfc5dd633e3" x="351.511225" y="163.944127" style="fill: #4b6f8a; stroke: #4b6f8a"/>
     <use xlink:href="#mfc5dd633e3" x="371.438067" y="162.567238" style="fill: #4b6f8a; stroke: #4b6f8a"/>
     <use xlink:href="#mfc5dd633e3" x="391.36491" y="161.878793" style="fill: #4b6f8a; stroke: #4b6f8a"/>
     <use xlink:href="#mfc5dd633e3" x="411.291752" y="161.190349" style="fill: #4b6f8a; stroke: #4b6f8a"/>
    </g>
   </g>
   <g id="line2d_32">
    <path d="M 52.608594 148.109905 
L 72.535436 147.42146 
L 92.462278 146.733016 
L 112.38912 146.044571 
L 132.315962 144.667682 
L 152.242804 142.602349 
L 172.169646 139.848571 
L 192.096488 135.717905 
L 212.023331 131.587238 
L 231.950173 127.456571 
L 251.877015 123.325905 
L 271.803857 119.195238 
L 291.730699 117.129905 
L 311.657541 115.753016 
L 331.584383 114.376127 
L 351.511225 113.687682 
L 371.438067 112.999238 
L 391.36491 112.586171 
L 411.291752 112.310793 
" clip-path="url(#p1a1294d702)" style="fill: none; stroke: #c47b45; stroke-width: 2.2; stroke-linecap: square"/>
    <defs>
     <path id="md453b7cb0c" d="M 0 3 
C 0.795609 3 1.55874 2.683901 2.12132 2.12132 
C 2.683901 1.55874 3 0.795609 3 0 
C 3 -0.795609 2.683901 -1.55874 2.12132 -2.12132 
C 1.55874 -2.683901 0.795609 -3 0 -3 
C -0.795609 -3 -1.55874 -2.683901 -2.12132 -2.12132 
C -2.683901 -1.55874 -3 -0.795609 -3 0 
C -3 0.795609 -2.683901 1.55874 -2.12132 2.12132 
C -1.55874 2.683901 -0.795609 3 0 3 
z
" style="stroke: #c47b45"/>
    </defs>
    <g clip-path="url(#p1a1294d702)">
     <use xlink:href="#md453b7cb0c" x="52.608594" y="148.109905" style="fill: #c47b45; stroke: #c47b45"/>
     <use xlink:href="#md453b7cb0c" x="72.535436" y="147.42146" style="fill: #c47b45; stroke: #c47b45"/>
     <use xlink:href="#md453b7cb0c" x="92.462278" y="146.733016" style="fill: #c47b45; stroke: #c47b45"/>
     <use xlink:href="#md453b7cb0c" x="112.38912" y="146.044571" style="fill: #c47b45; stroke: #c47b45"/>
     <use xlink:href="#md453b7cb0c" x="132.315962" y="144.667682" style="fill: #c47b45; stroke: #c47b45"/>
     <use xlink:href="#md453b7cb0c" x="152.242804" y="142.602349" style="fill: #c47b45; stroke: #c47b45"/>
     <use xlink:href="#md453b7cb0c" x="172.169646" y="139.848571" style="fill: #c47b45; stroke: #c47b45"/>
     <use xlink:href="#md453b7cb0c" x="192.096488" y="135.717905" style="fill: #c47b45; stroke: #c47b45"/>
     <use xlink:href="#md453b7cb0c" x="212.023331" y="131.587238" style="fill: #c47b45; stroke: #c47b45"/>
     <use xlink:href="#md453b7cb0c" x="231.950173" y="127.456571" style="fill: #c47b45; stroke: #c47b45"/>
     <use xlink:href="#md453b7cb0c" x="251.877015" y="123.325905" style="fill: #c47b45; stroke: #c47b45"/>
     <use xlink:href="#md453b7cb0c" x="271.803857" y="119.195238" style="fill: #c47b45; stroke: #c47b45"/>
     <use xlink:href="#md453b7cb0c" x="291.730699" y="117.129905" style="fill: #c47b45; stroke: #c47b45"/>
     <use xlink:href="#md453b7cb0c" x="311.657541" y="115.753016" style="fill: #c47b45; stroke: #c47b45"/>
     <use xlink:href="#md453b7cb0c" x="331.584383" y="114.376127" style="fill: #c47b45; stroke: #c47b45"/>
     <use xlink:href="#md453b7cb0c" x="351.511225" y="113.687682" style="fill: #c47b45; stroke: #c47b45"/>
     <use xlink:href="#md453b7cb0c" x="371.438067" y="112.999238" style="fill: #c47b45; stroke: #c47b45"/>
     <use xlink:href="#md453b7cb0c" x="391.36491" y="112.586171" style="fill: #c47b45; stroke: #c47b45"/>
     <use xlink:href="#md453b7cb0c" x="411.291752" y="112.310793" style="fill: #c47b45; stroke: #c47b45"/>
    </g>
   </g>
   <g id="line2d_33">
    <path d="M 52.608594 65.496571 
L 72.535436 64.119682 
L 92.462278 62.742793 
L 112.38912 60.67746 
L 132.315962 58.612127 
L 152.242804 55.858349 
L 172.169646 53.104571 
L 192.096488 49.662349 
L 212.023331 46.220127 
L 231.950173 42.08946 
L 251.877015 37.958793 
L 271.803857 35.205016 
L 291.730699 33.828127 
L 311.657541 32.451238 
L 331.584383 31.762793 
L 351.511225 31.074349 
L 371.438067 30.798971 
L 391.36491 30.523593 
L 411.291752 30.385905 
" clip-path="url(#p1a1294d702)" style="fill: none; stroke: #4f7c6a; stroke-width: 2.2; stroke-linecap: square"/>
    <defs>
     <path id="m7f7aeb638e" d="M 0 3 
C 0.795609 3 1.55874 2.683901 2.12132 2.12132 
C 2.683901 1.55874 3 0.795609 3 0 
C 3 -0.795609 2.683901 -1.55874 2.12132 -2.12132 
C 1.55874 -2.683901 0.795609 -3 0 -3 
C -0.795609 -3 -1.55874 -2.683901 -2.12132 -2.12132 
C -2.683901 -1.55874 -3 -0.795609 -3 0 
C -3 0.795609 -2.683901 1.55874 -2.12132 2.12132 
C -1.55874 2.683901 -0.795609 3 0 3 
z
" style="stroke: #4f7c6a"/>
    </defs>
    <g clip-path="url(#p1a1294d702)">
     <use xlink:href="#m7f7aeb638e" x="52.608594" y="65.496571" style="fill: #4f7c6a; stroke: #4f7c6a"/>
     <use xlink:href="#m7f7aeb638e" x="72.535436" y="64.119682" style="fill: #4f7c6a; stroke: #4f7c6a"/>
     <use xlink:href="#m7f7aeb638e" x="92.462278" y="62.742793" style="fill: #4f7c6a; stroke: #4f7c6a"/>
     <use xlink:href="#m7f7aeb638e" x="112.38912" y="60.67746" style="fill: #4f7c6a; stroke: #4f7c6a"/>
     <use xlink:href="#m7f7aeb638e" x="132.315962" y="58.612127" style="fill: #4f7c6a; stroke: #4f7c6a"/>
     <use xlink:href="#m7f7aeb638e" x="152.242804" y="55.858349" style="fill: #4f7c6a; stroke: #4f7c6a"/>
     <use xlink:href="#m7f7aeb638e" x="172.169646" y="53.104571" style="fill: #4f7c6a; stroke: #4f7c6a"/>
     <use xlink:href="#m7f7aeb638e" x="192.096488" y="49.662349" style="fill: #4f7c6a; stroke: #4f7c6a"/>
     <use xlink:href="#m7f7aeb638e" x="212.023331" y="46.220127" style="fill: #4f7c6a; stroke: #4f7c6a"/>
     <use xlink:href="#m7f7aeb638e" x="231.950173" y="42.08946" style="fill: #4f7c6a; stroke: #4f7c6a"/>
     <use xlink:href="#m7f7aeb638e" x="251.877015" y="37.958793" style="fill: #4f7c6a; stroke: #4f7c6a"/>
     <use xlink:href="#m7f7aeb638e" x="271.803857" y="35.205016" style="fill: #4f7c6a; stroke: #4f7c6a"/>
     <use xlink:href="#m7f7aeb638e" x="291.730699" y="33.828127" style="fill: #4f7c6a; stroke: #4f7c6a"/>
     <use xlink:href="#m7f7aeb638e" x="311.657541" y="32.451238" style="fill: #4f7c6a; stroke: #4f7c6a"/>
     <use xlink:href="#m7f7aeb638e" x="331.584383" y="31.762793" style="fill: #4f7c6a; stroke: #4f7c6a"/>
     <use xlink:href="#m7f7aeb638e" x="351.511225" y="31.074349" style="fill: #4f7c6a; stroke: #4f7c6a"/>
     <use xlink:href="#m7f7aeb638e" x="371.438067" y="30.798971" style="fill: #4f7c6a; stroke: #4f7c6a"/>
     <use xlink:href="#m7f7aeb638e" x="391.36491" y="30.523593" style="fill: #4f7c6a; stroke: #4f7c6a"/>
     <use xlink:href="#m7f7aeb638e" x="411.291752" y="30.385905" style="fill: #4f7c6a; stroke: #4f7c6a"/>
    </g>
   </g>
   <g id="line2d_34">
    <path d="M 251.877015 258.261016 
L 251.877015 10.421016 
" clip-path="url(#p1a1294d702)" style="fill: none; stroke-dasharray: 3.7,1.6; stroke-dashoffset: 0; stroke: #b85450; stroke-opacity: 0.6"/>
   </g>
   <g id="patch_3">
    <path d="M 52.608594 258.261016 
L 52.608594 10.421016 
" style="fill: none; stroke: #000000; stroke-width: 1.4; stroke-linejoin: miter; stroke-linecap: square"/>
   </g>
   <g id="patch_4">
    <path d="M 52.608594 258.261016 
L 431.218594 258.261016 
" style="fill: none; stroke: #000000; stroke-width: 1.4; stroke-linejoin: miter; stroke-linecap: square"/>
   </g>
   <g id="text_18">
    <text style="font-size: 8px; font-family: 'Arial', 'Helvetica', 'DejaVu Sans', sans-serif; text-anchor: start; fill: #b85450" x="259.847752" y="93.034349" transform="rotate(-0 259.847752 93.034349)">Gel point (~50 min)</text>
   </g>
   <g id="text_19">
    <text style="font-weight: 700; font-size: 12px; font-family: 'Arial', 'Helvetica', 'DejaVu Sans', sans-serif; text-anchor: start" x="60.180794" y="24.113441" transform="rotate(-0 60.180794 24.113441)">(a)</text>
   </g>
   <g id="legend_1">
    <g id="line2d_35">
     <path d="M 61.608594 215.482891 
L 71.608594 215.482891 
L 81.608594 215.482891 
" style="fill: none; stroke: #4b6f8a; stroke-width: 2.2; stroke-linecap: square"/>
     <g>
      <use xlink:href="#mfc5dd633e3" x="71.608594" y="215.482891" style="fill: #4b6f8a; stroke: #4b6f8a"/>
     </g>
    </g>
    <g id="text_20">
     <text style="font-size: 10px; font-family: 'Arial', 'Helvetica', 'DejaVu Sans', sans-serif; text-anchor: start" x="89.608594" y="218.982891" transform="rotate(-0 89.608594 218.982891)">3% WER</text>
    </g>
    <g id="line2d_36">
     <path d="M 61.608594 229.628203 
L 71.608594 229.628203 
L 81.608594 229.628203 
" style="fill: none; stroke: #c47b45; stroke-width: 2.2; stroke-linecap: square"/>
     <g>
      <use xlink:href="#md453b7cb0c" x="71.608594" y="229.628203" style="fill: #c47b45; stroke: #c47b45"/>
     </g>
    </g>
    <g id="text_21">
     <text style="font-size: 10px; font-family: 'Arial', 'Helvetica', 'DejaVu Sans', sans-serif; text-anchor: start" x="89.608594" y="233.128203" transform="rotate(-0 89.608594 233.128203)">4.5% WER</text>
    </g>
    <g id="line2d_37">
     <path d="M 61.608594 243.773516 
L 71.608594 243.773516 
L 81.608594 243.773516 
" style="fill: none; stroke: #4f7c6a; stroke-width: 2.2; stroke-linecap: square"/>
     <g>
      <use xlink:href="#m7f7aeb638e" x="71.608594" y="243.773516" style="fill: #4f7c6a; stroke: #4f7c6a"/>
     </g>
    </g>
    <g id="text_22">
     <text style="font-size: 10px; font-family: 'Arial', 'Helvetica', 'DejaVu Sans', sans-serif; text-anchor: start" x="89.608594" y="247.273516" transform="rotate(-0 89.608594 247.273516)">6% WER</text>
    </g>
   </g>
  </g>
 </g>
 <defs>
  <clipPath id="p1a1294d702">
   <rect x="52.608594" y="10.421016" width="378.61" height="247.84"/>
  </clipPath>
 </defs>
</svg>
