<?xml version="1.0" encoding="utf-8" standalone="no"?>
<!DOCTYPE svg PUBLIC "-//W3C//DTD SVG 1.1//EN"
  "http://www.w3.org/Graphics/SVG/1.1/DTD/svg11.dtd">
<svg xmlns:xlink="http://www.w3.org/1999/xlink" width="438.414375pt" height="294.095156pt" viewBox="0 0 438.414375 294.095156" xmlns="http://www.w3.org/2000/svg" version="1.1">
 <metadata>
  <rdf:RDF xmlns:dc="http://purl.org/dc/elements/1.1/" xmlns:cc="http://creativecommons.org/ns#" xmlns:rdf="http://www.w3.org/1999/02/22-rdf-syntax-ns#">
   <cc:Work>
    <dc:type rdf:resource="http://purl.org/dc/dcmitype/StillImage"/>
    <dc:date>2026-06-11T18:16:51.895338</dc:date>
    <dc:format>image/svg+xml</dc:format>
    <dc:creator>
     <cc:Agent>
      <dc:title>Matplotlib v3.10.9, https://matplotlib.org/</dc:title>
     </cc:Agent>
    </dc:creator>
   </cc:Work>
  </rdf:RDF>
 </metadata>
 <defs>
  <style type="text/css">*{stroke-linejoin: round; stroke-linecap: butt}</style>
 </defs>
 <g id="figure_1">
  <g id="patch_1">
   <path d="M 0 294.095156 
L 438.414375 294.095156 
L 438.414375 0 
L 0 0 
z
" style="fill: #ffffff"/>
  </g>
  <g id="axes_1">
   <g id="patch_2">
    <path d="M 40.094375 258.28 
L 431.214375 258.28 
L 431.214375 7.2 
L 40.094375 7.2 
z
" style="fill: #ffffff"/>
   </g>
   <g id="patch_3">
    <path d="M 226.765284 258.28 
L 333.434375 258.28 
L 333.434375 7.2 
L 226.765284 7.2 
z
" clip-path="url(#p8ac7a4ed82)" style="fill: #4f7c6a; opacity: 0.15; stroke: #4f7c6a; stroke-linejoin: miter"/>
   </g>
   <g id="matplotlib.axis_1">
    <g id="xtick_1">
     <g id="line2d_1">
      <path d="M 57.872557 258.28 
L 57.872557 7.2 
" clip-path="url(#p8ac7a4ed82)" style="fill: none; stroke: #e8e2d6; stroke-opacity: 0.8; stroke-width: 0.8; stroke-linecap: square"/>
     </g>
     <g id="line2d_2">
      <defs>
       <path id="m53ead84caa" d="M 0 0 
L 0 3.5 
" style="stroke: #000000; stroke-width: 0.8"/>
      </defs>
      <g>
       <use xlink:href="#m53ead84caa" x="57.872557" y="258.28" style="stroke: #000000; stroke-width: 0.8"/>
      </g>
     </g>
     <g id="text_1">
      <text style="font-size: 9px; font-family: 'Arial', 'Helvetica', 'DejaVu Sans', sans-serif; text-anchor: middle" x="57.872557" y="271.722031" transform="rotate(-0 57.872557 271.722031)">0%</text>
     </g>
    </g>
    <g id="xtick_2">
     <g id="line2d_3">
      <path d="M 146.763466 258.28 
L 146.763466 7.2 
" clip-path="url(#p8ac7a4ed82)" style="fill: none; stroke: #e8e2d6; stroke-opacity: 0.8; stroke-width: 0.8; stroke-linecap: square"/>
     </g>
     <g id="line2d_4">
      <g>
       <use xlink:href="#m53ead84caa" x="146.763466" y="258.28" style="stroke: #000000; stroke-width: 0.8"/>
      </g>
     </g>
     <g id="text_2">
      <text style="font-size: 9px; font-family: 'Arial', 'Helvetica', 'DejaVu Sans', sans-serif; text-anchor: middle" x="146.763466" y="271.722031" transform="rotate(-0 146.763466 271.722031)">5%</text>
     </g>
    </g>
    <g id="xtick_3">
     <g id="line2d_5">
      <path d="M 235.654375 258.28 
L 235.654375 7.2 
" clip-path="url(#p8ac7a4ed82)" style="fill: none; stroke: #e8e2d6; stroke-opacity: 0.8; stroke-width: 0.8; stroke-linecap: square"/>
     </g>
     <g id="line2d_6">
      <g>
       <use xlink:href="#m53ead84caa" x="235.654375" y="258.28" style="stroke: #000000; stroke-width: 0.8"/>
      </g>
     </g>
     <g id="text_3">
      <text style="font-size: 9px; font-family: 'Arial', 'Helvetica', 'DejaVu Sans', sans-serif; text-anchor: middle" x="235.654375" y="271.722031" transform="rotate(-0 235.654375 271.722031)">10%</text>
     </g>
    </g>
    <g id="xtick_4">
     <g id="line2d_7">
      <path d="M 324.545284 258.28 
L 324.545284 7.2 
" clip-path="url(#p8ac7a4ed82)" style="fill: none; stroke: #e8e2d6; stroke-opacity: 0.8; stroke-width: 0.8; stroke-linecap: square"/>
     </g>
     <g id="line2d_8">
      <g>
       <use xlink:href="#m53ead84caa" x="324.545284" y="258.28" style="stroke: #000000; stroke-width: 0.8"/>
      </g>
     </g>
     <g id="text_4">
      <text style="font-size: 9px; font-family: 'Arial', 'Helvetica', 'DejaVu Sans', sans-serif; text-anchor: middle" x="324.545284" y="271.722031" transform="rotate(-0 324.545284 271.722031)">15%</text>
     </g>
    </g>
    <g id="xtick_5">
     <g id="line2d_9">
      <path d="M 413.436193 258.28 
L 413.436193 7.2 
" clip-path="url(#p8ac7a4ed82)" style="fill: none; stroke: #e8e2d6; stroke-opacity: 0.8; stroke-width: 0.8; stroke-linecap: square"/>
     </g>
     <g id="line2d_10">
      <g>
       <use xlink:href="#m53ead84caa" x="413.436193" y="258.28" style="stroke: #000000; stroke-width: 0.8"/>
      </g>
     </g>
     <g id="text_5">
      <text style="font-size: 9px; font-family: 'Arial', 'Helvetica', 'DejaVu Sans', sans-serif; text-anchor: middle" x="413.436193" y="271.722031" transform="rotate(-0 413.436193 271.722031)">20%</text>
     </g>
    </g>
    <g id="text_6">
     <text style="font-size: 10px; font-family: 'Arial', 'Helvetica', 'DejaVu Sans', sans-serif; text-anchor: middle" x="235.654375" y="284.790469" transform="rotate(-0 235.654375 284.790469)">WER dosage (% by dry residue)</text>
    </g>
   </g>
   <g id="matplotlib.axis_2">
    <g id="ytick_1">
     <g id="line2d_11">
      <path d="M 40.094375 247.363478 
L 431.214375 247.363478 
" clip-path="url(#p8ac7a4ed82)" style="fill: none; stroke: #e8e2d6; stroke-opacity: 0.8; stroke-width: 0.8; stroke-linecap: square"/>
     </g>
     <g id="line2d_12">
      <defs>
       <path id="mb408003bc2" d="M 0 0 
L -3.5 0 
" style="stroke: #000000; stroke-width: 0.8"/>
      </defs>
      <g>
       <use xlink:href="#mb408003bc2" x="40.094375" y="247.363478" style="stroke: #000000; stroke-width: 0.8"/>
      </g>
     </g>
     <g id="text_7">
      <text style="font-size: 9px; font-family: 'Arial', 'Helvetica', 'DejaVu Sans', sans-serif; text-anchor: end" x="33.094375" y="250.584494" transform="rotate(-0 33.094375 250.584494)">0.0</text>
     </g>
    </g>
    <g id="ytick_2">
     <g id="line2d_13">
      <path d="M 40.094375 203.697391 
L 431.214375 203.697391 
" clip-path="url(#p8ac7a4ed82)" style="fill: none; stroke: #e8e2d6; stroke-opacity: 0.8; stroke-width: 0.8; stroke-linecap: square"/>
     </g>
     <g id="line2d_14">
      <g>
       <use xlink:href="#mb408003bc2" x="40.094375" y="203.697391" style="stroke: #000000; stroke-width: 0.8"/>
      </g>
     </g>
     <g id="text_8">
      <text style="font-size: 9px; font-family: 'Arial', 'Helvetica', 'DejaVu Sans', sans-serif; text-anchor: end" x="33.094375" y="206.918407" transform="rotate(-0 33.094375 206.918407)">0.2</text>
     </g>
    </g>
    <g id="ytick_3">
     <g id="line2d_15">
      <path d="M 40.094375 160.031304 
L 431.214375 160.031304 
" clip-path="url(#p8ac7a4ed82)" style="fill: none; stroke: #e8e2d6; stroke-opacity: 0.8; stroke-width: 0.8; stroke-linecap: square"/>
     </g>
     <g id="line2d_16">
      <g>
       <use xlink:href="#mb408003bc2" x="40.094375" y="160.031304" style="stroke: #000000; stroke-width: 0.8"/>
      </g>
     </g>
     <g id="text_9">
      <text style="font-size: 9px; font-family: 'Arial', 'Helvetica', 'DejaVu Sans', sans-serif; text-anchor: end" x="33.094375" y="163.25232" transform="rotate(-0 33.094375 163.25232)">0.4</text>
     </g>
    </g>
    <g id="ytick_4">
     <g id="line2d_17">
      <path d="M 40.094375 116.365217 
L 431.214375 116.365217 
" clip-path="url(#p8ac7a4ed82)" style="fill: none; stroke: #e8e2d6; stroke-opacity: 0.8; stroke-width: 0.8; stroke-linecap: square"/>
     </g>
     <g id="line2d_18">
      <g>
       <use xlink:href="#mb408003bc2" x="40.094375" y="116.365217" style="stroke: #000000; stroke-width: 0.8"/>
      </g>
     </g>
     <g id="text_10">
      <text style="font-size: 9px; font-family: 'Arial', 'Helvetica', 'DejaVu Sans', sans-serif; text-anchor: end" x="33.094375" y="119.586233" transform="rotate(-0 33.094375 119.586233)">0.6</text>
     </g>
    </g>
    <g id="ytick_5">
     <g id="line2d_19">
      <path d="M 40.094375 72.69913 
L 431.214375 72.69913 
" clip-path="url(#p8ac7a4ed82)" style="fill: none; stroke: #e8e2d6; stroke-opacity: 0.8; stroke-width: 0.8; stroke-linecap: square"/>
     </g>
     <g id="line2d_20">
      <g>
       <use xlink:href="#mb408003bc2" x="40.094375" y="72.69913" style="stroke: #000000; stroke-width: 0.8"/>
      </g>
     </g>
     <g id="text_11">
      <text style="font-size: 9px; font-family: 'Arial', 'Helvetica', 'DejaVu Sans', sans-serif; text-anchor: end" x="33.094375" y="75.920146" transform="rotate(-0 33.094375 75.920146)">0.8</text>
     </g>
    </g>
    <g id="ytick_6">
     <g id="line2d_21">
      <path d="M 40.094375 29.033043 
L 431.214375 29.033043 
" clip-path="url(#p8ac7a4ed82)" style="fill: none; stroke: #e8e2d6; stroke-opacity: 0.8; stroke-width: 0.8; stroke-linecap: square"/>
     </g>
     <g id="line2d_22">
      <g>
       <use xlink:href="#mb408003bc2" x="40.094375" y="29.033043" style="stroke: #000000; stroke-width: 0.8"/>
      </g>
     </g>
     <g id="text_12">
      <text style="font-size: 9px; font-family: 'Arial', 'Helvetica', 'DejaVu Sans', sans-serif; text-anchor: end" x="33.094375" y="32.254059" transform="rotate(-0 33.094375 32.254059)">1.0</text>
     </g>
    </g>
    <g id="text_13">
     <text style="font-size: 10px; font-family: 'Arial', 'Helvetica', 'DejaVu Sans', sans-serif; text-anchor: middle" x="14.479688" y="132.74" transform="rotate(-90 14.479688 132.74)">Normalized performance (0–1)</text>
    </g>
   </g>
   <g id="line2d_23">
    <path d="M 57.872557 247.363478 
L 146.763466 188.414261 
L 235.654375 127.281739 
L 324.545284 68.332522 
L 413.436193 107.632 
" clip-path="url(#p8ac7a4ed82)" style="fill: none; stroke: #4b6f8a; stroke-width: 2.2; stroke-linecap: square"/>
    <defs>
     <path id="md4efdac127" d="M 0 3 
C 0.795609 3 1.55874 2.683901 2.12132 2.12132 
C 2.683901 1.55874 3 0.795609 3 0 
C 3 -0.795609 2.683901 -1.55874 2.12132 -2.12132 
C 1.55874 -2.683901 0.795609 -3 0 -3 
C -0.795609 -3 -1.55874 -2.683901 -2.12132 -2.12132 
C -2.683901 -1.55874 -3 -0.795609 -3 0 
C -3 0.795609 -2.683901 1.55874 -2.12132 2.12132 
C -1.55874 2.683901 -0.795609 3 0 3 
z
" style="stroke: #4b6f8a"/>
    </defs>
    <g clip-path="url(#p8ac7a4ed82)">
     <use xlink:href="#md4efdac127" x="57.872557" y="247.363478" style="fill: #4b6f8a; stroke: #4b6f8a"/>
     <use xlink:href="#md4efdac127" x="146.763466" y="188.414261" style="fill: #4b6f8a; stroke: #4b6f8a"/>
     <use xlink:href="#md4efdac127" x="235.654375" y="127.281739" style="fill: #4b6f8a; stroke: #4b6f8a"/>
     <use xlink:href="#md4efdac127" x="324.545284" y="68.332522" style="fill: #4b6f8a; stroke: #4b6f8a"/>
     <use xlink:href="#md4efdac127" x="413.436193" y="107.632" style="fill: #4b6f8a; stroke: #4b6f8a"/>
    </g>
   </g>
   <g id="line2d_24">
    <path d="M 57.872557 29.033043 
L 146.763466 66.149217 
L 235.654375 122.91513 
L 324.545284 92.34887 
L 413.436193 55.232696 
" clip-path="url(#p8ac7a4ed82)" style="fill: none; stroke: #c47b45; stroke-width: 2.2; stroke-linecap: square"/>
    <defs>
     <path id="m9dfdab0fae" d="M 0 3 
C 0.795609 3 1.55874 2.683901 2.12132 2.12132 
C 2.683901 1.55874 3 0.795609 3 0 
C 3 -0.795609 2.683901 -1.55874 2.12132 -2.12132 
C 1.55874 -2.683901 0.795609 -3 0 -3 
C -0.795609 -3 -1.55874 -2.683901 -2.12132 -2.12132 
C -2.683901 -1.55874 -3 -0.795609 -3 0 
C -3 0.795609 -2.683901 1.55874 -2.12132 2.12132 
C -1.55874 2.683901 -0.795609 3 0 3 
z
" style="stroke: #c47b45"/>
    </defs>
    <g clip-path="url(#p8ac7a4ed82)">
     <use xlink:href="#m9dfdab0fae" x="57.872557" y="29.033043" style="fill: #c47b45; stroke: #c47b45"/>
     <use xlink:href="#m9dfdab0fae" x="146.763466" y="66.149217" style="fill: #c47b45; stroke: #c47b45"/>
     <use xlink:href="#m9dfdab0fae" x="235.654375" y="122.91513" style="fill: #c47b45; stroke: #c47b45"/>
     <use xlink:href="#m9dfdab0fae" x="324.545284" y="92.34887" style="fill: #c47b45; stroke: #c47b45"/>
     <use xlink:href="#m9dfdab0fae" x="413.436193" y="55.232696" style="fill: #c47b45; stroke: #c47b45"/>
    </g>
   </g>
   <g id="line2d_25">
    <path d="M 57.872557 247.363478 
L 146.763466 153.481391 
L 235.654375 74.882435 
L 324.545284 29.033043 
L 413.436193 122.91513 
" clip-path="url(#p8ac7a4ed82)" style="fill: none; stroke: #4f7c6a; stroke-width: 2.2; stroke-linecap: square"/>
    <defs>
     <path id="m6c095f898f" d="M 0 3 
C 0.795609 3 1.55874 2.683901 2.12132 2.12132 
C 2.683901 1.55874 3 0.795609 3 0 
C 3 -0.795609 2.683901 -1.55874 2.12132 -2.12132 
C 1.55874 -2.683901 0.795609 -3 0 -3 
C -0.795609 -3 -1.55874 -2.683901 -2.12132 -2.12132 
C -2.683901 -1.55874 -3 -0.795609 -3 0 
C -3 0.795609 -2.683901 1.55874 -2.12132 2.12132 
C -1.55874 2.683901 -0.795609 3 0 3 
z
" style="stroke: #4f7c6a"/>
    </defs>
    <g clip-path="url(#p8ac7a4ed82)">
     <use xlink:href="#m6c095f898f" x="57.872557" y="247.363478" style="fill: #4f7c6a; stroke: #4f7c6a"/>
     <use xlink:href="#m6c095f898f" x="146.763466" y="153.481391" style="fill: #4f7c6a; stroke: #4f7c6a"/>
     <use xlink:href="#m6c095f898f" x="235.654375" y="74.882435" style="fill: #4f7c6a; stroke: #4f7c6a"/>
     <use xlink:href="#m6c095f898f" x="324.545284" y="29.033043" style="fill: #4f7c6a; stroke: #4f7c6a"/>
     <use xlink:href="#m6c095f898f" x="413.436193" y="122.91513" style="fill: #4f7c6a; stroke: #4f7c6a"/>
    </g>
   </g>
   <g id="line2d_26">
    <path d="M 57.872557 247.363478 
L 146.763466 138.198261 
L 235.654375 72.69913 
L 324.545284 29.033043 
L 413.436193 116.365217 
" clip-path="url(#p8ac7a4ed82)" style="fill: none; stroke: #8b6f47; stroke-width: 2.2; stroke-linecap: square"/>
    <defs>
     <path id="m9905c819b4" d="M 0 3 
C 0.795609 3 1.55874 2.683901 2.12132 2.12132 
C 2.683901 1.55874 3 0.795609 3 0 
C 3 -0.795609 2.683901 -1.55874 2.12132 -2.12132 
C 1.55874 -2.683901 0.795609 -3 0 -3 
C -0.795609 -3 -1.55874 -2.683901 -2.12132 -2.12132 
C -2.683901 -1.55874 -3 -0.795609 -3 0 
C -3 0.795609 -2.683901 1.55874 -2.12132 2.12132 
C -1.55874 2.683901 -0.795609 3 0 3 
z
" style="stroke: #8b6f47"/>
    </defs>
    <g clip-path="url(#p8ac7a4ed82)">
     <use xlink:href="#m9905c819b4" x="57.872557" y="247.363478" style="fill: #8b6f47; stroke: #8b6f47"/>
     <use xlink:href="#m9905c819b4" x="146.763466" y="138.198261" style="fill: #8b6f47; stroke: #8b6f47"/>
     <use xlink:href="#m9905c819b4" x="235.654375" y="72.69913" style="fill: #8b6f47; stroke: #8b6f47"/>
     <use xlink:href="#m9905c819b4" x="324.545284" y="29.033043" style="fill: #8b6f47; stroke: #8b6f47"/>
     <use xlink:href="#m9905c819b4" x="413.436193" y="116.365217" style="fill: #8b6f47; stroke: #8b6f47"/>
    </g>
   </g>
   <g id="line2d_27">
    <path d="M 235.654375 258.28 
L 235.654375 7.2 
" clip-path="url(#p8ac7a4ed82)" style="fill: none; stroke-dasharray: 1.2,1.98; stroke-dashoffset: 0; stroke: #4f7c6a; stroke-width: 1.2"/>
   </g>
   <g id="line2d_28">
    <path d="M 324.545284 258.28 
L 324.545284 7.2 
" clip-path="url(#p8ac7a4ed82)" style="fill: none; stroke-dasharray: 1.2,1.98; stroke-dashoffset: 0; stroke: #4f7c6a; stroke-width: 1.2"/>
   </g>
   <g id="patch_4">
    <path d="M 40.094375 258.28 
L 40.094375 7.2 
" style="fill: none; stroke: #000000; stroke-width: 1.4; stroke-linejoin: miter; stroke-linecap: square"/>
   </g>
   <g id="patch_5">
    <path d="M 40.094375 258.28 
L 431.214375 258.28 
" style="fill: none; stroke: #000000; stroke-width: 1.4; stroke-linejoin: miter; stroke-linecap: square"/>
   </g>
   <g id="text_14">
    <text style="font-weight: 700; font-size: 12px; font-family: 'Arial', 'Helvetica', 'DejaVu Sans', sans-serif; text-anchor: start" x="47.916775" y="20.957225" transform="rotate(-0 47.916775 20.957225)">(a)</text>
   </g>
   <g id="legend_1">
    <g id="line2d_29">
     <path d="M 47.294375 17.32625 
L 55.294375 17.32625 
L 63.294375 17.32625 
" style="fill: none; stroke: #4b6f8a; stroke-width: 2.2; stroke-linecap: square"/>
     <g>
      <use xlink:href="#md4efdac127" x="55.294375" y="17.32625" style="fill: #4b6f8a; stroke: #4b6f8a"/>
     </g>
    </g>
    <g id="text_15">
     <text style="font-size: 8px; font-family: 'Arial', 'Helvetica', 'DejaVu Sans', sans-serif; text-anchor: start" x="69.694375" y="20.12625" transform="rotate(-0 69.694375 20.12625)">Bonding strength</text>
    </g>
    <g id="line2d_30">
     <path d="M 47.294375 28.83375 
L 55.294375 28.83375 
L 63.294375 28.83375 
" style="fill: none; stroke: #c47b45; stroke-width: 2.2; stroke-linecap: square"/>
     <g>
      <use xlink:href="#m9dfdab0fae" x="55.294375" y="28.83375" style="fill: #c47b45; stroke: #c47b45"/>
     </g>
    </g>
    <g id="text_16">
     <text style="font-size: 8px; font-family: 'Arial', 'Helvetica', 'DejaVu Sans', sans-serif; text-anchor: start" x="69.694375" y="31.63375" transform="rotate(-0 69.694375 31.63375)">Viscosity (inverse)</text>
    </g>
    <g id="line2d_31">
     <path d="M 47.294375 40.24375 
L 55.294375 40.24375 
L 63.294375 40.24375 
" style="fill: none; stroke: #4f7c6a; stroke-width: 2.2; stroke-linecap: square"/>
     <g>
      <use xlink:href="#m6c095f898f" x="55.294375" y="40.24375" style="fill: #4f7c6a; stroke: #4f7c6a"/>
     </g>
    </g>
    <g id="text_17">
     <text style="font-size: 8px; font-family: 'Arial', 'Helvetica', 'DejaVu Sans', sans-serif; text-anchor: start" x="69.694375" y="43.04375" transform="rotate(-0 69.694375 43.04375)">Emulsion stability</text>
    </g>
    <g id="line2d_32">
     <path d="M 47.294375 51.65375 
L 55.294375 51.65375 
L 63.294375 51.65375 
" style="fill: none; stroke: #8b6f47; stroke-width: 2.2; stroke-linecap: square"/>
     <g>
      <use xlink:href="#m9905c819b4" x="55.294375" y="51.65375" style="fill: #8b6f47; stroke: #8b6f47"/>
     </g>
    </g>
    <g id="text_18">
     <text style="font-size: 8px; font-family: 'Arial', 'Helvetica', 'DejaVu Sans', sans-serif; text-anchor: start" x="69.694375" y="54.45375" transform="rotate(-0 69.694375 54.45375)">Workability</text>
    </g>
    <g id="patch_6">
     <path d="M 47.294375 65.96625 
L 63.294375 65.96625 
L 63.294375 60.36625 
L 47.294375 60.36625 
z
" style="fill: #4f7c6a; opacity: 0.15; stroke: #4f7c6a; stroke-linejoin: miter"/>
    </g>
    <g id="text_19">
     <text style="font-size: 8px; font-family: 'Arial', 'Helvetica', 'DejaVu Sans', sans-serif; text-anchor: start" x="69.694375" y="65.96625" transform="rotate(-0 69.694375 65.96625)">Optimal window</text>
    </g>
   </g>
  </g>
 </g>
 <defs>
  <clipPath id="p8ac7a4ed82">
   <rect x="40.094375" y="7.2" width="391.12" height="251.08"/>
  </clipPath>
 </defs>
</svg>
