<?xml version="1.0" encoding="utf-8" standalone="no"?>
<!DOCTYPE svg PUBLIC "-//W3C//DTD SVG 1.1//EN"
  "http://www.w3.org/Graphics/SVG/1.1/DTD/svg11.dtd">
<svg xmlns:xlink="http://www.w3.org/1999/xlink" width="438.45375pt" height="293.973281pt" viewBox="0 0 438.45375 293.973281" xmlns="http://www.w3.org/2000/svg" version="1.1">
 <metadata>
  <rdf:RDF xmlns:dc="http://purl.org/dc/elements/1.1/" xmlns:cc="http://creativecommons.org/ns#" xmlns:rdf="http://www.w3.org/1999/02/22-rdf-syntax-ns#">
   <cc:Work>
    <dc:type rdf:resource="http://purl.org/dc/dcmitype/StillImage"/>
    <dc:date>2026-06-11T18:16:59.689336</dc:date>
    <dc:format>image/svg+xml</dc:format>
    <dc:creator>
     <cc:Agent>
      <dc:title>Matplotlib v3.10.9, https://matplotlib.org/</dc:title>
     </cc:Agent>
    </dc:creator>
   </cc:Work>
  </rdf:RDF>
 </metadata>
 <defs>
  <style type="text/css">*{stroke-linejoin: round; stroke-linecap: butt}</style>
 </defs>
 <g id="figure_1">
  <g id="patch_1">
   <path d="M 0 293.973281 
L 438.45375 293.973281 
L 438.45375 0 
L 0 0 
z
" style="fill: #ffffff"/>
  </g>
  <g id="axes_1">
   <g id="patch_2">
    <path d="M 42.598906 258.28 
L 426.248906 258.28 
L 426.248906 7.2 
L 42.598906 7.2 
z
" style="fill: #ffffff"/>
   </g>
   <g id="matplotlib.axis_1">
    <g id="xtick_1">
     <g id="line2d_1">
      <path d="M 42.598906 258.28 
L 42.598906 7.2 
" clip-path="url(#pd099a585dd)" style="fill: none; stroke: #e8e2d6; stroke-opacity: 0.8; stroke-width: 0.8; stroke-linecap: square"/>
     </g>
     <g id="line2d_2">
      <defs>
       <path id="mf3baa95ecf" d="M 0 0 
L 0 3.5 
" style="stroke: #000000; stroke-width: 0.8"/>
      </defs>
      <g>
       <use xlink:href="#mf3baa95ecf" x="42.598906" y="258.28" style="stroke: #000000; stroke-width: 0.8"/>
      </g>
     </g>
     <g id="text_1">
      <text style="font-size: 9px; font-family: 'Arial', 'Helvetica', 'DejaVu Sans', sans-serif; text-anchor: middle" x="42.598906" y="271.722031" transform="rotate(-0 42.598906 271.722031)">0</text>
     </g>
    </g>
    <g id="xtick_2">
     <g id="line2d_3">
      <path d="M 106.540573 258.28 
L 106.540573 7.2 
" clip-path="url(#pd099a585dd)" style="fill: none; stroke: #e8e2d6; stroke-opacity: 0.8; stroke-width: 0.8; stroke-linecap: square"/>
     </g>
     <g id="line2d_4">
      <g>
       <use xlink:href="#mf3baa95ecf" x="106.540573" y="258.28" style="stroke: #000000; stroke-width: 0.8"/>
      </g>
     </g>
     <g id="text_2">
      <text style="font-size: 9px; font-family: 'Arial', 'Helvetica', 'DejaVu Sans', sans-serif; text-anchor: middle" x="106.540573" y="271.722031" transform="rotate(-0 106.540573 271.722031)">5</text>
     </g>
    </g>
    <g id="xtick_3">
     <g id="line2d_5">
      <path d="M 170.48224 258.28 
L 170.48224 7.2 
" clip-path="url(#pd099a585dd)" style="fill: none; stroke: #e8e2d6; stroke-opacity: 0.8; stroke-width: 0.8; stroke-linecap: square"/>
     </g>
     <g id="line2d_6">
      <g>
       <use xlink:href="#mf3baa95ecf" x="170.48224" y="258.28" style="stroke: #000000; stroke-width: 0.8"/>
      </g>
     </g>
     <g id="text_3">
      <text style="font-size: 9px; font-family: 'Arial', 'Helvetica', 'DejaVu Sans', sans-serif; text-anchor: middle" x="170.48224" y="271.722031" transform="rotate(-0 170.48224 271.722031)">10</text>
     </g>
    </g>
    <g id="xtick_4">
     <g id="line2d_7">
      <path d="M 234.423906 258.28 
L 234.423906 7.2 
" clip-path="url(#pd099a585dd)" style="fill: none; stroke: #e8e2d6; stroke-opacity: 0.8; stroke-width: 0.8; stroke-linecap: square"/>
     </g>
     <g id="line2d_8">
      <g>
       <use xlink:href="#mf3baa95ecf" x="234.423906" y="258.28" style="stroke: #000000; stroke-width: 0.8"/>
      </g>
     </g>
     <g id="text_4">
      <text style="font-size: 9px; font-family: 'Arial', 'Helvetica', 'DejaVu Sans', sans-serif; text-anchor: middle" x="234.423906" y="271.722031" transform="rotate(-0 234.423906 271.722031)">15</text>
     </g>
    </g>
    <g id="xtick_5">
     <g id="line2d_9">
      <path d="M 298.365573 258.28 
L 298.365573 7.2 
" clip-path="url(#pd099a585dd)" style="fill: none; stroke: #e8e2d6; stroke-opacity: 0.8; stroke-width: 0.8; stroke-linecap: square"/>
     </g>
     <g id="line2d_10">
      <g>
       <use xlink:href="#mf3baa95ecf" x="298.365573" y="258.28" style="stroke: #000000; stroke-width: 0.8"/>
      </g>
     </g>
     <g id="text_5">
      <text style="font-size: 9px; font-family: 'Arial', 'Helvetica', 'DejaVu Sans', sans-serif; text-anchor: middle" x="298.365573" y="271.722031" transform="rotate(-0 298.365573 271.722031)">20</text>
     </g>
    </g>
    <g id="xtick_6">
     <g id="line2d_11">
      <path d="M 362.30724 258.28 
L 362.30724 7.2 
" clip-path="url(#pd099a585dd)" style="fill: none; stroke: #e8e2d6; stroke-opacity: 0.8; stroke-width: 0.8; stroke-linecap: square"/>
     </g>
     <g id="line2d_12">
      <g>
       <use xlink:href="#mf3baa95ecf" x="362.30724" y="258.28" style="stroke: #000000; stroke-width: 0.8"/>
      </g>
     </g>
     <g id="text_6">
      <text style="font-size: 9px; font-family: 'Arial', 'Helvetica', 'DejaVu Sans', sans-serif; text-anchor: middle" x="362.30724" y="271.722031" transform="rotate(-0 362.30724 271.722031)">25</text>
     </g>
    </g>
    <g id="xtick_7">
     <g id="line2d_13">
      <path d="M 426.248906 258.28 
L 426.248906 7.2 
" clip-path="url(#pd099a585dd)" style="fill: none; stroke: #e8e2d6; stroke-opacity: 0.8; stroke-width: 0.8; stroke-linecap: square"/>
     </g>
     <g id="line2d_14">
      <g>
       <use xlink:href="#mf3baa95ecf" x="426.248906" y="258.28" style="stroke: #000000; stroke-width: 0.8"/>
      </g>
     </g>
     <g id="text_7">
      <text style="font-size: 9px; font-family: 'Arial', 'Helvetica', 'DejaVu Sans', sans-serif; text-anchor: middle" x="426.248906" y="271.722031" transform="rotate(-0 426.248906 271.722031)">30</text>
     </g>
    </g>
    <g id="text_8">
     <text style="font-size: 10px; font-family: 'Arial', 'Helvetica', 'DejaVu Sans', sans-serif; text-anchor: middle" x="234.423906" y="284.668594" transform="rotate(-0 234.423906 284.668594)">Freeze-thaw cycles</text>
    </g>
   </g>
   <g id="matplotlib.axis_2">
    <g id="ytick_1">
     <g id="line2d_15">
      <path d="M 42.598906 258.28 
L 426.248906 258.28 
" clip-path="url(#pd099a585dd)" style="fill: none; stroke: #e8e2d6; stroke-opacity: 0.8; stroke-width: 0.8; stroke-linecap: square"/>
     </g>
     <g id="line2d_16">
      <defs>
       <path id="m715fdc6dc6" d="M 0 0 
L -3.5 0 
" style="stroke: #000000; stroke-width: 0.8"/>
      </defs>
      <g>
       <use xlink:href="#m715fdc6dc6" x="42.598906" y="258.28" style="stroke: #000000; stroke-width: 0.8"/>
      </g>
     </g>
     <g id="text_9">
      <text style="font-size: 9px; font-family: 'Arial', 'Helvetica', 'DejaVu Sans', sans-serif; text-anchor: end" x="35.598906" y="261.501016" transform="rotate(-0 35.598906 261.501016)">50</text>
     </g>
    </g>
    <g id="ytick_2">
     <g id="line2d_17">
      <path d="M 42.598906 212.629091 
L 426.248906 212.629091 
" clip-path="url(#pd099a585dd)" style="fill: none; stroke: #e8e2d6; stroke-opacity: 0.8; stroke-width: 0.8; stroke-linecap: square"/>
     </g>
     <g id="line2d_18">
      <g>
       <use xlink:href="#m715fdc6dc6" x="42.598906" y="212.629091" style="stroke: #000000; stroke-width: 0.8"/>
      </g>
     </g>
     <g id="text_10">
      <text style="font-size: 9px; font-family: 'Arial', 'Helvetica', 'DejaVu Sans', sans-serif; text-anchor: end" x="35.598906" y="215.850107" transform="rotate(-0 35.598906 215.850107)">60</text>
     </g>
    </g>
    <g id="ytick_3">
     <g id="line2d_19">
      <path d="M 42.598906 166.978182 
L 426.248906 166.978182 
" clip-path="url(#pd099a585dd)" style="fill: none; stroke: #e8e2d6; stroke-opacity: 0.8; stroke-width: 0.8; stroke-linecap: square"/>
     </g>
     <g id="line2d_20">
      <g>
       <use xlink:href="#m715fdc6dc6" x="42.598906" y="166.978182" style="stroke: #000000; stroke-width: 0.8"/>
      </g>
     </g>
     <g id="text_11">
      <text style="font-size: 9px; font-family: 'Arial', 'Helvetica', 'DejaVu Sans', sans-serif; text-anchor: end" x="35.598906" y="170.199197" transform="rotate(-0 35.598906 170.199197)">70</text>
     </g>
    </g>
    <g id="ytick_4">
     <g id="line2d_21">
      <path d="M 42.598906 121.327273 
L 426.248906 121.327273 
" clip-path="url(#pd099a585dd)" style="fill: none; stroke: #e8e2d6; stroke-opacity: 0.8; stroke-width: 0.8; stroke-linecap: square"/>
     </g>
     <g id="line2d_22">
      <g>
       <use xlink:href="#m715fdc6dc6" x="42.598906" y="121.327273" style="stroke: #000000; stroke-width: 0.8"/>
      </g>
     </g>
     <g id="text_12">
      <text style="font-size: 9px; font-family: 'Arial', 'Helvetica', 'DejaVu Sans', sans-serif; text-anchor: end" x="35.598906" y="124.548288" transform="rotate(-0 35.598906 124.548288)">80</text>
     </g>
    </g>
    <g id="ytick_5">
     <g id="line2d_23">
      <path d="M 42.598906 75.676364 
L 426.248906 75.676364 
" clip-path="url(#pd099a585dd)" style="fill: none; stroke: #e8e2d6; stroke-opacity: 0.8; stroke-width: 0.8; stroke-linecap: square"/>
     </g>
     <g id="line2d_24">
      <g>
       <use xlink:href="#m715fdc6dc6" x="42.598906" y="75.676364" style="stroke: #000000; stroke-width: 0.8"/>
      </g>
     </g>
     <g id="text_13">
      <text style="font-size: 9px; font-family: 'Arial', 'Helvetica', 'DejaVu Sans', sans-serif; text-anchor: end" x="35.598906" y="78.897379" transform="rotate(-0 35.598906 78.897379)">90</text>
     </g>
    </g>
    <g id="ytick_6">
     <g id="line2d_25">
      <path d="M 42.598906 30.025455 
L 426.248906 30.025455 
" clip-path="url(#pd099a585dd)" style="fill: none; stroke: #e8e2d6; stroke-opacity: 0.8; stroke-width: 0.8; stroke-linecap: square"/>
     </g>
     <g id="line2d_26">
      <g>
       <use xlink:href="#m715fdc6dc6" x="42.598906" y="30.025455" style="stroke: #000000; stroke-width: 0.8"/>
      </g>
     </g>
     <g id="text_14">
      <text style="font-size: 9px; font-family: 'Arial', 'Helvetica', 'DejaVu Sans', sans-serif; text-anchor: end" x="35.598906" y="33.24647" transform="rotate(-0 35.598906 33.24647)">100</text>
     </g>
    </g>
    <g id="text_15">
     <text style="font-size: 10px; font-family: 'Arial', 'Helvetica', 'DejaVu Sans', sans-serif; text-anchor: middle" x="14.479688" y="132.74" transform="rotate(-90 14.479688 132.74)">Strength retention (%)</text>
    </g>
   </g>
   <g id="line2d_27">
    <path d="M 42.598906 30.025455 
L 106.540573 64.263636 
L 170.48224 97.5888 
L 234.423906 126.805382 
L 298.365573 155.565455 
L 362.30724 184.325527 
L 426.248906 212.629091 
" clip-path="url(#pd099a585dd)" style="fill: none; stroke: #4b6f8a; stroke-width: 2.2; stroke-linecap: square"/>
    <defs>
     <path id="m478a13221e" d="M 0 3 
C 0.795609 3 1.55874 2.683901 2.12132 2.12132 
C 2.683901 1.55874 3 0.795609 3 0 
C 3 -0.795609 2.683901 -1.55874 2.12132 -2.12132 
C 1.55874 -2.683901 0.795609 -3 0 -3 
C -0.795609 -3 -1.55874 -2.683901 -2.12132 -2.12132 
C -2.683901 -1.55874 -3 -0.795609 -3 0 
C -3 0.795609 -2.683901 1.55874 -2.12132 2.12132 
C -1.55874 2.683901 -0.795609 3 0 3 
z
" style="stroke: #4b6f8a"/>
    </defs>
    <g clip-path="url(#pd099a585dd)">
     <use xlink:href="#m478a13221e" x="42.598906" y="30.025455" style="fill: #4b6f8a; stroke: #4b6f8a"/>
     <use xlink:href="#m478a13221e" x="106.540573" y="64.263636" style="fill: #4b6f8a; stroke: #4b6f8a"/>
     <use xlink:href="#m478a13221e" x="170.48224" y="97.5888" style="fill: #4b6f8a; stroke: #4b6f8a"/>
     <use xlink:href="#m478a13221e" x="234.423906" y="126.805382" style="fill: #4b6f8a; stroke: #4b6f8a"/>
     <use xlink:href="#m478a13221e" x="298.365573" y="155.565455" style="fill: #4b6f8a; stroke: #4b6f8a"/>
     <use xlink:href="#m478a13221e" x="362.30724" y="184.325527" style="fill: #4b6f8a; stroke: #4b6f8a"/>
     <use xlink:href="#m478a13221e" x="426.248906" y="212.629091" style="fill: #4b6f8a; stroke: #4b6f8a"/>
    </g>
   </g>
   <g id="line2d_28">
    <path d="M 42.598906 30.025455 
L 106.540573 51.937891 
L 170.48224 73.393818 
L 234.423906 94.849745 
L 298.365573 115.849164 
L 362.30724 137.305091 
L 426.248906 157.848 
" clip-path="url(#pd099a585dd)" style="fill: none; stroke: #c47b45; stroke-width: 2.2; stroke-linecap: square"/>
    <defs>
     <path id="m5785896b25" d="M 0 3 
C 0.795609 3 1.55874 2.683901 2.12132 2.12132 
C 2.683901 1.55874 3 0.795609 3 0 
C 3 -0.795609 2.683901 -1.55874 2.12132 -2.12132 
C 1.55874 -2.683901 0.795609 -3 0 -3 
C -0.795609 -3 -1.55874 -2.683901 -2.12132 -2.12132 
C -2.683901 -1.55874 -3 -0.795609 -3 0 
C -3 0.795609 -2.683901 1.55874 -2.12132 2.12132 
C -1.55874 2.683901 -0.795609 3 0 3 
z
" style="stroke: #c47b45"/>
    </defs>
    <g clip-path="url(#pd099a585dd)">
     <use xlink:href="#m5785896b25" x="42.598906" y="30.025455" style="fill: #c47b45; stroke: #c47b45"/>
     <use xlink:href="#m5785896b25" x="106.540573" y="51.937891" style="fill: #c47b45; stroke: #c47b45"/>
     <use xlink:href="#m5785896b25" x="170.48224" y="73.393818" style="fill: #c47b45; stroke: #c47b45"/>
     <use xlink:href="#m5785896b25" x="234.423906" y="94.849745" style="fill: #c47b45; stroke: #c47b45"/>
     <use xlink:href="#m5785896b25" x="298.365573" y="115.849164" style="fill: #c47b45; stroke: #c47b45"/>
     <use xlink:href="#m5785896b25" x="362.30724" y="137.305091" style="fill: #c47b45; stroke: #c47b45"/>
     <use xlink:href="#m5785896b25" x="426.248906" y="157.848" style="fill: #c47b45; stroke: #c47b45"/>
    </g>
   </g>
   <g id="line2d_29">
    <path d="M 42.598906 30.025455 
L 106.540573 44.633745 
L 170.48224 59.698545 
L 234.423906 74.763345 
L 298.365573 89.371636 
L 362.30724 103.979927 
L 426.248906 119.044727 
" clip-path="url(#pd099a585dd)" style="fill: none; stroke: #4f7c6a; stroke-width: 2.2; stroke-linecap: square"/>
    <defs>
     <path id="mb3126c9990" d="M 0 3 
C 0.795609 3 1.55874 2.683901 2.12132 2.12132 
C 2.683901 1.55874 3 0.795609 3 0 
C 3 -0.795609 2.683901 -1.55874 2.12132 -2.12132 
C 1.55874 -2.683901 0.795609 -3 0 -3 
C -0.795609 -3 -1.55874 -2.683901 -2.12132 -2.12132 
C -2.683901 -1.55874 -3 -0.795609 -3 0 
C -3 0.795609 -2.683901 1.55874 -2.12132 2.12132 
C -1.55874 2.683901 -0.795609 3 0 3 
z
" style="stroke: #4f7c6a"/>
    </defs>
    <g clip-path="url(#pd099a585dd)">
     <use xlink:href="#mb3126c9990" x="42.598906" y="30.025455" style="fill: #4f7c6a; stroke: #4f7c6a"/>
     <use xlink:href="#mb3126c9990" x="106.540573" y="44.633745" style="fill: #4f7c6a; stroke: #4f7c6a"/>
     <use xlink:href="#mb3126c9990" x="170.48224" y="59.698545" style="fill: #4f7c6a; stroke: #4f7c6a"/>
     <use xlink:href="#mb3126c9990" x="234.423906" y="74.763345" style="fill: #4f7c6a; stroke: #4f7c6a"/>
     <use xlink:href="#mb3126c9990" x="298.365573" y="89.371636" style="fill: #4f7c6a; stroke: #4f7c6a"/>
     <use xlink:href="#mb3126c9990" x="362.30724" y="103.979927" style="fill: #4f7c6a; stroke: #4f7c6a"/>
     <use xlink:href="#mb3126c9990" x="426.248906" y="119.044727" style="fill: #4f7c6a; stroke: #4f7c6a"/>
    </g>
   </g>
   <g id="line2d_30">
    <path d="M 42.598906 30.025455 
L 106.540573 41.438182 
L 170.48224 52.850909 
L 234.423906 64.263636 
L 298.365573 75.676364 
L 362.30724 87.089091 
L 426.248906 98.501818 
" clip-path="url(#pd099a585dd)" style="fill: none; stroke: #8b6f47; stroke-width: 2.2; stroke-linecap: square"/>
    <defs>
     <path id="mb5b68074c3" d="M 0 3 
C 0.795609 3 1.55874 2.683901 2.12132 2.12132 
C 2.683901 1.55874 3 0.795609 3 0 
C 3 -0.795609 2.683901 -1.55874 2.12132 -2.12132 
C 1.55874 -2.683901 0.795609 -3 0 -3 
C -0.795609 -3 -1.55874 -2.683901 -2.12132 -2.12132 
C -2.683901 -1.55874 -3 -0.795609 -3 0 
C -3 0.795609 -2.683901 1.55874 -2.12132 2.12132 
C -1.55874 2.683901 -0.795609 3 0 3 
z
" style="stroke: #8b6f47"/>
    </defs>
    <g clip-path="url(#pd099a585dd)">
     <use xlink:href="#mb5b68074c3" x="42.598906" y="30.025455" style="fill: #8b6f47; stroke: #8b6f47"/>
     <use xlink:href="#mb5b68074c3" x="106.540573" y="41.438182" style="fill: #8b6f47; stroke: #8b6f47"/>
     <use xlink:href="#mb5b68074c3" x="170.48224" y="52.850909" style="fill: #8b6f47; stroke: #8b6f47"/>
     <use xlink:href="#mb5b68074c3" x="234.423906" y="64.263636" style="fill: #8b6f47; stroke: #8b6f47"/>
     <use xlink:href="#mb5b68074c3" x="298.365573" y="75.676364" style="fill: #8b6f47; stroke: #8b6f47"/>
     <use xlink:href="#mb5b68074c3" x="362.30724" y="87.089091" style="fill: #8b6f47; stroke: #8b6f47"/>
     <use xlink:href="#mb5b68074c3" x="426.248906" y="98.501818" style="fill: #8b6f47; stroke: #8b6f47"/>
    </g>
   </g>
   <g id="line2d_31">
    <path d="M 42.598906 121.327273 
L 426.248906 121.327273 
" clip-path="url(#pd099a585dd)" style="fill: none; stroke-dasharray: 1.2,1.98; stroke-dashoffset: 0; stroke: #b85450; stroke-width: 1.2"/>
   </g>
   <g id="patch_3">
    <path d="M 42.598906 258.28 
L 42.598906 7.2 
" style="fill: none; stroke: #000000; stroke-width: 1.4; stroke-linejoin: miter; stroke-linecap: square"/>
   </g>
   <g id="patch_4">
    <path d="M 42.598906 258.28 
L 426.248906 258.28 
" style="fill: none; stroke: #000000; stroke-width: 1.4; stroke-linejoin: miter; stroke-linecap: square"/>
   </g>
   <g id="text_16">
    <text style="font-weight: 700; font-size: 12px; font-family: 'Arial', 'Helvetica', 'DejaVu Sans', sans-serif; text-anchor: start" x="50.271906" y="20.957225" transform="rotate(-0 50.271906 20.957225)">(a)</text>
   </g>
   <g id="legend_1">
    <g id="line2d_32">
     <path d="M 333.105156 19.857812 
L 343.105156 19.857812 
L 353.105156 19.857812 
" style="fill: none; stroke: #4b6f8a; stroke-width: 2.2; stroke-linecap: square"/>
     <g>
      <use xlink:href="#m478a13221e" x="343.105156" y="19.857812" style="fill: #4b6f8a; stroke: #4b6f8a"/>
     </g>
    </g>
    <g id="text_17">
     <text style="font-size: 10px; font-family: 'Arial', 'Helvetica', 'DejaVu Sans', sans-serif; text-anchor: start" x="361.105156" y="23.357812" transform="rotate(-0 361.105156 23.357812)">Pure asphalt</text>
    </g>
    <g id="line2d_33">
     <path d="M 333.105156 34.003125 
L 343.105156 34.003125 
L 353.105156 34.003125 
" style="fill: none; stroke: #c47b45; stroke-width: 2.2; stroke-linecap: square"/>
     <g>
      <use xlink:href="#m5785896b25" x="343.105156" y="34.003125" style="fill: #c47b45; stroke: #c47b45"/>
     </g>
    </g>
    <g id="text_18">
     <text style="font-size: 10px; font-family: 'Arial', 'Helvetica', 'DejaVu Sans', sans-serif; text-anchor: start" x="361.105156" y="37.503125" transform="rotate(-0 361.105156 37.503125)">5% WER</text>
    </g>
    <g id="line2d_34">
     <path d="M 333.105156 48.148437 
L 343.105156 48.148437 
L 353.105156 48.148437 
" style="fill: none; stroke: #4f7c6a; stroke-width: 2.2; stroke-linecap: square"/>
     <g>
      <use xlink:href="#mb3126c9990" x="343.105156" y="48.148437" style="fill: #4f7c6a; stroke: #4f7c6a"/>
     </g>
    </g>
    <g id="text_19">
     <text style="font-size: 10px; font-family: 'Arial', 'Helvetica', 'DejaVu Sans', sans-serif; text-anchor: start" x="361.105156" y="51.648437" transform="rotate(-0 361.105156 51.648437)">10% WER</text>
    </g>
    <g id="line2d_35">
     <path d="M 333.105156 62.29375 
L 343.105156 62.29375 
L 353.105156 62.29375 
" style="fill: none; stroke: #8b6f47; stroke-width: 2.2; stroke-linecap: square"/>
     <g>
      <use xlink:href="#mb5b68074c3" x="343.105156" y="62.29375" style="fill: #8b6f47; stroke: #8b6f47"/>
     </g>
    </g>
    <g id="text_20">
     <text style="font-size: 10px; font-family: 'Arial', 'Helvetica', 'DejaVu Sans', sans-serif; text-anchor: start" x="361.105156" y="65.79375" transform="rotate(-0 361.105156 65.79375)">15% WER</text>
    </g>
   </g>
  </g>
 </g>
 <defs>
  <clipPath id="pd099a585dd">
   <rect x="42.598906" y="7.2" width="383.65" height="251.08"/>
  </clipPath>
 </defs>
</svg>
