<?xml version="1.0" encoding="utf-8" standalone="no"?>
<!DOCTYPE svg PUBLIC "-//W3C//DTD SVG 1.1//EN"
  "http://www.w3.org/Graphics/SVG/1.1/DTD/svg11.dtd">
<svg xmlns:xlink="http://www.w3.org/1999/xlink" width="328.432452pt" height="295.708933pt" viewBox="0 0 328.432452 295.708933" xmlns="http://www.w3.org/2000/svg" version="1.1">
 <metadata>
  <rdf:RDF xmlns:dc="http://purl.org/dc/elements/1.1/" xmlns:cc="http://creativecommons.org/ns#" xmlns:rdf="http://www.w3.org/1999/02/22-rdf-syntax-ns#">
   <cc:Work>
    <dc:type rdf:resource="http://purl.org/dc/dcmitype/StillImage"/>
    <dc:date>2026-06-11T18:16:47.252295</dc:date>
    <dc:format>image/svg+xml</dc:format>
    <dc:creator>
     <cc:Agent>
      <dc:title>Matplotlib v3.10.9, https://matplotlib.org/</dc:title>
     </cc:Agent>
    </dc:creator>
   </cc:Work>
  </rdf:RDF>
 </metadata>
 <defs>
  <style type="text/css">*{stroke-linejoin: round; stroke-linecap: butt}</style>
 </defs>
 <g id="figure_1">
  <g id="patch_1">
   <path d="M 0 295.708933 
L 328.432452 295.708933 
L 328.432452 0 
L 0 0 
z
" style="fill: #ffffff"/>
  </g>
  <g id="axes_1">
   <g id="patch_2">
    <path d="M 266.533557 157.417127 
C 266.533557 141.737953 263.445101 126.211239 257.444941 111.725571 
C 251.444781 97.239903 242.649604 84.07699 231.562754 72.99014 
C 220.475903 61.90329 207.312991 53.108113 192.827323 47.107953 
C 178.341655 41.107792 162.814941 38.019337 147.135767 38.019337 
C 131.456592 38.019337 115.929879 41.107792 101.444211 47.107953 
C 86.958542 53.108113 73.79563 61.90329 62.70878 72.99014 
C 51.621929 84.07699 42.826752 97.239903 36.826592 111.725571 
C 30.826432 126.211239 27.737977 141.737953 27.737977 157.417127 
C 27.737977 173.096301 30.826432 188.623015 36.826592 203.108683 
C 42.826752 217.594351 51.621929 230.757264 62.70878 241.844114 
C 73.79563 252.930964 86.958542 261.726141 101.444211 267.726301 
C 115.929879 273.726461 131.456592 276.814917 147.135767 276.814917 
C 162.814941 276.814917 178.341655 273.726461 192.827323 267.726301 
C 207.312991 261.726141 220.475903 252.930964 231.562754 241.844114 
C 242.649604 230.757264 251.444781 217.594351 257.444941 203.108683 
C 263.445101 188.623015 266.533557 173.096301 266.533557 157.417127 
M 147.135767 157.417127 
C 147.135767 157.417127 147.135767 157.417127 147.135767 157.417127 
C 147.135767 157.417127 147.135767 157.417127 147.135767 157.417127 
C 147.135767 157.417127 147.135767 157.417127 147.135767 157.417127 
C 147.135767 157.417127 147.135767 157.417127 147.135767 157.417127 
C 147.135767 157.417127 147.135767 157.417127 147.135767 157.417127 
C 147.135767 157.417127 147.135767 157.417127 147.135767 157.417127 
C 147.135767 157.417127 147.135767 157.417127 147.135767 157.417127 
C 147.135767 157.417127 147.135767 157.417127 147.135767 157.417127 
C 147.135767 157.417127 147.135767 157.417127 147.135767 157.417127 
C 147.135767 157.417127 147.135767 157.417127 147.135767 157.417127 
C 147.135767 157.417127 147.135767 157.417127 147.135767 157.417127 
C 147.135767 157.417127 147.135767 157.417127 147.135767 157.417127 
C 147.135767 157.417127 147.135767 157.417127 147.135767 157.417127 
C 147.135767 157.417127 147.135767 157.417127 147.135767 157.417127 
C 147.135767 157.417127 147.135767 157.417127 147.135767 157.417127 
C 147.135767 157.417127 147.135767 157.417127 147.135767 157.417127 
z
" style="fill: #ffffff"/>
   </g>
   <g id="patch_3">
    <path d="M 221.162396 157.417127 
L 168.535415 91.55578 
L 76.621533 106.185537 
L 69.859894 213.561335 
L 170.749172 230.091716 
z
" clip-path="url(#p7a8e3ea37b)" style="fill: #4b6f8a; opacity: 0.18; stroke: #4b6f8a; stroke-linejoin: miter"/>
   </g>
   <g id="patch_4">
    <path d="M 252.205822 157.417127 
L 177.390442 64.302809 
L 64.064203 97.062103 
L 77.587481 207.946914 
L 175.914605 245.989283 
z
" clip-path="url(#p7a8e3ea37b)" style="fill: #c47b45; opacity: 0.18; stroke: #c47b45; stroke-linejoin: miter"/>
   </g>
   <g id="matplotlib.axis_1">
    <g id="xtick_1">
     <g id="line2d_1">
      <path d="M 147.135767 157.417127 
L 266.533557 157.417127 
" clip-path="url(#p7a8e3ea37b)" style="fill: none; stroke: #b0b0b0; stroke-width: 0.8; stroke-linecap: square"/>
     </g>
     <g id="text_1">
      <text style="font-size: 9px; font-family: 'Arial', 'Helvetica', 'DejaVu Sans', sans-serif; text-anchor: middle" x="280.533557" y="159.691033" transform="rotate(-0 280.533557 159.691033)">Bond strength</text>
     </g>
    </g>
    <g id="xtick_2">
     <g id="line2d_2">
      <path d="M 147.135767 157.417127 
L 184.031713 43.863081 
" clip-path="url(#p7a8e3ea37b)" style="fill: none; stroke: #b0b0b0; stroke-width: 0.8; stroke-linecap: square"/>
     </g>
     <g id="text_2">
      <text style="font-size: 9px; font-family: 'Arial', 'Helvetica', 'DejaVu Sans', sans-serif; text-anchor: middle" x="188.357951" y="32.87493" transform="rotate(-0 188.357951 32.87493)">Moisture retention</text>
     </g>
    </g>
    <g id="xtick_3">
     <g id="line2d_3">
      <path d="M 147.135767 157.417127 
L 50.540925 87.236867 
" clip-path="url(#p7a8e3ea37b)" style="fill: none; stroke: #b0b0b0; stroke-width: 0.8; stroke-linecap: square"/>
     </g>
     <g id="text_3">
      <text style="font-size: 9px; font-family: 'Arial', 'Helvetica', 'DejaVu Sans', sans-serif; text-anchor: middle" x="39.214688" y="81.336623" transform="rotate(-0 39.214688 81.336623)">Storage stability</text>
     </g>
    </g>
    <g id="xtick_4">
     <g id="line2d_4">
      <path d="M 147.135767 157.417127 
L 50.540925 227.597387 
" clip-path="url(#p7a8e3ea37b)" style="fill: none; stroke: #b0b0b0; stroke-width: 0.8; stroke-linecap: square"/>
     </g>
     <g id="text_4">
      <text style="font-size: 9px; font-family: 'Arial', 'Helvetica', 'DejaVu Sans', sans-serif; text-anchor: middle" x="39.214687" y="238.155131" transform="rotate(-0 39.214687 238.155131)">Constructability</text>
     </g>
    </g>
    <g id="xtick_5">
     <g id="line2d_5">
      <path d="M 147.135767 157.417127 
L 184.031713 270.971173 
" clip-path="url(#p7a8e3ea37b)" style="fill: none; stroke: #b0b0b0; stroke-width: 0.8; stroke-linecap: square"/>
     </g>
     <g id="text_5">
      <text style="font-size: 9px; font-family: 'Arial', 'Helvetica', 'DejaVu Sans', sans-serif; text-anchor: middle" x="188.357951" y="286.614714" transform="rotate(-0 188.357951 286.614714)">Low-temp flexibility</text>
     </g>
    </g>
   </g>
   <g id="matplotlib.axis_2">
    <g id="ytick_1">
     <g id="line2d_6">
      <path d="M 147.135767 157.417127 
C 147.135767 157.417127 147.135767 157.417127 147.135767 157.417127 
C 147.135767 157.417127 147.135767 157.417127 147.135767 157.417127 
C 147.135767 157.417127 147.135767 157.417127 147.135767 157.417127 
C 147.135767 157.417127 147.135767 157.417127 147.135767 157.417127 
C 147.135767 157.417127 147.135767 157.417127 147.135767 157.417127 
C 147.135767 157.417127 147.135767 157.417127 147.135767 157.417127 
C 147.135767 157.417127 147.135767 157.417127 147.135767 157.417127 
C 147.135767 157.417127 147.135767 157.417127 147.135767 157.417127 
C 147.135767 157.417127 147.135767 157.417127 147.135767 157.417127 
C 147.135767 157.417127 147.135767 157.417127 147.135767 157.417127 
C 147.135767 157.417127 147.135767 157.417127 147.135767 157.417127 
C 147.135767 157.417127 147.135767 157.417127 147.135767 157.417127 
C 147.135767 157.417127 147.135767 157.417127 147.135767 157.417127 
C 147.135767 157.417127 147.135767 157.417127 147.135767 157.417127 
C 147.135767 157.417127 147.135767 157.417127 147.135767 157.417127 
C 147.135767 157.417127 147.135767 157.417127 147.135767 157.417127 
" clip-path="url(#p7a8e3ea37b)" style="fill: none; stroke: #b0b0b0; stroke-width: 0.8; stroke-linecap: square"/>
     </g>
     <g id="text_6">
      <text style="font-size: 9px; font-family: 'Arial', 'Helvetica', 'DejaVu Sans', sans-serif; text-anchor: start" x="147.135767" y="155.628377" transform="rotate(-0 147.135767 155.628377)">0.00</text>
     </g>
    </g>
    <g id="ytick_2">
     <g id="line2d_7">
      <path d="M 176.985214 157.417127 
C 176.985214 153.497333 176.2131 149.615655 174.71306 145.994238 
C 173.21302 142.372821 171.014226 139.082093 168.242513 136.31038 
C 165.470801 133.538668 162.180073 131.339873 158.558656 129.839833 
C 154.937239 128.339793 151.05556 127.567679 147.135767 127.567679 
C 143.215973 127.567679 139.334295 128.339793 135.712878 129.839833 
C 132.091461 131.339873 128.800732 133.538668 126.02902 136.31038 
C 123.257307 139.082093 121.058513 142.372821 119.558473 145.994238 
C 118.058433 149.615655 117.286319 153.497333 117.286319 157.417127 
C 117.286319 161.33692 118.058433 165.218599 119.558473 168.840016 
C 121.058513 172.461433 123.257307 175.752161 126.02902 178.523874 
C 128.800732 181.295586 132.091461 183.49438 135.712878 184.994421 
C 139.334295 186.494461 143.215973 187.266574 147.135767 187.266574 
C 151.05556 187.266574 154.937239 186.494461 158.558656 184.994421 
C 162.180073 183.49438 165.470801 181.295586 168.242513 178.523874 
C 171.014226 175.752161 173.21302 172.461433 174.71306 168.840016 
C 176.2131 165.218599 176.985214 161.33692 176.985214 157.417127 
" clip-path="url(#p7a8e3ea37b)" style="fill: none; stroke: #b0b0b0; stroke-width: 0.8; stroke-linecap: square"/>
     </g>
     <g id="text_7">
      <text style="font-size: 9px; font-family: 'Arial', 'Helvetica', 'DejaVu Sans', sans-serif; text-anchor: start" x="174.71306" y="144.205488" transform="rotate(-0 174.71306 144.205488)">0.25</text>
     </g>
    </g>
    <g id="ytick_3">
     <g id="line2d_8">
      <path d="M 206.834662 157.417127 
C 206.834662 149.57754 205.290434 141.814183 202.290354 134.571349 
C 199.290274 127.328515 194.892685 120.747059 189.34926 115.203633 
C 183.805835 109.660208 177.224379 105.26262 169.981545 102.26254 
C 162.738711 99.26246 154.975354 97.718232 147.135767 97.718232 
C 139.29618 97.718232 131.532823 99.26246 124.289989 102.26254 
C 117.047155 105.26262 110.465698 109.660208 104.922273 115.203633 
C 99.378848 120.747059 94.981259 127.328515 91.981179 134.571349 
C 88.981099 141.814183 87.436872 149.57754 87.436872 157.417127 
C 87.436872 165.256714 88.981099 173.020071 91.981179 180.262905 
C 94.981259 187.505739 99.378848 194.087195 104.922273 199.63062 
C 110.465698 205.174046 117.047155 209.571634 124.289989 212.571714 
C 131.532823 215.571794 139.29618 217.116022 147.135767 217.116022 
C 154.975354 217.116022 162.738711 215.571794 169.981545 212.571714 
C 177.224379 209.571634 183.805835 205.174046 189.34926 199.63062 
C 194.892685 194.087195 199.290274 187.505739 202.290354 180.262905 
C 205.290434 173.020071 206.834662 165.256714 206.834662 157.417127 
" clip-path="url(#p7a8e3ea37b)" style="fill: none; stroke: #b0b0b0; stroke-width: 0.8; stroke-linecap: square"/>
     </g>
     <g id="text_8">
      <text style="font-size: 9px; font-family: 'Arial', 'Helvetica', 'DejaVu Sans', sans-serif; text-anchor: start" x="202.290354" y="132.782599" transform="rotate(-0 202.290354 132.782599)">0.50</text>
     </g>
    </g>
    <g id="ytick_4">
     <g id="line2d_9">
      <path d="M 236.684109 157.417127 
C 236.684109 145.657746 234.367767 134.012711 229.867647 123.14846 
C 225.367527 112.284209 218.771145 102.412025 210.456007 94.096887 
C 202.140869 85.781749 192.268685 79.185366 181.404434 74.685246 
C 170.540183 70.185126 158.895147 67.868784 147.135767 67.868784 
C 135.376386 67.868784 123.731351 70.185126 112.8671 74.685246 
C 102.002848 79.185366 92.130664 85.781749 83.815526 94.096887 
C 75.500389 102.412025 68.904006 112.284209 64.403886 123.14846 
C 59.903766 134.012711 57.587424 145.657746 57.587424 157.417127 
C 57.587424 169.176508 59.903766 180.821543 64.403886 191.685794 
C 68.904006 202.550045 75.500389 212.422229 83.815526 220.737367 
C 92.130664 229.052505 102.002848 235.648888 112.8671 240.149008 
C 123.731351 244.649128 135.376386 246.965469 147.135767 246.965469 
C 158.895147 246.965469 170.540183 244.649128 181.404434 240.149008 
C 192.268685 235.648888 202.140869 229.052505 210.456007 220.737367 
C 218.771145 212.422229 225.367527 202.550045 229.867647 191.685794 
C 234.367767 180.821543 236.684109 169.176508 236.684109 157.417127 
" clip-path="url(#p7a8e3ea37b)" style="fill: none; stroke: #b0b0b0; stroke-width: 0.8; stroke-linecap: square"/>
     </g>
     <g id="text_9">
      <text style="font-size: 9px; font-family: 'Arial', 'Helvetica', 'DejaVu Sans', sans-serif; text-anchor: start" x="229.867647" y="121.35971" transform="rotate(-0 229.867647 121.35971)">0.75</text>
     </g>
    </g>
    <g id="ytick_5">
     <g id="line2d_10">
      <path d="M 266.533557 157.417127 
C 266.533557 141.737953 263.445101 126.211239 257.444941 111.725571 
C 251.444781 97.239903 242.649604 84.07699 231.562754 72.99014 
C 220.475903 61.90329 207.312991 53.108113 192.827323 47.107953 
C 178.341655 41.107792 162.814941 38.019337 147.135767 38.019337 
C 131.456592 38.019337 115.929879 41.107792 101.444211 47.107953 
C 86.958542 53.108113 73.79563 61.90329 62.70878 72.99014 
C 51.621929 84.07699 42.826752 97.239903 36.826592 111.725571 
C 30.826432 126.211239 27.737977 141.737953 27.737977 157.417127 
C 27.737977 173.096301 30.826432 188.623015 36.826592 203.108683 
C 42.826752 217.594351 51.621929 230.757264 62.70878 241.844114 
C 73.79563 252.930964 86.958542 261.726141 101.444211 267.726301 
C 115.929879 273.726461 131.456592 276.814917 147.135767 276.814917 
C 162.814941 276.814917 178.341655 273.726461 192.827323 267.726301 
C 207.312991 261.726141 220.475903 252.930964 231.562754 241.844114 
C 242.649604 230.757264 251.444781 217.594351 257.444941 203.108683 
C 263.445101 188.623015 266.533557 173.096301 266.533557 157.417127 
" clip-path="url(#p7a8e3ea37b)" style="fill: none; stroke: #b0b0b0; stroke-width: 0.8; stroke-linecap: square"/>
     </g>
     <g id="text_10">
      <text style="font-size: 9px; font-family: 'Arial', 'Helvetica', 'DejaVu Sans', sans-serif; text-anchor: start" x="257.444941" y="109.936821" transform="rotate(-0 257.444941 109.936821)">1.00</text>
     </g>
    </g>
   </g>
   <g id="line2d_11">
    <path d="M 221.162396 157.417127 
L 168.535415 91.55578 
L 76.621533 106.185537 
L 69.859894 213.561335 
L 170.749172 230.091716 
L 221.162396 157.417127 
" clip-path="url(#p7a8e3ea37b)" style="fill: none; stroke: #4b6f8a; stroke-width: 2; stroke-linecap: square"/>
   </g>
   <g id="line2d_12">
    <path d="M 252.205822 157.417127 
L 177.390442 64.302809 
L 64.064203 97.062103 
L 77.587481 207.946914 
L 175.914605 245.989283 
L 252.205822 157.417127 
" clip-path="url(#p7a8e3ea37b)" style="fill: none; stroke: #c47b45; stroke-width: 2; stroke-linecap: square"/>
   </g>
   <g id="patch_5">
    <path d="M 266.533557 157.417127 
C 266.533557 141.737953 263.445101 126.211239 257.444941 111.725571 
C 251.444781 97.239903 242.649604 84.07699 231.562754 72.99014 
C 220.475903 61.90329 207.312991 53.108113 192.827323 47.107953 
C 178.341655 41.107792 162.814941 38.019337 147.135767 38.019337 
C 131.456592 38.019337 115.929879 41.107792 101.444211 47.107953 
C 86.958542 53.108113 73.79563 61.90329 62.70878 72.99014 
C 51.621929 84.07699 42.826752 97.239903 36.826592 111.725571 
C 30.826432 126.211239 27.737977 141.737953 27.737977 157.417127 
C 27.737977 173.096301 30.826432 188.623015 36.826592 203.108683 
C 42.826752 217.594351 51.621929 230.757264 62.70878 241.844114 
C 73.79563 252.930964 86.958542 261.726141 101.444211 267.726301 
C 115.929879 273.726461 131.456592 276.814917 147.135767 276.814917 
C 162.814941 276.814917 178.341655 273.726461 192.827323 267.726301 
C 207.312991 261.726141 220.475903 252.930964 231.562754 241.844114 
C 242.649604 230.757264 251.444781 217.594351 257.444941 203.108683 
C 263.445101 188.623015 266.533557 173.096301 266.533557 157.417127 
" style="fill: none; stroke: #000000; stroke-width: 1.4; stroke-linejoin: miter; stroke-linecap: square"/>
   </g>
   <g id="text_11">
    <text style="font-weight: 700; font-size: 12px; font-family: 'Arial', 'Helvetica', 'DejaVu Sans', sans-serif; text-anchor: start" x="32.513888" y="51.530874" transform="rotate(-0 32.513888 51.530874)">(e)</text>
   </g>
   <g id="legend_1">
    <g id="line2d_13">
     <path d="M 251.437139 14.857812 
L 261.437139 14.857812 
L 271.437139 14.857812 
" style="fill: none; stroke: #4b6f8a; stroke-width: 2; stroke-linecap: square"/>
    </g>
    <g id="text_12">
     <text style="font-size: 10px; font-family: 'Arial', 'Helvetica', 'DejaVu Sans', sans-serif; text-anchor: start" x="279.437139" y="18.357812" transform="rotate(-0 279.437139 18.357812)">Control</text>
    </g>
    <g id="line2d_14">
     <path d="M 251.437139 29.003125 
L 261.437139 29.003125 
L 271.437139 29.003125 
" style="fill: none; stroke: #c47b45; stroke-width: 2; stroke-linecap: square"/>
    </g>
    <g id="text_13">
     <text style="font-size: 10px; font-family: 'Arial', 'Helvetica', 'DejaVu Sans', sans-serif; text-anchor: start" x="279.437139" y="32.503125" transform="rotate(-0 279.437139 32.503125)">Modified</text>
    </g>
   </g>
  </g>
 </g>
 <defs>
  <clipPath id="p7a8e3ea37b">
   <path d="M 266.533557 157.417127 
C 266.533557 141.737953 263.445101 126.211239 257.444941 111.725571 
C 251.444781 97.239903 242.649604 84.07699 231.562754 72.99014 
C 220.475903 61.90329 207.312991 53.108113 192.827323 47.107953 
C 178.341655 41.107792 162.814941 38.019337 147.135767 38.019337 
C 131.456592 38.019337 115.929879 41.107792 101.444211 47.107953 
C 86.958542 53.108113 73.79563 61.90329 62.70878 72.99014 
C 51.621929 84.07699 42.826752 97.239903 36.826592 111.725571 
C 30.826432 126.211239 27.737977 141.737953 27.737977 157.417127 
C 27.737977 173.096301 30.826432 188.623015 36.826592 203.108683 
C 42.826752 217.594351 51.621929 230.757264 62.70878 241.844114 
C 73.79563 252.930964 86.958542 261.726141 101.444211 267.726301 
C 115.929879 273.726461 131.456592 276.814917 147.135767 276.814917 
C 162.814941 276.814917 178.341655 273.726461 192.827323 267.726301 
C 207.312991 261.726141 220.475903 252.930964 231.562754 241.844114 
C 242.649604 230.757264 251.444781 217.594351 257.444941 203.108683 
C 263.445101 188.623015 266.533557 173.096301 266.533557 157.417127 
M 147.135767 157.417127 
C 147.135767 157.417127 147.135767 157.417127 147.135767 157.417127 
C 147.135767 157.417127 147.135767 157.417127 147.135767 157.417127 
C 147.135767 157.417127 147.135767 157.417127 147.135767 157.417127 
C 147.135767 157.417127 147.135767 157.417127 147.135767 157.417127 
C 147.135767 157.417127 147.135767 157.417127 147.135767 157.417127 
C 147.135767 157.417127 147.135767 157.417127 147.135767 157.417127 
C 147.135767 157.417127 147.135767 157.417127 147.135767 157.417127 
C 147.135767 157.417127 147.135767 157.417127 147.135767 157.417127 
C 147.135767 157.417127 147.135767 157.417127 147.135767 157.417127 
C 147.135767 157.417127 147.135767 157.417127 147.135767 157.417127 
C 147.135767 157.417127 147.135767 157.417127 147.135767 157.417127 
C 147.135767 157.417127 147.135767 157.417127 147.135767 157.417127 
C 147.135767 157.417127 147.135767 157.417127 147.135767 157.417127 
C 147.135767 157.417127 147.135767 157.417127 147.135767 157.417127 
C 147.135767 157.417127 147.135767 157.417127 147.135767 157.417127 
C 147.135767 157.417127 147.135767 157.417127 147.135767 157.417127 
z
"/>
  </clipPath>
 </defs>
</svg>
