<?xml version="1.0" encoding="utf-8" standalone="no"?>
<!DOCTYPE svg PUBLIC "-//W3C//DTD SVG 1.1//EN"
  "http://www.w3.org/Graphics/SVG/1.1/DTD/svg11.dtd">
<svg xmlns:xlink="http://www.w3.org/1999/xlink" width="410.08125pt" height="424.816875pt" viewBox="0 0 410.08125 424.816875" xmlns="http://www.w3.org/2000/svg" version="1.1">
 <metadata>
  <rdf:RDF xmlns:dc="http://purl.org/dc/elements/1.1/" xmlns:cc="http://creativecommons.org/ns#" xmlns:rdf="http://www.w3.org/1999/02/22-rdf-syntax-ns#">
   <cc:Work>
    <dc:type rdf:resource="http://purl.org/dc/dcmitype/StillImage"/>
    <dc:date>2026-06-11T18:17:02.679594</dc:date>
    <dc:format>image/svg+xml</dc:format>
    <dc:creator>
     <cc:Agent>
      <dc:title>Matplotlib v3.10.9, https://matplotlib.org/</dc:title>
     </cc:Agent>
    </dc:creator>
   </cc:Work>
  </rdf:RDF>
 </metadata>
 <defs>
  <style type="text/css">*{stroke-linejoin: round; stroke-linecap: butt}</style>
 </defs>
 <g id="figure_1">
  <g id="patch_1">
   <path d="M 0 424.816875 
L 410.08125 424.816875 
L 410.08125 0 
L 0 0 
z
" style="fill: #ffffff"/>
  </g>
  <g id="axes_1">
   <g id="patch_2">
    <path d="M 205.040625 251.43075 
C 213.435497 251.43075 221.487666 248.095432 227.423737 242.159362 
C 233.359807 236.223291 236.695125 228.171122 236.695125 219.77625 
C 236.695125 211.381378 233.359807 203.329209 227.423737 197.393138 
C 221.487666 191.457068 213.435497 188.12175 205.040625 188.12175 
C 196.645753 188.12175 188.593584 191.457068 182.657513 197.393138 
C 176.721443 203.329209 173.386125 211.381378 173.386125 219.77625 
C 173.386125 228.171122 176.721443 236.223291 182.657513 242.159362 
C 188.593584 248.095432 196.645753 251.43075 205.040625 251.43075 
z
" clip-path="url(#p6b1750acdf)" style="fill: #c47b45; opacity: 0.9; stroke: #c47b45; stroke-linejoin: miter"/>
   </g>
   <g id="patch_3">
    <path d="M 343.529063 243.517125 
C 349.825216 243.517125 355.864343 241.015637 360.316396 236.563584 
C 364.768449 232.111531 367.269938 226.072404 367.269938 219.77625 
C 367.269938 213.480096 364.768449 207.440969 360.316396 202.988916 
C 355.864343 198.536863 349.825216 196.035375 343.529063 196.035375 
C 337.232909 196.035375 331.193782 198.536863 326.741729 202.988916 
C 322.289676 207.440969 319.788188 213.480096 319.788188 219.77625 
C 319.788188 226.072404 322.289676 232.111531 326.741729 236.563584 
C 331.193782 241.015637 337.232909 243.517125 343.529063 243.517125 
z
" clip-path="url(#p6b1750acdf)" style="fill: #4b6f8a; opacity: 0.8; stroke: #4b6f8a; stroke-linejoin: miter"/>
   </g>
   <g id="patch_4">
    <path d="M 317.080124 162.115664 
C 323.376278 162.115664 329.415405 159.614175 333.867458 155.162123 
C 338.319511 150.71007 340.820999 144.670942 340.820999 138.374789 
C 340.820999 132.078635 338.319511 126.039508 333.867458 121.587455 
C 329.415405 117.135402 323.376278 114.633914 317.080124 114.633914 
C 310.783971 114.633914 304.744844 117.135402 300.292791 121.587455 
C 295.840738 126.039508 293.339249 132.078635 293.339249 138.374789 
C 293.339249 144.670942 295.840738 150.71007 300.292791 155.162123 
C 304.744844 159.614175 310.783971 162.115664 317.080124 162.115664 
z
" clip-path="url(#p6b1750acdf)" style="fill: #4b6f8a; opacity: 0.8; stroke: #4b6f8a; stroke-linejoin: miter"/>
   </g>
   <g id="patch_5">
    <path d="M 247.835906 111.806794 
C 254.132059 111.806794 260.171186 109.305306 264.623239 104.853253 
C 269.075292 100.4012 271.576781 94.362073 271.576781 88.065919 
C 271.576781 81.769765 269.075292 75.730638 264.623239 71.278585 
C 260.171186 66.826532 254.132059 64.325044 247.835906 64.325044 
C 241.539752 64.325044 235.500625 66.826532 231.048572 71.278585 
C 226.596519 75.730638 224.095031 81.769765 224.095031 88.065919 
C 224.095031 94.362073 226.596519 100.4012 231.048572 104.853253 
C 235.500625 109.305306 241.539752 111.806794 247.835906 111.806794 
z
" clip-path="url(#p6b1750acdf)" style="fill: #4b6f8a; opacity: 0.8; stroke: #4b6f8a; stroke-linejoin: miter"/>
   </g>
   <g id="patch_6">
    <path d="M 162.245344 111.806794 
C 168.541498 111.806794 174.580625 109.305306 179.032678 104.853253 
C 183.484731 100.4012 185.986219 94.362073 185.986219 88.065919 
C 185.986219 81.769765 183.484731 75.730638 179.032678 71.278585 
C 174.580625 66.826532 168.541498 64.325044 162.245344 64.325044 
C 155.949191 64.325044 149.910064 66.826532 145.458011 71.278585 
C 141.005958 75.730638 138.504469 81.769765 138.504469 88.065919 
C 138.504469 94.362073 141.005958 100.4012 145.458011 104.853253 
C 149.910064 109.305306 155.949191 111.806794 162.245344 111.806794 
z
" clip-path="url(#p6b1750acdf)" style="fill: #4b6f8a; opacity: 0.8; stroke: #4b6f8a; stroke-linejoin: miter"/>
   </g>
   <g id="patch_7">
    <path d="M 93.001126 162.115664 
C 99.297279 162.115664 105.336406 159.614175 109.788459 155.162123 
C 114.240512 150.71007 116.742001 144.670942 116.742001 138.374789 
C 116.742001 132.078635 114.240512 126.039508 109.788459 121.587455 
C 105.336406 117.135402 99.297279 114.633914 93.001126 114.633914 
C 86.704972 114.633914 80.665845 117.135402 76.213792 121.587455 
C 71.761739 126.039508 69.260251 132.078635 69.260251 138.374789 
C 69.260251 144.670942 71.761739 150.71007 76.213792 155.162123 
C 80.665845 159.614175 86.704972 162.115664 93.001126 162.115664 
z
" clip-path="url(#p6b1750acdf)" style="fill: #4b6f8a; opacity: 0.8; stroke: #4b6f8a; stroke-linejoin: miter"/>
   </g>
   <g id="patch_8">
    <path d="M 66.552188 243.517125 
C 72.848341 243.517125 78.887468 241.015637 83.339521 236.563584 
C 87.791574 232.111531 90.293063 226.072404 90.293063 219.77625 
C 90.293063 213.480096 87.791574 207.440969 83.339521 202.988916 
C 78.887468 198.536863 72.848341 196.035375 66.552188 196.035375 
C 60.256034 196.035375 54.216907 198.536863 49.764854 202.988916 
C 45.312801 207.440969 42.811313 213.480096 42.811313 219.77625 
C 42.811313 226.072404 45.312801 232.111531 49.764854 236.563584 
C 54.216907 241.015637 60.256034 243.517125 66.552188 243.517125 
z
" clip-path="url(#p6b1750acdf)" style="fill: #4b6f8a; opacity: 0.8; stroke: #4b6f8a; stroke-linejoin: miter"/>
   </g>
   <g id="patch_9">
    <path d="M 93.001126 324.918586 
C 99.297279 324.918586 105.336406 322.417098 109.788459 317.965045 
C 114.240512 313.512992 116.742001 307.473865 116.742001 301.177711 
C 116.742001 294.881558 114.240512 288.84243 109.788459 284.390377 
C 105.336406 279.938325 99.297279 277.436836 93.001126 277.436836 
C 86.704972 277.436836 80.665845 279.938325 76.213792 284.390377 
C 71.761739 288.84243 69.260251 294.881558 69.260251 301.177711 
C 69.260251 307.473865 71.761739 313.512992 76.213792 317.965045 
C 80.665845 322.417098 86.704972 324.918586 93.001126 324.918586 
z
" clip-path="url(#p6b1750acdf)" style="fill: #4b6f8a; opacity: 0.8; stroke: #4b6f8a; stroke-linejoin: miter"/>
   </g>
   <g id="patch_10">
    <path d="M 162.245344 375.227456 
C 168.541498 375.227456 174.580625 372.725968 179.032678 368.273915 
C 183.484731 363.821862 185.986219 357.782735 185.986219 351.486581 
C 185.986219 345.190427 183.484731 339.1513 179.032678 334.699247 
C 174.580625 330.247194 168.541498 327.745706 162.245344 327.745706 
C 155.949191 327.745706 149.910064 330.247194 145.458011 334.699247 
C 141.005958 339.1513 138.504469 345.190427 138.504469 351.486581 
C 138.504469 357.782735 141.005958 363.821862 145.458011 368.273915 
C 149.910064 372.725968 155.949191 375.227456 162.245344 375.227456 
z
" clip-path="url(#p6b1750acdf)" style="fill: #d4a574; opacity: 0.8; stroke: #d4a574; stroke-linejoin: miter"/>
   </g>
   <g id="patch_11">
    <path d="M 247.835906 375.227456 
C 254.132059 375.227456 260.171186 372.725968 264.623239 368.273915 
C 269.075292 363.821862 271.576781 357.782735 271.576781 351.486581 
C 271.576781 345.190427 269.075292 339.1513 264.623239 334.699247 
C 260.171186 330.247194 254.132059 327.745706 247.835906 327.745706 
C 241.539752 327.745706 235.500625 330.247194 231.048572 334.699247 
C 226.596519 339.1513 224.095031 345.190427 224.095031 351.486581 
C 224.095031 357.782735 226.596519 363.821862 231.048572 368.273915 
C 235.500625 372.725968 241.539752 375.227456 247.835906 375.227456 
z
" clip-path="url(#p6b1750acdf)" style="fill: #d4a574; opacity: 0.8; stroke: #d4a574; stroke-linejoin: miter"/>
   </g>
   <g id="patch_12">
    <path d="M 317.080124 324.918586 
C 323.376278 324.918586 329.415405 322.417098 333.867458 317.965045 
C 338.319511 313.512992 340.820999 307.473865 340.820999 301.177711 
C 340.820999 294.881558 338.319511 288.84243 333.867458 284.390377 
C 329.415405 279.938325 323.376278 277.436836 317.080124 277.436836 
C 310.783971 277.436836 304.744844 279.938325 300.292791 284.390377 
C 295.840738 288.84243 293.339249 294.881558 293.339249 301.177711 
C 293.339249 307.473865 295.840738 313.512992 300.292791 317.965045 
C 304.744844 322.417098 310.783971 324.918586 317.080124 324.918586 
z
" clip-path="url(#p6b1750acdf)" style="fill: #d4a574; opacity: 0.8; stroke: #d4a574; stroke-linejoin: miter"/>
   </g>
   <g id="line2d_1">
    <path d="M 205.040625 219.77625 
L 343.529063 219.77625 
" clip-path="url(#p6b1750acdf)" style="fill: none; stroke: #4b6f8a; stroke-opacity: 0.6; stroke-width: 2.7; stroke-linecap: square"/>
   </g>
   <g id="line2d_2">
    <path d="M 205.040625 219.77625 
L 317.080124 138.374789 
" clip-path="url(#p6b1750acdf)" style="fill: none; stroke: #4b6f8a; stroke-opacity: 0.6; stroke-width: 3; stroke-linecap: square"/>
   </g>
   <g id="line2d_3">
    <path d="M 205.040625 219.77625 
L 247.835906 88.065919 
" clip-path="url(#p6b1750acdf)" style="fill: none; stroke: #4b6f8a; stroke-opacity: 0.6; stroke-width: 2.4; stroke-linecap: square"/>
   </g>
   <g id="line2d_4">
    <path d="M 205.040625 219.77625 
L 162.245344 88.065919 
" clip-path="url(#p6b1750acdf)" style="fill: none; stroke: #4b6f8a; stroke-opacity: 0.6; stroke-width: 3; stroke-linecap: square"/>
   </g>
   <g id="line2d_5">
    <path d="M 205.040625 219.77625 
L 93.001126 138.374789 
" clip-path="url(#p6b1750acdf)" style="fill: none; stroke: #4b6f8a; stroke-opacity: 0.6; stroke-width: 2.7; stroke-linecap: square"/>
   </g>
   <g id="line2d_6">
    <path d="M 205.040625 219.77625 
L 66.552188 219.77625 
" clip-path="url(#p6b1750acdf)" style="fill: none; stroke: #4b6f8a; stroke-opacity: 0.6; stroke-width: 2.1; stroke-linecap: square"/>
   </g>
   <g id="line2d_7">
    <path d="M 205.040625 219.77625 
L 93.001126 301.177711 
" clip-path="url(#p6b1750acdf)" style="fill: none; stroke: #4b6f8a; stroke-opacity: 0.6; stroke-width: 2.4; stroke-linecap: square"/>
   </g>
   <g id="line2d_8">
    <path d="M 205.040625 219.77625 
L 162.245344 351.486581 
" clip-path="url(#p6b1750acdf)" style="fill: none; stroke: #d4a574; stroke-opacity: 0.6; stroke-width: 1.8; stroke-linecap: square"/>
   </g>
   <g id="line2d_9">
    <path d="M 205.040625 219.77625 
L 247.835906 351.486581 
" clip-path="url(#p6b1750acdf)" style="fill: none; stroke: #d4a574; stroke-opacity: 0.6; stroke-width: 2.1; stroke-linecap: square"/>
   </g>
   <g id="line2d_10">
    <path d="M 205.040625 219.77625 
L 317.080124 301.177711 
" clip-path="url(#p6b1750acdf)" style="fill: none; stroke: #d4a574; stroke-opacity: 0.6; stroke-width: 1.5; stroke-linecap: square"/>
   </g>
   <g id="text_1">
    <text style="font-weight: 700; font-size: 8px; font-family: 'Arial', 'Helvetica', 'DejaVu Sans', sans-serif" transform="translate(188.819375 217.513875)">WER-EA</text>
    <text style="font-weight: 700; font-size: 8px; font-family: 'Arial', 'Helvetica', 'DejaVu Sans', sans-serif" transform="translate(190.810625 226.081125)">System</text>
   </g>
   <g id="text_2">
    <text style="font-size: 6px; font-family: 'Arial', 'Helvetica', 'DejaVu Sans', sans-serif" transform="translate(336.529688 218.07525)">WER</text>
    <text style="font-size: 6px; font-family: 'Arial', 'Helvetica', 'DejaVu Sans', sans-serif" transform="translate(330.862031 224.509125)">(modifier)</text>
   </g>
   <g id="text_3">
    <text style="font-size: 6px; font-family: 'Arial', 'Helvetica', 'DejaVu Sans', sans-serif" transform="translate(307.074187 136.673789)">Asphalt</text>
    <text style="font-size: 6px; font-family: 'Arial', 'Helvetica', 'DejaVu Sans', sans-serif" transform="translate(306.743718 143.107664)">(binder)</text>
   </g>
   <g id="text_4">
    <text style="font-size: 6px; font-family: 'Arial', 'Helvetica', 'DejaVu Sans', sans-serif" transform="translate(230.659031 86.366325)">Curing agent</text>
    <text style="font-size: 6px; font-family: 'Arial', 'Helvetica', 'DejaVu Sans', sans-serif" transform="translate(231.502312 92.870513)">(crosslinker)</text>
   </g>
   <g id="text_5">
    <text style="font-size: 6px; font-family: 'Arial', 'Helvetica', 'DejaVu Sans', sans-serif" transform="translate(154.357219 86.364919)">Water</text>
    <text style="font-size: 6px; font-family: 'Arial', 'Helvetica', 'DejaVu Sans', sans-serif" transform="translate(151.747688 92.798794)">(carrier)</text>
   </g>
   <g id="text_6">
    <text style="font-size: 6px; font-family: 'Arial', 'Helvetica', 'DejaVu Sans', sans-serif" transform="translate(79.832532 136.673789)">Emulsifier</text>
    <text style="font-size: 6px; font-family: 'Arial', 'Helvetica', 'DejaVu Sans', sans-serif" transform="translate(79.166438 143.107664)">(stabilizer)</text>
   </g>
   <g id="text_7">
    <text style="font-size: 6px; font-family: 'Arial', 'Helvetica', 'DejaVu Sans', sans-serif" transform="translate(52.709063 218.040094)">Aggregate</text>
    <text style="font-size: 6px; font-family: 'Arial', 'Helvetica', 'DejaVu Sans', sans-serif" transform="translate(59.054063 224.544281)">(filler)</text>
   </g>
   <g id="text_8">
    <text style="font-size: 6px; font-family: 'Arial', 'Helvetica', 'DejaVu Sans', sans-serif" transform="translate(69.653157 299.478117)">Bonding interface</text>
    <text style="font-size: 6px; font-family: 'Arial', 'Helvetica', 'DejaVu Sans', sans-serif" transform="translate(78.827063 305.982305)">(adhesion)</text>
   </g>
   <g id="text_9">
    <text style="font-size: 6px; font-family: 'Arial', 'Helvetica', 'DejaVu Sans', sans-serif" transform="translate(142.071282 349.786987)">Curing process</text>
    <text style="font-size: 6px; font-family: 'Arial', 'Helvetica', 'DejaVu Sans', sans-serif" transform="translate(137.735813 356.291175)">(chemical change)</text>
   </g>
   <g id="text_10">
    <text style="font-size: 6px; font-family: 'Arial', 'Helvetica', 'DejaVu Sans', sans-serif" transform="translate(228.833718 349.785581)">Microstructure</text>
    <text style="font-size: 6px; font-family: 'Arial', 'Helvetica', 'DejaVu Sans', sans-serif" transform="translate(230.164031 356.219456)">(morphology)</text>
   </g>
   <g id="text_11">
    <text style="font-size: 6px; font-family: 'Arial', 'Helvetica', 'DejaVu Sans', sans-serif" transform="translate(304.576687 299.441555)">Durability</text>
    <text style="font-size: 6px; font-family: 'Arial', 'Helvetica', 'DejaVu Sans', sans-serif" transform="translate(298.242468 305.945742)">(performance)</text>
   </g>
   <g id="text_12">
    <text style="font-weight: 700; font-size: 12px; font-family: 'Arial', 'Helvetica', 'DejaVu Sans', sans-serif; text-anchor: start" x="15.113625" y="38.584875" transform="rotate(-0 15.113625 38.584875)">(a)</text>
   </g>
   <g id="text_13">
    <text style="font-weight: 700; font-size: 12px; font-family: 'Arial', 'Helvetica', 'DejaVu Sans', sans-serif; text-anchor: middle" x="205.040625" y="15.935625" transform="rotate(-0 205.040625 15.935625)">WER-EA System Mechanism Diagram</text>
   </g>
   <g id="legend_1">
    <g id="line2d_11">
     <path d="M 331.92375 32.061875 
L 339.92375 32.061875 
L 347.92375 32.061875 
" style="fill: none; stroke: #ffffff; stroke-width: 1.5; stroke-linecap: square"/>
     <defs>
      <path id="me2e9a4de5d" d="M 0 5 
C 1.326016 5 2.597899 4.473168 3.535534 3.535534 
C 4.473168 2.597899 5 1.326016 5 0 
C 5 -1.326016 4.473168 -2.597899 3.535534 -3.535534 
C 2.597899 -4.473168 1.326016 -5 0 -5 
C -1.326016 -5 -2.597899 -4.473168 -3.535534 -3.535534 
C -4.473168 -2.597899 -5 -1.326016 -5 0 
C -5 1.326016 -4.473168 2.597899 -3.535534 3.535534 
C -2.597899 4.473168 -1.326016 5 0 5 
z
" style="stroke: #ffffff"/>
     </defs>
     <g>
      <use xlink:href="#me2e9a4de5d" x="339.92375" y="32.061875" style="fill: #4b6f8a; stroke: #ffffff"/>
     </g>
    </g>
    <g id="text_14">
     <text style="font-size: 8px; font-family: 'Arial', 'Helvetica', 'DejaVu Sans', sans-serif; text-anchor: start" x="354.32375" y="34.861875" transform="rotate(-0 354.32375 34.861875)">Measured</text>
    </g>
    <g id="line2d_12">
     <path d="M 331.92375 43.378125 
L 339.92375 43.378125 
L 347.92375 43.378125 
" style="fill: none; stroke: #ffffff; stroke-width: 1.5; stroke-linecap: square"/>
     <defs>
      <path id="ma702fe8a33" d="M 0 5 
C 1.326016 5 2.597899 4.473168 3.535534 3.535534 
C 4.473168 2.597899 5 1.326016 5 0 
C 5 -1.326016 4.473168 -2.597899 3.535534 -3.535534 
C 2.597899 -4.473168 1.326016 -5 0 -5 
C -1.326016 -5 -2.597899 -4.473168 -3.535534 -3.535534 
C -4.473168 -2.597899 -5 -1.326016 -5 0 
C -5 1.326016 -4.473168 2.597899 -3.535534 3.535534 
C -2.597899 4.473168 -1.326016 5 0 5 
z
" style="stroke: #ffffff"/>
     </defs>
     <g>
      <use xlink:href="#ma702fe8a33" x="339.92375" y="43.378125" style="fill: #d4a574; stroke: #ffffff"/>
     </g>
    </g>
    <g id="text_15">
     <text style="font-size: 8px; font-family: 'Arial', 'Helvetica', 'DejaVu Sans', sans-serif; text-anchor: start" x="354.32375" y="46.178125" transform="rotate(-0 354.32375 46.178125)">Inferred</text>
    </g>
    <g id="line2d_13">
     <path d="M 331.92375 54.791875 
L 339.92375 54.791875 
L 347.92375 54.791875 
" style="fill: none; stroke: #ffffff; stroke-width: 1.5; stroke-linecap: square"/>
     <defs>
      <path id="md89332bcaa" d="M 0 5 
C 1.326016 5 2.597899 4.473168 3.535534 3.535534 
C 4.473168 2.597899 5 1.326016 5 0 
C 5 -1.326016 4.473168 -2.597899 3.535534 -3.535534 
C 2.597899 -4.473168 1.326016 -5 0 -5 
C -1.326016 -5 -2.597899 -4.473168 -3.535534 -3.535534 
C -4.473168 -2.597899 -5 -1.326016 -5 0 
C -5 1.326016 -4.473168 2.597899 -3.535534 3.535534 
C -2.597899 4.473168 -1.326016 5 0 5 
z
" style="stroke: #ffffff"/>
     </defs>
     <g>
      <use xlink:href="#md89332bcaa" x="339.92375" y="54.791875" style="fill: #8c8c8c; stroke: #ffffff"/>
     </g>
    </g>
    <g id="text_16">
     <text style="font-size: 8px; font-family: 'Arial', 'Helvetica', 'DejaVu Sans', sans-serif; text-anchor: start" x="354.32375" y="57.591875" transform="rotate(-0 354.32375 57.591875)">Speculative</text>
    </g>
   </g>
  </g>
 </g>
 <defs>
  <clipPath id="p6b1750acdf">
   <rect x="7.2" y="21.935625" width="395.68125" height="395.68125"/>
  </clipPath>
 </defs>
</svg>
