<svg xmlns="http://www.w3.org/2000/svg" width="960" height="620" viewBox="0 0 960 620">
<rect width="100%" height="100%" fill="#FFFFFF"/>
<text x="480.0" y="34" text-anchor="middle" font-family="Arial" font-size="18" font-weight="700">Materials Science Figure Gallery</text>
<text x="480.0" y="58" text-anchor="middle" font-family="Arial" font-size="24" font-weight="700">Bonding Strength Bar</text>
<line x1="110" y1="475" x2="870" y2="475" stroke="#2F332F" stroke-width="2"/>
<line x1="110" y1="105" x2="110" y2="475" stroke="#2F332F" stroke-width="2"/>
<text x="30.0" y="290.0" text-anchor="middle" font-family="Arial" font-size="15" font-weight="400" fill="#2F332F">Bond strength (MPa)</text>
<line x1="104" y1="475.0" x2="870" y2="475.0" stroke="#E8E2D6" stroke-width="1"/>
<text x="98.0" y="480.0" text-anchor="end" font-family="Arial" font-size="12" font-weight="400" fill="#2F332F">0.00</text>
<line x1="104" y1="382.5" x2="870" y2="382.5" stroke="#E8E2D6" stroke-width="1"/>
<text x="98.0" y="387.5" text-anchor="end" font-family="Arial" font-size="12" font-weight="400" fill="#2F332F">0.20</text>
<line x1="104" y1="290.0" x2="870" y2="290.0" stroke="#E8E2D6" stroke-width="1"/>
<text x="98.0" y="295.0" text-anchor="end" font-family="Arial" font-size="12" font-weight="400" fill="#2F332F">0.40</text>
<line x1="104" y1="197.5" x2="870" y2="197.5" stroke="#E8E2D6" stroke-width="1"/>
<text x="98.0" y="202.5" text-anchor="end" font-family="Arial" font-size="12" font-weight="400" fill="#2F332F">0.60</text>
<line x1="104" y1="105.0" x2="870" y2="105.0" stroke="#E8E2D6" stroke-width="1"/>
<text x="98.0" y="110.0" text-anchor="end" font-family="Arial" font-size="12" font-weight="400" fill="#2F332F">0.80</text>
<rect x="180" y="280.8" width="110" height="194.2" rx="4" fill="#6B7568"/>
<text x="235.0" y="270.8" text-anchor="middle" font-family="Arial" font-size="13" font-weight="400" fill="#2F332F">0.42</text>
<text x="235.0" y="505.0" text-anchor="middle" font-family="Arial" font-size="13" font-weight="400" fill="#2F332F">Control</text>
<rect x="362" y="206.8" width="110" height="268.2" rx="4" fill="#B65C38"/>
<text x="417.0" y="196.8" text-anchor="middle" font-family="Arial" font-size="13" font-weight="400" fill="#2F332F">0.58</text>
<text x="417.0" y="505.0" text-anchor="middle" font-family="Arial" font-size="13" font-weight="400" fill="#2F332F">WE-3</text>
<rect x="544" y="137.4" width="110" height="337.6" rx="4" fill="#B65C38"/>
<text x="599.0" y="127.4" text-anchor="middle" font-family="Arial" font-size="13" font-weight="400" fill="#2F332F">0.73</text>
<text x="599.0" y="505.0" text-anchor="middle" font-family="Arial" font-size="13" font-weight="400" fill="#2F332F">WE-5</text>
<rect x="726" y="155.9" width="110" height="319.1" rx="4" fill="#B65C38"/>
<text x="781.0" y="145.9" text-anchor="middle" font-family="Arial" font-size="13" font-weight="400" fill="#2F332F">0.69</text>
<text x="781.0" y="505.0" text-anchor="middle" font-family="Arial" font-size="13" font-weight="400" fill="#2F332F">WE-7</text>
<text x="480.0" y="560.0" text-anchor="middle" font-family="Arial" font-size="13" font-weight="400" fill="#2F332F">Claim boundary: performance difference only; mechanism needs FTIR/SEM/rheology.</text>
</svg>