<svg xmlns="http://www.w3.org/2000/svg" width="960" height="620" viewBox="0 0 960 620">
<rect width="100%" height="100%" fill="#FFFFFF"/>
<text x="480.0" y="34" text-anchor="middle" font-family="Arial" font-size="18" font-weight="700">Materials Science Figure Gallery</text>
<text x="480.0" y="58" text-anchor="middle" font-family="Arial" font-size="24" font-weight="700">FTIR Peak Annotation</text>
<line x1="105" y1="465" x2="875" y2="465" stroke="#2F332F" stroke-width="2"/>
<line x1="105" y1="105" x2="105" y2="465" stroke="#2F332F" stroke-width="2"/>
<polyline points="105.0,295.0 109.8,299.8 114.7,304.6 119.5,309.1 124.4,313.4 129.2,317.3 134.1,320.8 138.9,323.8 143.7,326.3 148.6,328.2 153.4,329.4 158.3,330.0 163.1,329.9 168.0,329.1 172.8,327.7 177.6,325.7 182.5,323.0 187.3,319.9 192.2,316.2 197.0,312.2 201.9,307.8 206.7,303.2 211.5,298.5 216.4,293.6 221.2,288.8 226.1,284.1 230.9,279.6 235.8,275.4 240.6,271.6 245.4,268.3 250.3,265.4 255.1,263.1 260.0,261.4 264.8,260.4 269.7,260.0 274.5,260.3 279.3,261.2 284.2,262.8 289.0,265.0 293.9,267.8 298.7,271.1 303.6,274.9 308.4,279.0 313.2,283.3 318.1,287.8 322.9,292.2 327.8,296.2 332.6,299.5 337.5,301.5 342.3,301.5 347.1,299.1 352.0,293.8 356.8,285.5 361.7,274.9 366.5,263.3 371.4,252.4 376.2,244.2 381.0,240.2 385.9,241.2 390.7,246.9 395.6,256.2 400.4,267.2 405.3,278.0 410.1,287.0 414.9,293.4 419.8,296.9 424.6,297.7 429.5,296.4 434.3,293.6 439.2,289.8 444.0,285.6 448.8,281.3 453.7,277.1 458.5,273.2 463.4,269.6 468.2,266.6 473.1,264.0 477.9,262.1 482.7,260.8 487.6,260.1 492.4,260.1 497.3,260.8 502.1,262.1 506.9,264.0 511.8,266.6 516.6,269.6 521.5,273.2 526.3,277.2 531.2,281.5 536.0,286.1 540.8,290.9 545.7,295.7 550.5,300.5 555.4,305.2 560.2,309.7 565.1,313.9 569.9,317.8 574.7,321.1 579.6,323.9 584.4,325.9 589.3,327.2 594.1,327.5 599.0,326.6 603.8,324.5 608.6,320.7 613.5,315.3 618.3,308.1 623.2,299.1 628.0,288.6 632.9,276.7 637.7,264.3 642.5,251.9 647.4,240.5 652.2,230.7 657.1,223.2 661.9,218.5 666.8,216.6 671.6,217.2 676.4,219.9 681.3,224.2 686.1,229.2 691.0,234.5 695.8,239.6 700.7,244.3 705.5,248.4 710.3,251.9 715.2,255.1 720.0,258.2 724.9,261.1 729.7,264.3 734.6,267.6 739.4,271.3 744.2,275.3 749.1,279.6 753.9,284.1 758.8,288.8 763.6,293.6 768.5,298.4 773.3,303.2 778.1,307.8 783.0,312.2 787.8,316.2 792.7,319.9 797.5,323.0 802.4,325.7 807.2,327.7 812.0,329.1 816.9,329.9 821.7,330.0 826.6,329.4 831.4,328.2 836.3,326.3 841.1,323.8 845.9,320.8 850.8,317.3 855.6,313.4 860.5,309.1 865.3,304.6 870.2,299.8 875.0,295.0" fill="none" stroke="#3E6F8E" stroke-width="3"/>
<line x1="382.2" y1="145" x2="382.2" y2="465" stroke="#B65C38" stroke-width="1.5" stroke-dasharray="5 5"/>
<text x="382.2" y="137.0" text-anchor="middle" font-family="Arial" font-size="13" font-weight="400" fill="#2F332F">1730 cm-1</text>
<line x1="659.4" y1="145" x2="659.4" y2="465" stroke="#B65C38" stroke-width="1.5" stroke-dasharray="5 5"/>
<text x="659.4" y="137.0" text-anchor="middle" font-family="Arial" font-size="13" font-weight="400" fill="#2F332F">1030 cm-1</text>
<text x="480.0" y="528.0" text-anchor="middle" font-family="Arial" font-size="13" font-weight="400" fill="#2F332F">Caption must name peak assignment and avoid overclaiming complete reaction pathways.</text>
</svg>