<svg xmlns="http://www.w3.org/2000/svg" width="820" height="300" viewBox="0 0 820 300">
  <rect width="820" height="300" fill="#f8f9f6"/>
  <text x="40" y="38" font-size="22" font-family="Arial" fill="#1f2a2e">Dosage Workability Window</text>
  <text x="40" y="62" font-size="12" font-family="Arial" fill="#40505a">WER-EA figure atlas - template only</text>
  <text x="40" y="84" font-size="11" font-family="Arial" fill="#40505a">Use: dosage optimization</text>
  <rect x="42" y="108" width="112" height="58" rx="6" fill="#2f6f4e" fill-opacity="0.92" stroke="#223" stroke-width="1.2" stroke-dasharray=""/><text x="98" y="137" font-size="10" text-anchor="middle" fill="#111">dosage</text><text x="98" y="152" font-size="8" text-anchor="middle" fill="#111">measured</text><rect x="166" y="108" width="112" height="58" rx="6" fill="#3e7cb1" fill-opacity="0.92" stroke="#223" stroke-width="1.2" stroke-dasharray="6 4"/><text x="222" y="137" font-size="10" text-anchor="middle" fill="#111">viscosity</text><text x="222" y="152" font-size="8" text-anchor="middle" fill="#111">inferred</text><rect x="290" y="108" width="112" height="58" rx="6" fill="#9a6b00" fill-opacity="0.92" stroke="#223" stroke-width="1.2" stroke-dasharray="2 4"/><text x="346" y="137" font-size="10" text-anchor="middle" fill="#111">bonding</text><text x="346" y="152" font-size="8" text-anchor="middle" fill="#111">speculative</text><rect x="414" y="108" width="112" height="58" rx="6" fill="#777777" fill-opacity="0.25" stroke="#223" stroke-width="1.2" stroke-dasharray=""/><text x="470" y="137" font-size="10" text-anchor="middle" fill="#111">stability</text><text x="470" y="152" font-size="8" text-anchor="middle" fill="#111">missing</text><rect x="538" y="108" width="112" height="58" rx="6" fill="#2f6f4e" fill-opacity="0.92" stroke="#223" stroke-width="1.2" stroke-dasharray=""/><text x="594" y="137" font-size="10" text-anchor="middle" fill="#111">workability</text><text x="594" y="152" font-size="8" text-anchor="middle" fill="#111">measured</text>
  <text x="40" y="196" font-size="11" font-family="Arial" fill="#222">Required evidence: dosage series and units</text>
  <rect x="48" y="214" width="20" height="10" fill="#2f6f4e" opacity="0.85"/><text x="74" y="223" font-size="10" fill="#222">measured</text><rect x="176" y="214" width="20" height="10" fill="#3e7cb1" opacity="0.85"/><text x="202" y="223" font-size="10" fill="#222">inferred</text><rect x="304" y="214" width="20" height="10" fill="#9a6b00" opacity="0.85"/><text x="330" y="223" font-size="10" fill="#222">speculative</text><rect x="432" y="214" width="20" height="10" fill="#777777" opacity="0.85"/><text x="458" y="223" font-size="10" fill="#222">missing</text>
  <text x="40" y="258" font-size="11" font-family="Arial" fill="#222">Claim boundary: template only; optimum is conditional on protocol and temperature</text>
</svg>
